<svg width="236" height="236" viewBox="0 0 236 236" fill="none" xmlns="http://www.w3.org/2000/svg">
<mask id="path-1-inside-1_0_1" fill="white">
<path d="M215.081 144.303C215.591 139.319 212.161 134.843 207.42 134.307C202.679 133.771 198.422 137.376 197.912 142.361L215.081 144.303ZM130.524 217.846H105.476V236H130.524V217.846ZM38.0881 142.361L35.9772 121.73L18.808 123.671L20.9188 144.303L38.0881 142.361ZM88.2418 109.52L108.843 70.6877L93.7614 61.8451L73.1605 100.676L88.2418 109.52ZM127.157 70.6876L147.758 109.52L162.84 100.676L142.239 61.8451L127.157 70.6876ZM147.758 109.52C149.621 113.029 151.335 116.284 152.996 118.772C154.707 121.332 157.039 124.159 160.612 125.813L167.572 109.199C168.215 109.496 168.106 109.802 167.128 108.34C166.103 106.804 164.886 104.533 162.84 100.676L147.758 109.52ZM174.884 102.434C171.906 105.553 170.139 107.387 168.748 108.57C167.423 109.696 167.394 109.373 168.085 109.273L170.45 127.256C174.315 126.694 177.296 124.65 179.61 122.682C181.858 120.77 184.359 118.136 187.071 115.295L174.884 102.434ZM160.612 125.813C163.701 127.243 167.108 127.741 170.45 127.256L168.085 109.273C167.909 109.298 167.732 109.273 167.572 109.199L160.612 125.813ZM48.9291 115.295C51.6412 118.136 54.1419 120.77 56.3906 122.682C58.7045 124.65 61.6851 126.694 65.5501 127.256L67.9154 109.273C68.6062 109.373 68.577 109.696 67.2519 108.57C65.8617 107.387 64.0945 105.553 61.1158 102.434L48.9291 115.295ZM73.1605 100.676C71.1145 104.533 69.8972 106.804 68.8717 108.34C67.8949 109.802 67.7854 109.496 68.4279 109.199L75.3871 125.813C78.9606 124.159 81.2939 121.332 83.004 118.772C84.6654 116.285 86.3794 113.029 88.2418 109.52L73.1605 100.676ZM65.5501 127.256C68.8923 127.741 72.2984 127.243 75.3871 125.813L68.4279 109.199C68.2686 109.273 68.0907 109.298 67.9154 109.273L65.5501 127.256ZM105.476 217.846C88.9226 217.846 77.3296 217.829 68.4811 216.638C59.8738 215.48 55.0111 213.337 51.3706 209.911L39.8537 223.438C47.1048 230.261 55.8499 233.241 66.2894 234.646C76.4877 236.017 89.3806 236 105.476 236V217.846ZM20.9188 144.303C22.6245 160.973 23.9778 177.301 26.2849 190.543C27.4485 197.222 28.9161 203.515 30.9486 208.977C32.9639 214.394 35.7442 219.571 39.8537 223.438L51.3706 209.911C50.0343 208.653 48.513 206.349 47.0302 202.365C45.5647 198.426 44.3378 193.398 43.2707 187.273C41.1157 174.904 39.8605 159.685 38.0881 142.361L20.9188 144.303ZM197.912 142.361C196.139 159.685 194.884 174.904 192.729 187.273C191.662 193.398 190.435 198.426 188.969 202.365C187.488 206.349 185.966 208.653 184.629 209.911L196.146 223.438C200.256 219.571 203.036 214.394 205.052 208.977C207.084 203.515 208.551 197.222 209.715 190.543C212.022 177.301 213.375 160.973 215.081 144.303L197.912 142.361ZM130.524 236C146.619 236 159.512 236.017 169.71 234.646C180.15 233.241 188.896 230.261 196.146 223.438L184.629 209.911C180.989 213.337 176.126 215.48 167.519 216.638C158.67 217.829 147.077 217.846 130.524 217.846V236ZM103.61 33.2821C103.61 24.9269 110.052 18.1538 118 18.1538V0C100.515 0 86.3415 14.9009 86.3415 33.2821H103.61ZM118 18.1538C125.948 18.1538 132.39 24.9269 132.39 33.2821H149.659C149.659 14.9009 135.485 0 118 0V18.1538ZM218.732 81.6923C218.732 86.7053 214.866 90.7692 210.098 90.7692V108.923C224.403 108.923 236 96.731 236 81.6923H218.732ZM201.463 81.6923C201.463 76.6793 205.329 72.6154 210.098 72.6154V54.4615C195.792 54.4615 184.195 66.6532 184.195 81.6923H201.463ZM210.098 72.6154C214.866 72.6154 218.732 76.6793 218.732 81.6923H236C236 66.6532 224.403 54.4615 210.098 54.4615V72.6154ZM25.9024 90.7692C21.134 90.7692 17.2683 86.7053 17.2683 81.6923H0C0 96.731 11.5969 108.923 25.9024 108.923V90.7692ZM17.2683 81.6923C17.2683 76.6793 21.134 72.6154 25.9024 72.6154V54.4615C11.5969 54.4615 0 66.6532 0 81.6923H17.2683ZM25.9024 72.6154C30.6709 72.6154 34.5366 76.6793 34.5366 81.6923H51.8049C51.8049 66.6532 40.208 54.4615 25.9024 54.4615V72.6154ZM210.098 90.7692C210.063 90.7692 210.028 90.769 209.994 90.7686L209.794 108.921C209.895 108.922 209.996 108.923 210.098 108.923V90.7692ZM209.994 90.7686C207.428 90.7374 205.135 89.538 203.559 87.6204L190.491 99.4879C195.166 105.177 202.076 108.827 209.794 108.921L209.994 90.7686ZM203.559 87.6204C202.247 86.0249 201.463 83.9663 201.463 81.6923H184.195C184.195 88.487 186.574 94.7207 190.491 99.4879L203.559 87.6204ZM187.071 115.295C194.87 107.128 198.887 103.012 201.56 101.278L192.49 85.8303C187.656 88.967 181.858 95.1298 174.884 102.434L187.071 115.295ZM34.5366 81.6923C34.5366 83.9663 33.7524 86.0249 32.4412 87.6204L45.5085 99.4879C49.4265 94.7207 51.8049 88.487 51.8049 81.6923H34.5366ZM61.1158 102.434C54.1414 95.1298 48.3439 88.967 43.5099 85.8303L34.4399 101.278C37.1127 103.012 41.13 107.128 48.9291 115.295L61.1158 102.434ZM32.4412 87.6204C30.8653 89.538 28.5723 90.7374 26.0065 90.7686L26.2062 108.921C33.9237 108.827 40.8339 105.177 45.5085 99.4879L32.4412 87.6204ZM26.0065 90.7686C25.9717 90.769 25.9371 90.7692 25.9024 90.7692V108.923C26.0039 108.923 26.1052 108.922 26.2062 108.921L26.0065 90.7686ZM35.9772 121.73C35.4082 116.168 34.961 111.785 34.7209 108.221C34.4752 104.576 34.4947 102.379 34.664 101.05L17.5486 98.6395C17.1344 101.89 17.2339 105.618 17.4958 109.504C17.7631 113.471 18.2509 118.226 18.808 123.671L35.9772 121.73ZM132.39 33.2821C132.39 39.1523 129.212 44.2577 124.525 46.7712L132.373 62.9422C142.614 57.4491 149.659 46.2382 149.659 33.2821H132.39ZM124.525 46.7712C122.576 47.8166 120.367 48.4103 118 48.4103V66.5641C123.157 66.5641 128.05 65.2607 132.373 62.9422L124.525 46.7712ZM142.239 61.8451C139.864 57.3686 137.73 53.3416 135.771 50.0465L121.127 59.6669C122.807 62.4943 124.709 66.0737 127.157 70.6876L142.239 61.8451ZM118 48.4103C115.633 48.4103 113.424 47.8166 111.475 46.7712L103.627 62.9422C107.95 65.2607 112.843 66.5641 118 66.5641V48.4103ZM111.475 46.7712C106.788 44.2577 103.61 39.1523 103.61 33.2821H86.3415C86.3415 46.2382 93.3853 57.4491 103.627 62.9422L111.475 46.7712ZM108.843 70.6877C111.291 66.0737 113.193 62.4943 114.873 59.6669L100.229 50.0465C98.2704 53.3416 96.136 57.3686 93.7614 61.8451L108.843 70.6877Z"/>
</mask>
<path d="M215.081 144.303C215.591 139.319 212.161 134.843 207.42 134.307C202.679 133.771 198.422 137.376 197.912 142.361L215.081 144.303ZM130.524 217.846H105.476V236H130.524V217.846ZM38.0881 142.361L35.9772 121.73L18.808 123.671L20.9188 144.303L38.0881 142.361ZM88.2418 109.52L108.843 70.6877L93.7614 61.8451L73.1605 100.676L88.2418 109.52ZM127.157 70.6876L147.758 109.52L162.84 100.676L142.239 61.8451L127.157 70.6876ZM147.758 109.52C149.621 113.029 151.335 116.284 152.996 118.772C154.707 121.332 157.039 124.159 160.612 125.813L167.572 109.199C168.215 109.496 168.106 109.802 167.128 108.34C166.103 106.804 164.886 104.533 162.84 100.676L147.758 109.52ZM174.884 102.434C171.906 105.553 170.139 107.387 168.748 108.57C167.423 109.696 167.394 109.373 168.085 109.273L170.45 127.256C174.315 126.694 177.296 124.65 179.61 122.682C181.858 120.77 184.359 118.136 187.071 115.295L174.884 102.434ZM160.612 125.813C163.701 127.243 167.108 127.741 170.45 127.256L168.085 109.273C167.909 109.298 167.732 109.273 167.572 109.199L160.612 125.813ZM48.9291 115.295C51.6412 118.136 54.1419 120.77 56.3906 122.682C58.7045 124.65 61.6851 126.694 65.5501 127.256L67.9154 109.273C68.6062 109.373 68.577 109.696 67.2519 108.57C65.8617 107.387 64.0945 105.553 61.1158 102.434L48.9291 115.295ZM73.1605 100.676C71.1145 104.533 69.8972 106.804 68.8717 108.34C67.8949 109.802 67.7854 109.496 68.4279 109.199L75.3871 125.813C78.9606 124.159 81.2939 121.332 83.004 118.772C84.6654 116.285 86.3794 113.029 88.2418 109.52L73.1605 100.676ZM65.5501 127.256C68.8923 127.741 72.2984 127.243 75.3871 125.813L68.4279 109.199C68.2686 109.273 68.0907 109.298 67.9154 109.273L65.5501 127.256ZM105.476 217.846C88.9226 217.846 77.3296 217.829 68.4811 216.638C59.8738 215.48 55.0111 213.337 51.3706 209.911L39.8537 223.438C47.1048 230.261 55.8499 233.241 66.2894 234.646C76.4877 236.017 89.3806 236 105.476 236V217.846ZM20.9188 144.303C22.6245 160.973 23.9778 177.301 26.2849 190.543C27.4485 197.222 28.9161 203.515 30.9486 208.977C32.9639 214.394 35.7442 219.571 39.8537 223.438L51.3706 209.911C50.0343 208.653 48.513 206.349 47.0302 202.365C45.5647 198.426 44.3378 193.398 43.2707 187.273C41.1157 174.904 39.8605 159.685 38.0881 142.361L20.9188 144.303ZM197.912 142.361C196.139 159.685 194.884 174.904 192.729 187.273C191.662 193.398 190.435 198.426 188.969 202.365C187.488 206.349 185.966 208.653 184.629 209.911L196.146 223.438C200.256 219.571 203.036 214.394 205.052 208.977C207.084 203.515 208.551 197.222 209.715 190.543C212.022 177.301 213.375 160.973 215.081 144.303L197.912 142.361ZM130.524 236C146.619 236 159.512 236.017 169.71 234.646C180.15 233.241 188.896 230.261 196.146 223.438L184.629 209.911C180.989 213.337 176.126 215.48 167.519 216.638C158.67 217.829 147.077 217.846 130.524 217.846V236ZM103.61 33.2821C103.61 24.9269 110.052 18.1538 118 18.1538V0C100.515 0 86.3415 14.9009 86.3415 33.2821H103.61ZM118 18.1538C125.948 18.1538 132.39 24.9269 132.39 33.2821H149.659C149.659 14.9009 135.485 0 118 0V18.1538ZM218.732 81.6923C218.732 86.7053 214.866 90.7692 210.098 90.7692V108.923C224.403 108.923 236 96.731 236 81.6923H218.732ZM201.463 81.6923C201.463 76.6793 205.329 72.6154 210.098 72.6154V54.4615C195.792 54.4615 184.195 66.6532 184.195 81.6923H201.463ZM210.098 72.6154C214.866 72.6154 218.732 76.6793 218.732 81.6923H236C236 66.6532 224.403 54.4615 210.098 54.4615V72.6154ZM25.9024 90.7692C21.134 90.7692 17.2683 86.7053 17.2683 81.6923H0C0 96.731 11.5969 108.923 25.9024 108.923V90.7692ZM17.2683 81.6923C17.2683 76.6793 21.134 72.6154 25.9024 72.6154V54.4615C11.5969 54.4615 0 66.6532 0 81.6923H17.2683ZM25.9024 72.6154C30.6709 72.6154 34.5366 76.6793 34.5366 81.6923H51.8049C51.8049 66.6532 40.208 54.4615 25.9024 54.4615V72.6154ZM210.098 90.7692C210.063 90.7692 210.028 90.769 209.994 90.7686L209.794 108.921C209.895 108.922 209.996 108.923 210.098 108.923V90.7692ZM209.994 90.7686C207.428 90.7374 205.135 89.538 203.559 87.6204L190.491 99.4879C195.166 105.177 202.076 108.827 209.794 108.921L209.994 90.7686ZM203.559 87.6204C202.247 86.0249 201.463 83.9663 201.463 81.6923H184.195C184.195 88.487 186.574 94.7207 190.491 99.4879L203.559 87.6204ZM187.071 115.295C194.87 107.128 198.887 103.012 201.56 101.278L192.49 85.8303C187.656 88.967 181.858 95.1298 174.884 102.434L187.071 115.295ZM34.5366 81.6923C34.5366 83.9663 33.7524 86.0249 32.4412 87.6204L45.5085 99.4879C49.4265 94.7207 51.8049 88.487 51.8049 81.6923H34.5366ZM61.1158 102.434C54.1414 95.1298 48.3439 88.967 43.5099 85.8303L34.4399 101.278C37.1127 103.012 41.13 107.128 48.9291 115.295L61.1158 102.434ZM32.4412 87.6204C30.8653 89.538 28.5723 90.7374 26.0065 90.7686L26.2062 108.921C33.9237 108.827 40.8339 105.177 45.5085 99.4879L32.4412 87.6204ZM26.0065 90.7686C25.9717 90.769 25.9371 90.7692 25.9024 90.7692V108.923C26.0039 108.923 26.1052 108.922 26.2062 108.921L26.0065 90.7686ZM35.9772 121.73C35.4082 116.168 34.961 111.785 34.7209 108.221C34.4752 104.576 34.4947 102.379 34.664 101.05L17.5486 98.6395C17.1344 101.89 17.2339 105.618 17.4958 109.504C17.7631 113.471 18.2509 118.226 18.808 123.671L35.9772 121.73ZM132.39 33.2821C132.39 39.1523 129.212 44.2577 124.525 46.7712L132.373 62.9422C142.614 57.4491 149.659 46.2382 149.659 33.2821H132.39ZM124.525 46.7712C122.576 47.8166 120.367 48.4103 118 48.4103V66.5641C123.157 66.5641 128.05 65.2607 132.373 62.9422L124.525 46.7712ZM142.239 61.8451C139.864 57.3686 137.73 53.3416 135.771 50.0465L121.127 59.6669C122.807 62.4943 124.709 66.0737 127.157 70.6876L142.239 61.8451ZM118 48.4103C115.633 48.4103 113.424 47.8166 111.475 46.7712L103.627 62.9422C107.95 65.2607 112.843 66.5641 118 66.5641V48.4103ZM111.475 46.7712C106.788 44.2577 103.61 39.1523 103.61 33.2821H86.3415C86.3415 46.2382 93.3853 57.4491 103.627 62.9422L111.475 46.7712ZM108.843 70.6877C111.291 66.0737 113.193 62.4943 114.873 59.6669L100.229 50.0465C98.2704 53.3416 96.136 57.3686 93.7614 61.8451L108.843 70.6877Z" fill="#1C274C"/>
<path d="M88.2418 109.52L79.8121 123.897L96.6723 95.1425L88.2418 109.52ZM93.7614 61.8451L102.191 47.4674L85.331 76.2223L93.7614 61.8451ZM127.157 70.6876L118.727 56.3098L135.586 85.0657L127.157 70.6876ZM162.84 100.676L171.271 115.054L154.41 86.299L162.84 100.676ZM160.612 125.813L145.24 119.374L175.985 132.253L160.612 125.813ZM174.884 102.434L186.982 90.9695L162.786 113.897L174.884 102.434ZM168.085 109.273L184.609 107.1L151.561 111.446L168.085 109.273ZM48.9291 115.295L36.8305 103.832L61.0273 126.759L48.9291 115.295ZM67.9154 109.273L84.4398 111.446L51.391 107.099L67.9154 109.273ZM51.3706 209.911L64.0614 220.714L38.6804 199.106L51.3706 209.911ZM184.629 209.911L197.319 199.106L171.938 220.714L184.629 209.911ZM203.559 87.6204L214.764 99.9576L192.354 75.2824L203.559 87.6204ZM124.525 46.7712L139.519 39.4936L109.531 54.048L124.525 46.7712ZM111.475 46.7712L126.469 54.048L96.4811 39.4936L111.475 46.7712ZM197.912 142.361L196.039 158.922L213.209 160.864L215.081 144.303L216.954 127.741L199.784 125.8L197.912 142.361ZM29.5035 143.332L27.6309 126.771L19.0463 127.741L20.9188 144.303L22.7913 160.864L31.376 159.893L29.5035 143.332ZM27.3927 122.701L29.2652 139.262L37.8497 138.291L35.9772 121.73L34.1047 105.169L25.5202 106.139L27.3927 122.701ZM80.7012 105.099L72.2715 119.476L79.8121 123.897L88.2418 109.52L96.6715 95.142L89.1309 90.721L80.7012 105.099ZM101.302 66.2664L109.732 51.8891L102.192 47.4678L93.7614 61.8451L85.331 76.2223L92.8712 80.6437L101.302 66.2664ZM134.698 66.2664L126.269 51.8883L118.728 56.3094L127.157 70.6876L135.586 85.0657L143.127 80.6445L134.698 66.2664ZM155.298 105.099L163.729 119.476L171.271 115.054L162.84 100.676L154.409 86.2992L146.868 90.7215L155.298 105.099ZM164.093 117.506L148.72 111.066L145.24 119.374L160.612 125.813L175.985 132.253L179.465 123.946L164.093 117.506ZM180.977 108.864L193.075 97.3996L186.982 90.9695L174.884 102.434L162.786 113.898L168.88 120.328L180.977 108.864ZM169.267 118.265L185.792 116.092L184.609 107.1L168.085 109.273L151.561 111.446L152.743 120.438L169.267 118.265ZM55.0225 108.864L42.9239 97.4008L36.8305 103.832L48.9291 115.295L61.0278 126.758L67.1212 120.327L55.0225 108.864ZM66.7327 118.265L83.2571 120.438L84.4398 111.446L67.9154 109.273L51.391 107.1L50.2084 116.092L66.7327 118.265ZM71.9076 117.506L56.535 123.945L60.0145 132.252L75.3871 125.813L90.7598 119.374L87.2802 111.067L71.9076 117.506ZM45.6122 216.675L58.303 227.478L64.0614 220.714L51.3706 209.911L38.6799 199.107L32.9215 205.871L45.6122 216.675ZM190.388 216.675L203.078 205.871L197.32 199.107L184.629 209.911L171.938 220.714L177.697 227.478L190.388 216.675ZM209.894 99.8449L193.228 99.661L193.128 108.737L209.794 108.921L226.459 109.105L226.559 100.029L209.894 99.8449ZM197.025 93.5544L208.231 105.892L214.764 99.9576L203.559 87.6204L192.353 75.2831L185.82 81.2172L197.025 93.5544ZM128.45 54.8567L143.443 47.579L139.519 39.4936L124.525 46.7712L109.531 54.0489L113.456 62.1343L128.45 54.8567ZM107.55 54.8567L122.544 62.1343L126.469 54.0489L111.475 46.7712L96.4811 39.4936L92.5566 47.579L107.55 54.8567ZM105.476 217.846H88.8092V236H105.476H122.143V217.846H105.476ZM130.524 236H147.191V217.846H130.524H113.857V236H130.524ZM35.9772 121.73L34.1047 105.169L16.9355 107.11L18.808 123.671L20.6806 140.232L37.8497 138.291L35.9772 121.73ZM20.9188 144.303L22.7913 160.864L39.9606 158.922L38.0881 142.361L36.2156 125.8L19.0463 127.741L20.9188 144.303ZM108.843 70.6877L117.273 56.3101L102.191 47.4674L93.7614 61.8451L85.3316 76.2227L100.413 85.0653L108.843 70.6877ZM73.1605 100.676L64.73 115.054L79.8113 123.897L88.2418 109.52L96.6723 95.1425L81.5909 86.2992L73.1605 100.676ZM147.758 109.52L156.188 123.897L171.27 115.054L162.84 100.676L154.41 86.299L139.328 95.1423L147.758 109.52ZM142.239 61.8451L133.809 47.4673L118.727 56.3098L127.157 70.6876L135.586 85.0653L150.668 76.2228L142.239 61.8451ZM160.612 125.813L175.985 132.252L182.944 115.638L167.572 109.199L152.199 102.76L145.24 119.374L160.612 125.813ZM168.085 109.273L151.561 111.446L153.925 129.429L170.45 127.256L186.974 125.083L184.609 107.1L168.085 109.273ZM187.071 115.295L199.169 103.831L186.982 90.9701L174.884 102.434L162.786 113.897L174.973 126.759L187.071 115.295ZM65.5501 127.256L82.0744 129.429L84.4397 111.446L67.9154 109.273L51.391 107.099L49.0257 125.083L65.5501 127.256ZM61.1158 102.434L49.0177 90.9702L36.831 103.832L48.9291 115.295L61.0273 126.759L73.214 113.897L61.1158 102.434ZM68.4279 109.199L53.0553 115.638L60.0146 132.252L75.3871 125.813L90.7597 119.374L83.8005 102.76L68.4279 109.199ZM51.3706 209.911L38.6804 199.106L27.1635 212.633L39.8537 223.438L52.5439 234.242L64.0609 220.715L51.3706 209.911ZM184.629 209.911L171.939 220.715L183.456 234.242L196.146 223.438L208.836 212.633L197.319 199.106L184.629 209.911ZM118 18.1538H134.667V0H118H101.333V18.1538H118ZM86.3415 33.2821V49.9487H103.61V33.2821V16.6154H86.3415V33.2821ZM132.39 33.2821V49.9487H149.659V33.2821V16.6154H132.39V33.2821ZM210.098 90.7692H193.431V108.923H210.098H226.764V90.7692H210.098ZM236 81.6923V65.0256H218.732V81.6923V98.359H236V81.6923ZM210.098 72.6154H226.764V54.4615H210.098H193.431V72.6154H210.098ZM184.195 81.6923V98.359H201.463V81.6923V65.0256H184.195V81.6923ZM17.2683 81.6923V65.0256H0V81.6923V98.359H17.2683V81.6923ZM25.9024 108.923H42.5691V90.7692H25.9024H9.23577V108.923H25.9024ZM25.9024 72.6154H42.5691V54.4615H25.9024H9.23577V72.6154H25.9024ZM34.5366 81.6923V98.359H51.8049V81.6923V65.0256H34.5366V81.6923ZM209.994 90.7686L193.328 90.5847L193.128 108.737L209.794 108.921L226.459 109.105L226.66 90.9525L209.994 90.7686ZM203.559 87.6204L192.354 75.2824L179.286 87.1499L190.491 99.4879L201.696 111.826L214.764 99.9583L203.559 87.6204ZM32.4412 87.6204L21.2361 99.9582L34.3034 111.826L45.5085 99.4879L56.7136 87.15L43.6464 75.2825L32.4412 87.6204ZM26.0065 90.7686L9.34085 90.952L9.54059 109.104L26.2062 108.921L42.8719 108.737L42.6722 90.5853L26.0065 90.7686ZM124.525 46.7712L109.531 54.048L117.379 70.2189L132.373 62.9422L147.367 55.6654L139.519 39.4944L124.525 46.7712ZM118 48.4103H101.333V66.5641H118H134.667V48.4103H118ZM111.475 46.7712L96.4807 39.4944L88.6328 55.6654L103.627 62.9422L118.621 70.2189L126.469 54.048L111.475 46.7712ZM215.081 144.303L248.241 147.696L248.241 147.696L215.081 144.303ZM197.912 142.361L231.072 145.755L231.072 145.754L197.912 142.361ZM20.9188 144.303L-12.2414 147.695L-12.2414 147.695L20.9188 144.303ZM35.9772 121.73L2.81697 125.122L2.817 125.123L35.9772 121.73ZM88.2418 109.52L117.687 125.144L117.688 125.142L88.2418 109.52ZM93.7614 61.8451L123.207 77.4669L123.208 77.4655L93.7614 61.8451ZM127.157 70.6876L97.71 86.308L97.7106 86.3092L127.157 70.6876ZM162.84 100.676L192.288 85.0579L192.286 85.0545L162.84 100.676ZM160.612 125.813L146.608 156.062L146.614 156.065L160.612 125.813ZM174.884 102.434L198.992 125.454L198.992 125.453L174.884 102.434ZM168.085 109.273L172.882 142.259L163.324 76.2812L168.085 109.273ZM48.9291 115.295L73.0381 92.2762L73.0357 92.2737L48.9291 115.295ZM67.9154 109.273L72.6973 76.2843L63.119 142.259L67.9154 109.273ZM75.3871 125.813L89.386 156.065L89.3914 156.062L75.3871 125.813ZM51.3706 209.911L74.2157 185.637L74.2135 185.635L51.3706 209.911ZM184.629 209.911L161.788 185.633L161.783 185.638L184.629 209.911ZM209.794 108.921L209.391 142.252L209.395 142.252L209.794 108.921ZM203.559 87.6204L177.806 108.785L177.806 108.785L203.559 87.6204ZM124.525 46.7712L108.771 17.3958L108.769 17.3967L124.525 46.7712ZM111.475 46.7712L127.231 17.3967L127.229 17.3958L111.475 46.7712ZM38.0881 142.361L71.2483 138.969L71.2483 138.968L38.0881 142.361ZM18.808 123.671L51.9683 120.279L51.9682 120.278L18.808 123.671ZM108.843 70.6877L138.289 86.3096L138.29 86.3079L108.843 70.6877ZM73.1605 100.676L43.7144 85.0545L43.7134 85.0565L73.1605 100.676ZM147.758 109.52L118.312 125.141L118.314 125.146L147.758 109.52ZM142.239 61.8451L171.685 46.2232L171.685 46.2228L142.239 61.8451ZM152.996 118.772L125.273 137.28L125.278 137.287L125.282 137.294L152.996 118.772ZM167.572 109.199L181.521 78.9247L153.607 139.466L167.572 109.199ZM167.128 108.34L139.409 126.853L139.413 126.859L139.417 126.866L167.128 108.34ZM168.748 108.57L147.156 83.1748L147.155 83.176L168.748 108.57ZM170.45 127.256L175.24 160.243L175.241 160.243L170.45 127.256ZM179.61 122.682L201.205 148.075L201.205 148.074L179.61 122.682ZM187.071 115.295L162.965 92.2732L162.963 92.2752L187.071 115.295ZM56.3906 122.682L77.986 97.2906L77.9837 97.2886L56.3906 122.682ZM65.5501 127.256L60.7573 160.243L60.7601 160.243L65.5501 127.256ZM67.2519 108.57L45.6558 133.961L45.6586 133.963L67.2519 108.57ZM61.1158 102.434L37.0081 125.454L37.0102 125.456L61.1158 102.434ZM68.8717 108.34L96.5879 126.858L96.5931 126.85L68.8717 108.34ZM68.4279 109.199L82.4418 139.443L54.4602 78.9333L68.4279 109.199ZM83.004 118.772L110.721 137.289L110.722 137.288L83.004 118.772ZM68.4811 216.638L72.9272 183.603L72.9264 183.603L68.4811 216.638ZM39.8537 223.438L62.6972 199.162L62.6961 199.161L39.8537 223.438ZM66.2894 234.646L61.843 267.681L61.8475 267.682L66.2894 234.646ZM26.2849 190.543L59.1236 184.822L59.1235 184.821L26.2849 190.543ZM30.9486 208.977L62.19 197.355L62.189 197.352L30.9486 208.977ZM47.0302 202.365L15.7898 213.99L15.7902 213.991L47.0302 202.365ZM43.2707 187.273L10.432 192.994L10.432 192.994L43.2707 187.273ZM192.729 187.273L159.891 181.551L159.89 181.551L192.729 187.273ZM188.969 202.365L157.729 190.739L157.726 190.746L188.969 202.365ZM196.146 223.438L173.305 199.16L173.301 199.163L196.146 223.438ZM205.052 208.977L236.292 220.602L236.293 220.6L205.052 208.977ZM209.715 190.543L242.554 196.265L242.554 196.264L209.715 190.543ZM169.71 234.646L174.152 267.682L174.157 267.681L169.71 234.646ZM167.519 216.638L163.073 183.603L163.072 183.603L167.519 216.638ZM209.994 90.7686L209.588 124.099L209.616 124.1L209.644 124.1L209.994 90.7686ZM190.491 99.4879L216.245 78.3255L216.244 78.3245L190.491 99.4879ZM201.56 101.278L219.703 129.241L246.446 111.89L230.305 84.3998L201.56 101.278ZM192.49 85.8303L221.234 68.9523L203.585 38.8945L174.345 57.8681L192.49 85.8303ZM32.4412 87.6204L58.1942 108.784L58.1944 108.784L32.4412 87.6204ZM45.5085 99.4879L19.7564 78.3234L19.7536 78.3267L45.5085 99.4879ZM43.5099 85.8303L61.6544 57.8681L32.414 38.8941L14.7651 68.9529L43.5099 85.8303ZM34.4399 101.278L5.69508 84.4005L-10.4448 111.889L16.2958 129.24L34.4399 101.278ZM26.0065 90.7686L26.3546 124.1L26.3834 124.1L26.4121 124.099L26.0065 90.7686ZM26.2062 108.921L26.6053 142.252L26.6087 142.252L26.2062 108.921ZM34.7209 108.221L67.9788 105.98L67.9788 105.98L34.7209 108.221ZM34.664 101.05L67.7299 105.264L71.8885 72.6313L39.3134 68.0429L34.664 101.05ZM17.5486 98.6395L22.198 65.632L-11.2481 60.9209L-15.5174 94.4263L17.5486 98.6395ZM17.4958 109.504L50.7537 107.263L50.7537 107.263L17.4958 109.504ZM132.373 62.9422L148.128 92.3172L148.129 92.3168L132.373 62.9422ZM135.771 50.0465L164.426 33.017L146.613 3.04241L117.47 22.1868L135.771 50.0465ZM121.127 59.6669L102.825 31.8071L76.1887 49.3051L92.4738 76.6999L121.127 59.6669ZM103.627 62.9422L87.8719 92.3171L87.8721 92.3172L103.627 62.9422ZM114.873 59.6669L143.526 76.6999L159.811 49.3051L133.175 31.8071L114.873 59.6669ZM100.229 50.0465L118.53 22.1868L89.3874 3.04241L71.5736 33.017L100.229 50.0465ZM215.081 144.303L248.241 147.696C250.456 126.055 235.543 103.942 211.166 101.185L207.42 134.307L203.674 167.429C188.779 165.745 180.726 152.583 181.921 140.909L215.081 144.303ZM207.42 134.307L211.166 101.185C186.465 98.3913 166.989 117.1 164.752 138.969L197.912 142.361L231.072 145.754C229.855 157.652 218.893 169.15 203.674 167.429L207.42 134.307ZM130.524 217.846V184.513H105.476V217.846V251.179H130.524V217.846ZM105.476 236V269.333H130.524V236V202.667H105.476V236ZM38.0881 142.361L71.2483 138.968L69.1374 118.337L35.9772 121.73L2.817 125.123L4.92787 145.754L38.0881 142.361ZM18.808 123.671L-14.3522 127.064L-12.2414 147.695L20.9188 144.303L54.079 140.91L51.9683 120.279L18.808 123.671ZM88.2418 109.52L117.688 125.142L138.289 86.3096L108.843 70.6877L79.3972 55.0658L58.7958 93.8979L88.2418 109.52ZM93.7614 61.8451L64.3154 46.2232L43.7144 85.0545L73.1605 100.676L102.606 116.298L123.207 77.4669L93.7614 61.8451ZM127.157 70.6876L97.7106 86.3092L118.312 125.141L147.758 109.52L177.204 93.8981L156.603 55.0659L127.157 70.6876ZM162.84 100.676L192.286 85.0545L171.685 46.2232L142.239 61.8451L112.793 77.467L133.394 116.298L162.84 100.676ZM147.758 109.52L118.314 125.146C119.858 128.055 122.46 133.067 125.273 137.28L152.996 118.772L180.719 100.264C180.209 99.5005 179.383 98.0037 177.202 93.8935L147.758 109.52ZM152.996 118.772L125.282 137.294C128.261 141.751 134.793 150.592 146.608 156.062L160.612 125.813L174.617 95.5648C179.285 97.726 181.153 100.913 180.71 100.25L152.996 118.772ZM167.572 109.199L153.622 139.473C151.486 138.489 149.69 137.367 148.223 136.293C147.472 135.743 146.82 135.216 146.269 134.743C146.205 134.689 146.153 134.643 146.118 134.613C145.964 134.479 146.18 134.667 146.298 134.768C146.323 134.789 146.557 134.991 146.859 135.237C147.056 135.398 147.667 135.879 148.085 136.194C149.33 137.077 171.084 142.634 190.319 134.182C201.144 112.752 193.766 88.3284 192.71 87.1005C192.344 86.7023 191.79 86.1231 191.607 85.9373C191.327 85.6563 191.1 85.4386 191.077 85.4161C190.957 85.3006 190.754 85.109 190.895 85.2422C191.069 85.4071 191.289 85.6194 191.539 85.8696C193.389 87.7214 194.461 89.2485 194.839 89.814L167.128 108.34L139.417 126.866C140.773 128.893 142.388 130.998 144.377 132.988C144.644 133.256 144.875 133.478 145.054 133.648C145.196 133.782 144.994 133.591 144.874 133.476C144.851 133.453 144.623 133.236 144.344 132.955C144.161 132.769 143.607 132.19 143.241 131.792C142.185 130.564 134.806 106.14 145.632 84.7099C164.867 76.258 186.621 81.8155 187.866 82.6977C188.284 83.0134 188.895 83.4945 189.092 83.6549C189.393 83.9014 189.628 84.1026 189.652 84.1237C189.77 84.2247 189.986 84.4122 189.83 84.2767C189.794 84.2454 189.74 84.199 189.675 84.143C189.108 83.6568 188.415 83.095 187.6 82.4981C186.002 81.3288 183.979 80.0573 181.521 78.9247L167.572 109.199ZM167.128 108.34L194.848 89.8265C195.096 90.1981 195.055 90.1828 194.522 89.221C194.009 88.2944 193.338 87.0385 192.288 85.0579L162.84 100.676L133.392 116.295C135.08 119.477 137.216 123.569 139.409 126.853L167.128 108.34ZM174.884 102.434L150.777 79.4132C149.245 81.0174 148.279 82.0237 147.55 82.7582C146.793 83.5222 146.779 83.4957 147.156 83.1748L168.748 108.57L190.34 133.965C193.374 131.385 196.558 128.003 198.992 125.454L174.884 102.434ZM168.748 108.57L147.155 83.176C147.696 82.7158 149.214 81.4828 151.612 80.1656C151.923 79.9949 152.26 79.8163 152.623 79.6331C152.712 79.5883 152.816 79.5366 152.932 79.4795C152.962 79.4649 153 79.4461 153.044 79.4244C153.057 79.4185 153.176 79.3603 153.327 79.2884C153.49 79.2115 156.221 78.0761 158.869 77.2343C198.678 97.244 182.803 139.077 182.576 139.192C182.401 139.28 182.26 139.349 182.257 139.35C181.993 139.479 181.767 139.585 181.593 139.665C180.82 140.021 179.989 140.368 179.103 140.69C177.338 141.332 175.251 141.915 172.882 142.259L168.085 109.273L163.288 76.2865C160.573 76.6813 158.231 77.342 156.319 78.0376C155.359 78.3867 154.482 78.7537 153.69 79.1184C153.513 79.2003 153.284 79.3076 153.019 79.4366C153.016 79.4381 152.875 79.5071 152.7 79.5947C152.473 79.7095 136.598 121.543 176.407 141.553C179.055 140.711 181.786 139.575 181.949 139.498C182.1 139.427 182.219 139.368 182.232 139.362C182.276 139.341 182.315 139.322 182.345 139.307C182.461 139.25 182.566 139.197 182.656 139.152C183.025 138.966 183.376 138.78 183.709 138.597C186.28 137.185 188.475 135.55 190.341 133.963L168.748 108.57ZM170.45 127.256L175.241 160.243C188.278 158.349 197.079 151.583 201.205 148.075L179.61 122.682L158.015 97.29C157.512 97.7176 160.352 95.0396 165.658 94.2689L170.45 127.256ZM179.61 122.682L201.205 148.074C205.079 144.78 208.947 140.652 211.179 138.315L187.071 115.295L162.963 92.2752C159.77 95.6191 158.637 96.761 158.014 97.2908L179.61 122.682ZM160.612 125.813L146.614 156.065C155.528 160.19 165.459 161.664 175.24 160.243L170.45 127.256L165.659 94.2687C168.756 93.819 171.874 94.2956 174.611 95.5621L160.612 125.813ZM168.085 109.273L163.324 76.2812C169.44 75.3988 175.773 76.2731 181.536 78.9316L167.572 109.199L153.607 139.466C159.69 142.273 166.378 143.198 172.845 142.264L168.085 109.273ZM48.9291 115.295L24.8202 138.314C27.0533 140.653 30.9215 144.781 34.7976 148.076L56.3906 122.682L77.9837 97.2886C77.3622 96.76 76.2291 95.6183 73.0381 92.2762L48.9291 115.295ZM56.3906 122.682L34.7953 148.074C38.9203 151.583 47.7215 158.349 60.7573 160.243L65.5501 127.256L70.3429 94.2691C75.6488 95.04 78.4887 97.718 77.986 97.2906L56.3906 122.682ZM67.9154 109.273L63.119 142.259C60.7501 141.915 58.6621 141.332 56.8934 140.689C56.009 140.367 55.1704 140.018 54.3778 139.651C54.2457 139.59 53.933 139.445 53.5384 139.249C53.4941 139.227 53.3915 139.176 53.3331 139.146C53.2332 139.096 52.9421 138.946 52.7513 138.845C52.0892 138.485 36.9723 98.1783 73.4641 76.4528C77.4908 77.3344 81.7575 78.87 82.1351 79.0385C82.2764 79.103 82.4995 79.2065 82.5815 79.245C82.6319 79.2688 82.7218 79.3116 82.7614 79.3306C82.8421 79.3692 82.9077 79.401 82.9492 79.4212C83.1082 79.4986 83.2391 79.5639 83.3291 79.6091C83.7147 79.8029 84.0635 79.9877 84.3729 80.1574C86.7813 81.4787 88.3051 82.7167 88.8453 83.176L67.2519 108.57L45.6586 133.963C47.5238 135.549 49.7248 137.189 52.3063 138.605C52.6374 138.787 53 138.979 53.3917 139.176C53.4832 139.222 53.6153 139.288 53.7749 139.365C53.8165 139.386 53.8822 139.417 53.963 139.456C54.0026 139.475 54.0926 139.518 54.143 139.542C54.2251 139.58 54.4482 139.684 54.5895 139.748C54.9671 139.917 59.2338 141.452 63.2605 142.334C99.7523 120.609 84.6354 80.3023 83.9733 79.9416C83.7825 79.8413 83.4914 79.6912 83.3915 79.6405C83.3331 79.6111 83.2303 79.5597 83.1861 79.5377C82.7907 79.3414 82.4756 79.1949 82.3391 79.1319C81.529 78.7576 80.6437 78.3876 79.6856 78.039C77.7695 77.342 75.4261 76.6811 72.7117 76.2864L67.9154 109.273ZM67.2519 108.57L88.8481 83.1784C89.2235 83.4977 89.208 83.5227 88.4496 82.7579C87.7206 82.0226 86.7537 81.0157 85.2215 79.4114L61.1158 102.434L37.0102 125.456C39.4443 128.005 42.6257 131.384 45.6558 133.961L67.2519 108.57ZM73.1605 100.676L43.7134 85.0565C42.6633 87.0361 41.9926 88.2924 41.479 89.219C40.946 90.1807 40.9039 90.1983 41.1503 89.8294L68.8717 108.34L96.5931 126.85C98.7835 123.57 100.917 119.483 102.608 116.296L73.1605 100.676ZM68.8717 108.34L41.1555 89.8215C41.5287 89.2629 42.6078 87.7225 44.4766 85.8543C44.725 85.606 44.966 85.3733 45.1964 85.1567C45.2214 85.1331 45.2419 85.1139 45.255 85.1017C45.2964 85.063 45.242 85.1139 45.222 85.1326C45.2207 85.1338 45.1224 85.2259 45.0019 85.3409C44.9217 85.4178 44.6738 85.6586 44.507 85.8235C44.0418 86.296 37.2528 96.6321 34.7199 108.069C52.3736 138.877 88.4846 135.762 89.1688 135.215C89.3807 135.04 89.686 134.782 89.7805 134.701C89.8365 134.652 89.9245 134.576 89.9565 134.548C89.9793 134.528 90.0154 134.497 90.0288 134.485C90.1036 134.419 89.9508 134.554 89.8081 134.677C89.2211 135.184 88.5544 135.723 87.8069 136.271C86.3337 137.352 84.5341 138.478 82.3956 139.465L68.4279 109.199L54.4602 78.9333C52.0005 80.0685 49.9736 81.3437 48.3708 82.5196C47.5585 83.1156 46.8513 83.6888 46.2488 84.2089C46.1022 84.3354 45.9471 84.4722 46.021 84.4072C46.0344 84.3955 46.0705 84.3639 46.0932 84.344C46.1252 84.316 46.2131 84.2397 46.2691 84.1914C46.3636 84.1103 46.6689 83.8524 46.8807 83.6771C47.565 83.1306 83.676 80.0157 101.33 110.823C98.7967 122.26 92.0077 132.596 91.5426 133.069C91.3758 133.234 91.1279 133.474 91.0477 133.551C90.9272 133.666 90.829 133.758 90.8278 133.759C90.8081 133.778 90.7539 133.829 90.7957 133.789C90.8092 133.777 90.8301 133.757 90.8558 133.733C91.0909 133.512 91.3428 133.269 91.6085 133.003C93.6157 130.997 95.2379 128.879 96.5879 126.858L68.8717 108.34ZM75.3871 125.813L89.3914 156.062C101.204 150.593 107.738 141.755 110.721 137.289L83.004 118.772L55.2867 100.255C54.8502 100.909 56.7171 97.7247 61.3829 95.5646L75.3871 125.813ZM83.004 118.772L110.722 137.288C113.54 133.07 116.146 128.047 117.687 125.144L88.2418 109.52L58.7969 93.8958C56.6129 98.0117 55.7912 99.5004 55.2864 100.256L83.004 118.772ZM65.5501 127.256L60.7601 160.243C70.5413 161.664 80.4718 160.19 89.386 156.065L75.3871 125.813L61.3883 95.5621C64.1251 94.2956 67.2433 93.819 70.3401 94.2687L65.5501 127.256ZM68.4279 109.199L54.4141 78.9546C60.2142 76.2671 66.576 75.397 72.6973 76.2843L67.9154 109.273L63.1335 142.261C69.6055 143.2 76.323 142.279 82.4418 139.443L68.4279 109.199ZM105.476 217.846V184.513C87.9754 184.513 79.0347 184.425 72.9272 183.603L68.4811 216.638L64.035 249.674C75.6245 251.234 89.8698 251.179 105.476 251.179V217.846ZM68.4811 216.638L72.9264 183.603C71.6909 183.436 70.9329 183.28 70.5348 183.184C70.1463 183.09 70.1939 183.075 70.5423 183.216C70.9144 183.366 71.5224 183.65 72.2542 184.115C72.9959 184.587 73.6616 185.115 74.2157 185.637L51.3706 209.911L28.5256 234.184C39.1014 244.138 51.603 248.001 64.0358 249.674L68.4811 216.638ZM39.8537 223.438L17.0102 247.713C31.2063 261.072 47.5994 265.764 61.843 267.681L66.2894 234.646L70.7358 201.61C67.3007 201.148 65.3957 200.584 64.343 200.159C63.475 199.809 63.0711 199.514 62.6972 199.162L39.8537 223.438ZM66.2894 234.646L61.8475 267.682C74.776 269.42 90.2911 269.333 105.476 269.333V236V202.667C88.47 202.667 78.1995 202.614 70.7313 201.61L66.2894 234.646ZM20.9188 144.303L-12.2414 147.695C-10.6516 163.234 -9.12723 181.494 -6.55377 196.264L26.2849 190.543L59.1235 184.821C57.0829 173.109 55.9005 158.712 54.079 140.91L20.9188 144.303ZM26.2849 190.543L-6.55384 196.264C-5.22167 203.91 -3.33032 212.437 -0.291869 220.603L30.9486 208.977L62.189 197.352C61.1625 194.594 60.1187 190.534 59.1236 184.822L26.2849 190.543ZM30.9486 208.977L-0.292792 220.6C2.64636 228.5 7.7031 238.955 17.0114 247.714L39.8537 223.438L62.6961 199.161C63.3117 199.74 63.4487 200.058 63.2608 199.743C63.0638 199.411 62.6796 198.671 62.19 197.355L30.9486 208.977ZM51.3706 209.911L74.2135 185.635C76.2886 187.587 77.4235 189.312 77.9003 190.114C78.3958 190.946 78.4641 191.259 78.2702 190.738L47.0302 202.365L15.7902 213.991C18.1955 220.454 21.9926 228.037 28.5278 234.186L51.3706 209.911ZM47.0302 202.365L78.2706 190.739C77.8125 189.508 77.0091 186.716 76.1093 181.551L43.2707 187.273L10.432 192.994C11.6665 200.08 13.3168 207.344 15.7898 213.99L47.0302 202.365ZM43.2707 187.273L76.1093 181.551C74.2211 170.714 73.1392 157.45 71.2483 138.969L38.0881 142.361L4.92787 145.754C6.58178 161.919 8.01026 179.094 10.432 192.994L43.2707 187.273ZM197.912 142.361L164.752 138.968C162.86 157.452 161.779 170.713 159.891 181.551L192.729 187.273L225.568 192.994C227.99 179.095 229.418 161.918 231.072 145.755L197.912 142.361ZM192.729 187.273L159.89 181.551C158.991 186.714 158.187 189.507 157.729 190.739L188.969 202.365L220.21 213.99C222.682 207.346 224.333 200.081 225.568 192.994L192.729 187.273ZM188.969 202.365L157.726 190.746C157.534 191.264 157.603 190.948 158.1 190.113C158.578 189.31 159.714 187.585 161.788 185.633L184.629 209.911L207.47 234.188C214.006 228.039 217.805 220.455 220.212 213.983L188.969 202.365ZM196.146 223.438L218.987 247.715C228.297 238.956 233.353 228.501 236.292 220.602L205.052 208.977L173.811 197.352C173.321 198.669 172.937 199.411 172.74 199.742C172.552 200.058 172.689 199.74 173.305 199.16L196.146 223.438ZM205.052 208.977L236.293 220.6C239.33 212.437 241.221 203.912 242.554 196.265L209.715 190.543L176.877 184.821C175.882 190.532 174.837 194.594 173.81 197.355L205.052 208.977ZM209.715 190.543L242.554 196.264C245.127 181.494 246.651 163.232 248.241 147.696L215.081 144.303L181.921 140.909C180.099 158.714 178.917 173.109 176.877 184.821L209.715 190.543ZM130.524 236V269.333C145.709 269.333 161.224 269.42 174.152 267.682L169.71 234.646L165.269 201.61C157.8 202.614 147.53 202.667 130.524 202.667V236ZM169.71 234.646L174.157 267.681C188.399 265.764 204.794 261.072 218.991 247.712L196.146 223.438L173.301 199.163C172.928 199.514 172.525 199.809 171.657 200.159C170.604 200.584 168.699 201.148 165.264 201.61L169.71 234.646ZM184.629 209.911L161.783 185.638C162.337 185.116 163.003 184.587 163.745 184.115C164.477 183.65 165.086 183.366 165.458 183.216C165.806 183.075 165.854 183.089 165.465 183.184C165.067 183.28 164.309 183.436 163.073 183.603L167.519 216.638L171.964 249.674C184.396 248.001 196.899 244.138 207.475 234.183L184.629 209.911ZM167.519 216.638L163.072 183.603C156.965 184.425 148.025 184.513 130.524 184.513V217.846V251.179C146.13 251.179 160.375 251.234 171.965 249.674L167.519 216.638ZM103.61 33.2821H136.943C136.943 41.7452 130.013 51.4872 118 51.4872V18.1538V-15.1795C90.0906 -15.1795 70.2764 8.10861 70.2764 33.2821H103.61ZM118 0V-33.3333C80.5544 -33.3333 53.0081 -1.91793 53.0081 33.2821H86.3415H119.675C119.675 32.754 119.855 32.6285 119.766 32.7218C119.719 32.7717 119.555 32.9245 119.22 33.0735C118.857 33.235 118.416 33.3333 118 33.3333V0ZM118 18.1538V51.4872C105.987 51.4872 99.0569 41.7452 99.0569 33.2821H132.39H165.724C165.724 8.10863 145.909 -15.1795 118 -15.1795V18.1538ZM149.659 33.2821H182.992C182.992 -1.91792 155.446 -33.3333 118 -33.3333V0V33.3333C117.584 33.3333 117.143 33.235 116.78 33.0735C116.445 32.9245 116.281 32.7717 116.234 32.7218C116.145 32.6285 116.325 32.754 116.325 33.2821H149.659ZM218.732 81.6923H185.398C185.398 69.8859 194.906 57.4359 210.098 57.4359V90.7692V124.103C234.826 124.103 252.065 103.525 252.065 81.6923H218.732ZM210.098 108.923V142.256C244.363 142.256 269.333 113.55 269.333 81.6923H236H202.667C202.667 80.5484 203.131 79.1612 204.261 77.9734C205.419 76.7565 207.491 75.5897 210.098 75.5897V108.923ZM201.463 81.6923H234.797C234.797 93.4986 225.29 105.949 210.098 105.949V72.6154V39.2821C185.369 39.2821 168.13 59.86 168.13 81.6923H201.463ZM210.098 54.4615V21.1282C175.832 21.1282 150.862 49.8338 150.862 81.6923H184.195H217.528C217.528 82.8357 217.064 84.2231 215.934 85.4112C214.776 86.6283 212.704 87.7949 210.098 87.7949V54.4615ZM210.098 72.6154V105.949C194.906 105.949 185.398 93.4987 185.398 81.6923H218.732H252.065C252.065 59.8599 234.826 39.2821 210.098 39.2821V72.6154ZM236 81.6923H269.333C269.333 49.8338 244.363 21.1282 210.098 21.1282V54.4615V87.7949C207.492 87.7949 205.419 86.6283 204.261 85.4112C203.131 84.2231 202.667 82.8357 202.667 81.6923H236ZM25.9024 90.7692V57.4359C41.0947 57.4359 50.6016 69.8863 50.6016 81.6923H17.2683H-16.065C-16.065 103.524 1.17327 124.103 25.9024 124.103V90.7692ZM0 81.6923H-33.3333C-33.3333 113.55 -8.36417 142.256 25.9024 142.256V108.923V75.5897C28.5084 75.5897 30.581 76.7564 31.7387 77.9735C32.8688 79.1616 33.3333 80.5488 33.3333 81.6923H0ZM17.2683 81.6923H50.6016C50.6016 93.4983 41.0947 105.949 25.9024 105.949V72.6154V39.2821C1.17327 39.2821 -16.065 59.8603 -16.065 81.6923H17.2683ZM25.9024 54.4615V21.1282C-8.3638 21.1282 -33.3333 49.8342 -33.3333 81.6923H0H33.3333C33.3333 82.8354 32.8689 84.2227 31.7386 85.411C30.5806 86.6284 28.508 87.7949 25.9024 87.7949V54.4615ZM25.9024 72.6154V105.949C10.7102 105.949 1.20325 93.4983 1.20325 81.6923H34.5366H67.8699C67.8699 59.8603 50.6316 39.2821 25.9024 39.2821V72.6154ZM51.8049 81.6923H85.1382C85.1382 49.8342 60.1687 21.1282 25.9024 21.1282V54.4615V87.7949C23.2969 87.7949 21.2243 86.6284 20.0663 85.411C18.936 84.2227 18.4715 82.8354 18.4715 81.6923H51.8049ZM210.098 90.7692V57.4359C210.21 57.4359 210.297 57.4366 210.344 57.4371L209.994 90.7686L209.644 124.1C209.76 124.101 209.916 124.103 210.098 124.103V90.7692ZM209.794 108.921L209.395 142.252C209.462 142.252 209.763 142.256 210.098 142.256V108.923V75.5897C210.177 75.5897 210.232 75.5902 210.245 75.5903C210.252 75.5904 210.253 75.5904 210.244 75.5903C210.233 75.5902 210.22 75.59 210.192 75.5897L209.794 108.921ZM209.994 90.7686L210.4 57.4378C218.367 57.5347 225.107 61.3406 229.311 66.4559L203.559 87.6204L177.806 108.785C185.162 117.735 196.488 123.94 209.588 124.099L209.994 90.7686ZM190.491 99.4879L164.737 120.65C175.167 133.342 191.098 142.031 209.391 142.252L209.794 108.921L210.196 75.5897C213.053 75.6242 215.166 77.0122 216.245 78.3255L190.491 99.4879ZM203.559 87.6204L229.311 66.456C232.84 70.7501 234.797 76.1506 234.797 81.6923H201.463H168.13C168.13 91.782 171.655 101.3 177.806 108.785L203.559 87.6204ZM184.195 81.6923H150.862C150.862 96.3238 155.994 110.012 164.738 120.651L190.491 99.4879L216.244 78.3245C217.153 79.4299 217.528 80.6503 217.528 81.6923H184.195ZM187.071 115.295L211.177 138.317C215.156 134.15 217.72 131.493 219.567 129.683C220.46 128.808 220.923 128.391 221.09 128.246C221.299 128.065 220.778 128.544 219.703 129.241L201.56 101.278L183.418 73.3143C179.054 76.1456 175.346 79.6776 172.909 82.0656C170.129 84.7889 166.785 88.273 162.965 92.2732L187.071 115.295ZM201.56 101.278L230.305 84.3998L221.234 68.9523L192.49 85.8303L163.745 102.708L172.816 118.156L201.56 101.278ZM192.49 85.8303L174.345 57.8681C165.37 63.6922 156.248 73.6835 150.776 79.4141L174.884 102.434L198.992 125.453C202.683 121.588 205.358 118.772 207.732 116.462C210.25 114.013 211.027 113.538 210.634 113.793L192.49 85.8303ZM34.5366 81.6923H1.20325C1.20325 76.1482 3.16127 70.7488 6.68806 66.4571L32.4412 87.6204L58.1944 108.784C64.3435 101.301 67.8699 91.7843 67.8699 81.6923H34.5366ZM45.5085 99.4879L71.2607 120.652C80.0055 110.012 85.1382 96.3239 85.1382 81.6923H51.8049H18.4715C18.4715 80.6502 18.8474 79.4293 19.7564 78.3234L45.5085 99.4879ZM61.1158 102.434L85.2235 79.4135C79.752 73.6835 70.6295 63.692 61.6544 57.8681L43.5099 85.8303L25.3653 113.793C24.9724 113.538 25.7499 114.014 28.2675 116.463C30.6416 118.772 33.3168 121.588 37.0081 125.454L61.1158 102.434ZM43.5099 85.8303L14.7651 68.9529L5.69508 84.4005L34.4399 101.278L63.1847 118.155L72.2547 102.708L43.5099 85.8303ZM34.4399 101.278L16.2958 129.24C15.221 128.543 14.7003 128.065 14.9101 128.246C15.0773 128.391 15.5407 128.809 16.4332 129.683C18.2802 131.493 20.8441 134.15 24.8225 138.316L48.9291 115.295L73.0357 92.2737C69.215 88.2729 65.8707 84.7888 63.091 82.0652C60.6534 79.6768 56.9462 76.1459 52.584 73.3154L34.4399 101.278ZM32.4412 87.6204L6.68826 66.4568C10.8918 61.3418 17.6315 57.5347 25.6009 57.4378L26.0065 90.7686L26.4121 124.099C39.5132 123.94 50.8389 117.734 58.1942 108.784L32.4412 87.6204ZM26.2062 108.921L26.6087 142.252C44.9004 142.031 60.8336 133.343 71.2634 120.649L45.5085 99.4879L19.7536 78.3267C20.8342 77.0116 22.9469 75.6242 25.8038 75.5897L26.2062 108.921ZM26.0065 90.7686L25.6584 57.4371C25.7044 57.4366 25.7905 57.4359 25.9024 57.4359V90.7692V124.103C26.0837 124.103 26.2391 124.101 26.3546 124.1L26.0065 90.7686ZM25.9024 108.923V142.256C26.2369 142.256 26.5382 142.252 26.6053 142.252L26.2062 108.921L25.8072 75.5897C25.7796 75.59 25.7668 75.5902 25.7559 75.5903C25.7465 75.5904 25.7476 75.5904 25.7548 75.5903C25.768 75.5902 25.8227 75.5897 25.9024 75.5897V108.923ZM35.9772 121.73L69.1375 118.338C68.5471 112.567 68.1714 108.839 67.9788 105.98L34.7209 108.221L1.46296 110.462C1.75066 114.732 2.26925 119.769 2.81697 125.122L35.9772 121.73ZM34.7209 108.221L67.9788 105.98C67.9341 105.317 67.9066 104.795 67.8903 104.395C67.8739 103.991 67.8703 103.746 67.8699 103.634C67.8694 103.516 67.8726 103.596 67.8612 103.833C67.8502 104.059 67.8196 104.56 67.7299 105.264L34.664 101.05L1.5981 96.8366C0.998639 101.541 1.19102 106.427 1.463 110.463L34.7209 108.221ZM34.664 101.05L39.3134 68.0429L22.198 65.632L17.5486 98.6395L12.8993 131.647L30.0147 134.058L34.664 101.05ZM17.5486 98.6395L-15.5174 94.4263C-16.3586 101.029 -16.0536 107.421 -15.7621 111.745L17.4958 109.504L50.7537 107.263C50.6487 105.705 50.6045 104.574 50.6018 103.727C50.599 102.861 50.6426 102.633 50.6146 102.853L17.5486 98.6395ZM17.4958 109.504L-15.7621 111.745C-15.4474 116.417 -14.8887 121.821 -14.3521 127.065L18.808 123.671L51.9682 120.278C51.3904 114.632 50.9735 110.526 50.7537 107.263L17.4958 109.504ZM132.39 33.2821H99.0569C99.0569 27.0425 102.482 20.7688 108.771 17.3958L124.525 46.7712L140.279 76.1466C155.942 67.7467 165.724 51.2621 165.724 33.2821H132.39ZM132.373 62.9422L148.129 92.3168C169.298 80.9622 182.992 58.4014 182.992 33.2821H149.659H116.325C116.325 33.4907 116.298 33.6252 116.276 33.7032C116.253 33.787 116.227 33.8378 116.214 33.8603C116.199 33.8855 116.204 33.8683 116.254 33.8196C116.305 33.7705 116.419 33.674 116.617 33.5675L132.373 62.9422ZM124.525 46.7712L108.769 17.3967C111.498 15.9328 114.683 15.0769 118 15.0769V48.4103V81.7436C126.051 81.7436 133.654 79.7005 140.281 76.1457L124.525 46.7712ZM118 66.5641V99.8974C128.844 99.8974 139.129 97.1436 148.128 92.3172L132.373 62.9422L116.618 33.5671C116.971 33.3777 117.471 33.2308 118 33.2308V66.5641ZM142.239 61.8451L171.685 46.2228C169.438 41.9873 166.887 37.1571 164.426 33.017L135.771 50.0465L107.116 67.076C108.572 69.526 110.29 72.7499 112.793 77.4673L142.239 61.8451ZM135.771 50.0465L117.47 22.1868L102.825 31.8071L121.127 59.6669L139.428 87.5266L154.073 77.9063L135.771 50.0465ZM121.127 59.6669L92.4738 76.6999C93.6487 78.6762 95.128 81.4406 97.71 86.308L127.157 70.6876L156.604 55.0671C154.291 50.7068 151.966 46.3123 149.78 42.6338L121.127 59.6669ZM118 48.4103V15.0769C121.317 15.0769 124.502 15.9328 127.231 17.3967L111.475 46.7712L95.7189 76.1457C102.346 79.7005 109.949 81.7436 118 81.7436V48.4103ZM103.627 62.9422L87.8721 92.3172C96.8709 97.1436 107.156 99.8974 118 99.8974V66.5641V33.2308C118.529 33.2308 119.029 33.3777 119.382 33.5671L103.627 62.9422ZM111.475 46.7712L127.229 17.3958C133.518 20.7688 136.943 27.0425 136.943 33.2821H103.61H70.2764C70.2764 51.2621 80.0582 67.7467 95.7207 76.1466L111.475 46.7712ZM86.3415 33.2821H53.0081C53.0081 58.4007 66.7011 80.9622 87.8719 92.3171L103.627 62.9422L119.382 33.5672C119.581 33.6737 119.694 33.7702 119.745 33.8195C119.796 33.8683 119.801 33.8856 119.786 33.8605C119.773 33.8381 119.747 33.7874 119.724 33.7035C119.702 33.6255 119.675 33.4909 119.675 33.2821H86.3415ZM108.843 70.6877L138.29 86.3079C140.872 81.4405 142.351 78.6761 143.526 76.6999L114.873 59.6669L86.2204 42.6338C84.0336 46.3124 81.7094 50.7069 79.3963 55.0675L108.843 70.6877ZM114.873 59.6669L133.175 31.8071L118.53 22.1868L100.229 50.0465L81.9271 77.9063L96.5718 87.5266L114.873 59.6669ZM100.229 50.0465L71.5736 33.017C69.1129 37.1577 66.5623 41.9875 64.3147 46.2246L93.7614 61.8451L123.208 77.4655C125.71 72.7497 127.428 69.5255 128.884 67.076L100.229 50.0465Z" fill="#F4ADBD" mask="url(#path-1-inside-1_0_1)"/>
<path d="M39.3337 184.696H196.667" stroke="#F4ADBD" stroke-width="20" stroke-linecap="round"/>
<mask id="path-4-inside-2_0_1" fill="white">
<path d="M207.42 134.307C212.161 134.843 215.591 139.319 215.081 144.302C213.375 160.972 212.022 177.301 209.715 190.543C208.551 197.222 207.084 203.515 205.052 208.977C203.036 214.394 200.256 219.571 196.146 223.437C188.896 230.261 180.15 233.24 169.71 234.646C159.635 236 146.93 236 131.106 236H130.524H105.476C94 236 93 217.846 105.476 217.846H130.524C147.077 217.846 158.67 217.829 167.519 216.638C176.126 215.48 180.989 213.337 184.629 209.91C185.966 208.653 187.488 206.349 188.969 202.364C190.435 198.426 191.662 193.398 192.729 187.273C194.884 174.904 196.139 159.685 197.912 142.361C198.422 137.376 202.679 133.771 207.42 134.307Z"/>
<path d="M30 150.5C26.633 150.835 21.8376 147.605 20.9188 144.302C20 141 18.808 123.671 18.808 123.671L18.7941 123.535C18.2427 118.147 17.7609 113.438 17.4958 109.504C17.4484 108.801 17.4063 108.103 17.3716 107.412C7.25725 103.704 0 93.5888 0 81.6922C0 66.6531 11.5969 54.4614 25.9024 54.4614C40.208 54.4614 51.8049 66.6531 51.8049 81.6922C51.8049 85.0596 51.2207 88.2891 50.1545 91.2707C53.4422 94.3669 57.0822 98.2094 61.1158 102.434C64.0945 105.552 65.8617 107.387 67.2519 108.57C67.6932 108.945 67.9908 109.159 68.1659 109.275C68.1722 109.274 68.1786 109.273 68.185 109.272C68.3227 109.11 68.5502 108.821 68.8717 108.34C69.8972 106.804 71.1145 104.533 73.1605 100.676C73.1605 100.676 78.5 93.1885 85 97C91.5 100.811 88.2418 109.52 88.2418 109.52L88.0385 109.903C86.2544 113.266 84.6048 116.376 83.004 118.772C81.2939 121.332 78.9606 124.159 75.3871 125.813C72.2984 127.243 68.8923 127.741 65.5501 127.256C61.6851 126.694 58.7045 124.65 56.3906 122.682C54.2162 120.833 51.8061 118.309 49.1973 115.576L48.9291 115.295C44.6081 110.77 41.4479 107.489 39.0341 105.167C37.6547 106.021 36.1928 106.746 34.664 107.324C34.6811 107.613 34.7 107.912 34.7209 108.221C34.961 111.785 35.4082 116.168 35.9772 121.73C35.9772 121.73 38.0881 138.5 38.0881 142.361C38.0881 146.222 33.367 150.165 30 150.5Z"/>
<path d="M127.157 70.6875C127.157 70.6875 124.5 61.5 130.5 58.5C136.5 55.5 142.239 61.845 142.239 61.845L162.84 100.676C164.886 104.533 166.103 106.804 167.128 108.34C167.45 108.821 167.678 109.111 167.815 109.272C167.822 109.273 167.828 109.274 167.834 109.275C167.917 109.285 168.001 109.285 168.085 109.273C168.085 109.273 173.5 107.5 175.5 116C177.5 124.5 170.45 127.256 170.45 127.256C167.108 127.741 163.701 127.243 160.612 125.813C157.039 124.159 154.707 121.332 152.996 118.772C151.394 116.372 149.742 113.259 147.956 109.892L147.758 109.52L127.157 70.6875Z"/>
<path d="M192.5 89C196 86.5 200.5 85.5 203.559 87.6203C206.617 89.7405 207.428 90.7373 209.994 90.7685C210.028 90.7689 210.063 90.7691 210.098 90.7691C214.866 90.7691 218.732 86.7052 218.732 81.6922C218.732 81.6922 221 74.5 227.5 74.5C234 74.5 236 81.6922 236 81.6922C236 96.7308 224.403 108.923 210.098 108.923C209.996 108.923 209.895 108.922 209.794 108.921C202.076 108.827 195.166 105.177 190.491 99.4878C190.491 99.4878 189 91.5 192.5 89Z"/>
</mask>
<path d="M27.3927 122.701L29.2652 139.262H29.2652L27.3927 122.701ZM155.298 105.099L163.728 119.476L163.729 119.476L155.298 105.099ZM160.612 125.813L145.24 119.374L175.985 132.253L160.612 125.813ZM174.884 102.434L186.982 90.9694L174.93 78.2521L162.83 90.9233L174.884 102.434ZM48.9291 115.295L36.8305 103.832L61.0273 126.758L48.9291 115.295ZM66.7327 118.265L83.2571 120.438L83.2571 120.438L66.7327 118.265ZM67.9154 109.273L70.3063 92.7785L53.5931 90.3558L51.391 107.099L67.9154 109.273ZM71.9076 117.506L87.2802 111.067L87.2801 111.067L71.9076 117.506ZM184.629 209.91L197.319 199.106L171.938 220.714L184.629 209.91ZM209.894 99.8448L226.559 100.029V100.029L209.894 99.8448ZM167.572 109.199L174.547 94.062L158.868 86.8375L152.199 102.76L167.572 109.199ZM167.815 109.272L180.497 98.4575L176.46 93.7239L170.309 92.793L167.815 109.272ZM168.748 108.57L157.952 95.8722L157.951 95.8727L168.748 108.57ZM167.834 109.275L177.007 123.19L177.008 123.189L167.834 109.275ZM68.1659 109.275L77.3299 95.3535L72.1546 91.9467L66.0107 92.7479L68.1659 109.275ZM68.185 109.272L65.6797 92.7947L59.5326 93.7293L55.4997 98.4617L68.185 109.272ZM68.4279 109.199L83.8004 102.76L77.127 86.8279L61.4437 94.0662L68.4279 109.199ZM17.3716 107.412L0.725905 108.247L1.27874 119.264L11.6356 123.06L17.3716 107.412ZM50.1545 91.2707L65.848 96.8826L69.5199 86.6142L61.5811 79.1376L50.1545 91.2707ZM43.5099 85.8302L52.5822 71.8491L37.9619 62.3621L29.1375 77.3915L43.5099 85.8302ZM34.4399 101.278L20.0675 92.8391L11.9975 106.584L25.368 115.259L34.4399 101.278ZM39.0341 105.167L27.4803 117.179L36.8073 126.15L47.8095 119.337L39.0341 105.167ZM26.2062 108.921L26.365 125.586L26.3862 125.586L26.4075 125.586L26.2062 108.921ZM34.664 107.324L40.5564 122.914L52.0262 118.579L51.3015 106.339L34.664 107.324ZM26.205 108.921L26.0463 92.2546L26.0259 92.2548L26.0055 92.2551L26.205 108.921ZM34.664 101.05L51.197 103.157L53.2764 86.8406L36.9886 84.5465L34.664 101.05ZM17.5486 98.6394L19.8733 82.1357L3.15024 79.7801L1.01562 96.5328L17.5486 98.6394ZM197.912 142.361L196.039 158.922L213.209 160.864L215.081 144.302L216.954 127.741L199.784 125.8L197.912 142.361ZM27.3927 122.701L29.2652 139.262L37.8497 138.291L35.9772 121.73L34.1047 105.169L25.5202 106.139L27.3927 122.701ZM155.298 105.099L163.729 119.476L171.271 115.053L162.84 100.676L154.409 86.2991L146.868 90.7213L155.298 105.099ZM164.093 117.506L148.72 111.066L145.24 119.373L160.612 125.813L175.985 132.253L179.465 123.946L164.093 117.506ZM180.977 108.864L193.075 97.3995L186.982 90.9694L174.884 102.434L162.786 113.898L168.88 120.328L180.977 108.864ZM55.0225 108.864L42.9239 97.4007L36.8305 103.832L48.9291 115.295L61.0278 126.758L67.1212 120.327L55.0225 108.864ZM66.7327 118.265L83.2571 120.438L84.4398 111.446L67.9154 109.273L51.391 107.099L50.2084 116.092L66.7327 118.265ZM71.9076 117.506L56.535 123.945L60.0145 132.252L75.3871 125.813L90.7598 119.374L87.2802 111.067L71.9076 117.506ZM190.388 216.675L203.078 205.871L197.32 199.107L184.629 209.91L171.938 220.714L177.697 227.478L190.388 216.675ZM209.894 99.8448L193.228 99.6609L193.128 108.737L209.794 108.921L226.459 109.104L226.559 100.029L209.894 99.8448ZM130.524 236H147.191V217.846H130.524H113.857V236H130.524ZM27.3927 122.701L25.5202 106.139L16.9356 107.11L18.808 123.671L20.6805 140.232L29.2652 139.262L27.3927 122.701ZM147.758 109.52L156.188 123.897L163.728 119.476L155.298 105.099L146.869 90.7209L139.328 95.142L147.758 109.52ZM160.612 125.813L175.985 132.252L182.944 115.638L167.572 109.199L152.199 102.76L145.24 119.374L160.612 125.813ZM167.572 109.199L160.596 124.336C160.091 124.103 159.625 123.852 159.197 123.596L167.781 109.309L176.364 95.0229C175.822 94.697 175.216 94.3705 174.547 94.062L167.572 109.199ZM167.781 109.309L159.195 123.594C159.111 123.544 159.025 123.491 158.937 123.435L167.815 109.33L176.693 95.2249C176.583 95.1559 176.474 95.089 176.367 95.0242L167.781 109.309ZM167.815 109.33L158.938 123.436C158.139 122.933 157.502 122.426 157.039 122.023C156.861 121.867 157.167 122.137 157.422 122.346C157.47 122.385 157.697 122.571 157.997 122.795C158.181 122.931 158.717 123.304 159.072 123.535C159.951 124.054 165.479 125.925 170.306 125.949C181.964 118.506 183.077 102.394 181.799 100.135C181.373 99.5327 180.705 98.6877 180.483 98.4304C180.152 98.0551 179.873 97.7744 179.839 97.7395C179.682 97.5807 179.554 97.4578 179.542 97.4464C179.503 97.4087 179.472 97.3795 179.462 97.3694C179.372 97.2844 179.485 97.3915 179.508 97.4137C179.616 97.5168 179.723 97.6232 179.831 97.7327C180.043 97.9477 180.223 98.1441 180.374 98.3152L167.856 109.319L155.338 120.322C155.576 120.593 155.819 120.855 156.07 121.11C156.198 121.24 156.319 121.36 156.435 121.471C156.462 121.497 156.577 121.606 156.489 121.522C156.478 121.512 156.448 121.483 156.409 121.445C156.397 121.434 156.269 121.311 156.112 121.152C156.078 121.118 155.799 120.837 155.468 120.462C155.246 120.204 154.578 119.359 154.152 118.757C152.874 116.498 153.987 100.386 165.645 92.9431C170.472 92.9674 176 94.8381 176.879 95.3566C177.234 95.5878 177.77 95.9611 177.954 96.0968C178.254 96.321 178.481 96.5073 178.529 96.5461C178.784 96.7548 179.09 97.0238 178.91 96.8678C178.432 96.452 177.688 95.8509 176.692 95.224L167.815 109.33ZM167.856 109.319L180.378 98.3194C180.41 98.3562 180.441 98.3922 180.471 98.4273L167.824 109.282L155.176 120.136C155.229 120.198 155.282 120.258 155.334 120.318L167.856 109.319ZM167.824 109.282L180.482 98.4402C180.478 98.435 180.474 98.4308 180.473 98.4291C180.472 98.4286 180.472 98.4282 180.472 98.428C180.472 98.4276 180.472 98.4276 180.471 98.4275C180.471 98.4273 180.472 98.4278 180.472 98.4285C180.473 98.4298 180.476 98.4333 180.48 98.438C180.484 98.4427 180.49 98.4494 180.497 98.4575L167.815 109.272L155.134 120.087C155.15 120.105 155.162 120.12 155.167 120.125C155.168 120.127 155.172 120.131 155.17 120.129C155.17 120.129 155.168 120.127 155.165 120.123L167.824 109.282ZM174.884 102.434L162.83 90.9233C159.58 94.3274 158.521 95.3885 157.952 95.8722L168.748 108.57L179.544 121.267C181.757 119.386 184.232 116.777 186.938 113.944L174.884 102.434ZM168.748 108.57L157.951 95.8727C157.928 95.8924 158.173 95.6815 158.66 95.3599L167.834 109.275L177.008 123.189C177.846 122.637 178.685 121.997 179.545 121.266L168.748 108.57ZM167.834 109.275L158.661 95.3593C158.661 95.3597 158.664 95.3578 158.668 95.3551C158.672 95.3522 158.679 95.3474 158.689 95.3413L167.824 109.282L176.959 123.222C176.982 123.206 177.002 123.193 177.007 123.19L167.834 109.275ZM167.824 109.282L158.691 95.3399C158.74 95.3078 158.789 95.276 158.839 95.2444L167.781 109.309L176.723 123.374C176.799 123.326 176.877 123.275 176.956 123.223L167.824 109.282ZM167.781 109.309L158.835 95.2468C159.034 95.12 159.273 94.9757 159.55 94.8215C159.688 94.7444 159.838 94.6636 159.999 94.5804C160.077 94.5399 160.166 94.4951 160.263 94.4471C160.283 94.4371 160.323 94.4174 160.374 94.3929C160.386 94.387 160.416 94.3727 160.454 94.3545C160.476 94.3441 160.533 94.3168 160.569 94.3C160.652 94.2615 161.113 94.0571 161.495 93.9C182.574 101.999 175.795 123.927 175.349 124.169C175.264 124.213 175.14 124.276 175.102 124.295C175.045 124.324 175.001 124.345 174.991 124.35C174.898 124.396 174.825 124.431 174.793 124.446C174.083 124.784 173.288 125.099 172.409 125.351L167.815 109.33L163.221 93.309C162.129 93.6222 161.211 93.9944 160.485 94.3397C160.451 94.3557 160.378 94.3907 160.285 94.4362C160.275 94.4413 160.231 94.463 160.174 94.4912C160.136 94.5106 160.012 94.5737 159.927 94.6178C159.48 94.8595 152.701 116.788 173.781 124.887C174.163 124.73 174.624 124.525 174.707 124.487C174.743 124.47 174.8 124.442 174.822 124.432C174.86 124.414 174.89 124.4 174.902 124.394C174.953 124.369 174.993 124.349 175.014 124.339C175.112 124.29 175.204 124.244 175.287 124.201C175.457 124.113 175.623 124.024 175.785 123.934C176.108 123.753 176.422 123.565 176.727 123.372L167.781 109.309ZM167.815 109.33L172.411 125.351C172.301 125.382 172.191 125.412 172.079 125.442L167.856 109.319L163.633 93.1961C163.493 93.2328 163.355 93.2707 163.219 93.3097L167.815 109.33ZM167.856 109.319L172.078 125.442C171.581 125.572 171.049 125.684 170.484 125.766L168.085 109.273L165.686 92.7796C164.944 92.8875 164.258 93.0323 163.634 93.1958L167.856 109.319ZM170.45 127.256L172.845 143.749C181.297 142.522 187.188 138.117 190.407 135.379L179.61 122.682L168.812 109.986C168.147 110.552 167.789 110.779 167.635 110.863C167.528 110.921 167.696 110.814 168.054 110.762L170.45 127.256ZM167.815 109.272L170.309 92.793C171.77 93.014 173.199 93.4405 174.554 94.0653L167.572 109.199L160.589 124.332C162.099 125.029 163.693 125.505 165.321 125.751L167.815 109.272ZM65.5501 127.256L82.0744 129.429L83.2571 120.438L66.7327 118.265L50.2084 116.091L49.0258 125.082L65.5501 127.256ZM67.9154 109.273L65.5176 125.766C64.9522 125.684 64.4196 125.572 63.9224 125.442L68.1444 109.319L72.3664 93.1958C71.7419 93.0322 71.0557 92.8874 70.3132 92.7794L67.9154 109.273ZM68.1444 109.319L63.9216 125.442C63.8118 125.413 63.7024 125.383 63.5934 125.352L68.1852 109.33L72.777 93.3084C72.6421 93.2697 72.5055 93.2322 72.3672 93.196L68.1444 109.319ZM68.1852 109.33L63.594 125.352C62.7214 125.102 61.9154 124.784 61.174 124.43C61.1466 124.417 61.1126 124.401 61.0735 124.382C61.0662 124.378 60.9586 124.326 60.8249 124.258C60.8058 124.249 60.6685 124.179 60.4968 124.087C60.3751 124.021 59.9691 123.792 59.6876 123.624C58.1544 122.568 53.7518 101.374 72.211 93.1771C73.3134 93.479 74.6442 93.9559 74.8943 94.06C75.0049 94.1076 75.1792 94.1845 75.243 94.2133C75.3523 94.2628 75.4371 94.3027 75.4635 94.3151C75.5764 94.3683 75.6646 94.4115 75.6794 94.4187C75.8047 94.48 75.9088 94.5328 75.9845 94.5718C76.1515 94.6577 76.3047 94.7402 76.4436 94.8176C76.7225 94.973 76.9625 95.1181 77.1623 95.2451L68.2191 109.309L59.2759 123.373C59.5812 123.567 59.8965 123.756 60.2222 123.938C60.3845 124.028 60.554 124.119 60.7304 124.21C60.8108 124.251 60.9179 124.306 61.0445 124.368C61.0597 124.375 61.148 124.418 61.2611 124.471C61.2875 124.484 61.3722 124.524 61.4816 124.573C61.5454 124.602 61.7197 124.679 61.8303 124.727C62.0804 124.831 63.4113 125.308 64.5137 125.61C82.9728 117.413 78.5702 96.2184 77.0371 95.1621C76.7555 94.9943 76.3495 94.7652 76.2278 94.6994C76.0561 94.6075 75.9188 94.5381 75.8997 94.5284C75.7659 94.4606 75.6581 94.4083 75.6504 94.4046C75.6111 94.3855 75.5767 94.3689 75.5487 94.3556C74.7909 93.9934 73.8624 93.6194 72.7763 93.3082L68.1852 109.33ZM68.2191 109.309L77.1618 95.2447C77.2105 95.2757 77.2586 95.3068 77.306 95.3378L68.1766 109.282L59.0473 123.226C59.1249 123.276 59.2013 123.326 59.2764 123.373L68.2191 109.309ZM68.1766 109.282L77.3031 95.3359C77.3122 95.3419 77.3194 95.3466 77.3237 95.3494C77.3277 95.3521 77.3305 95.3539 77.3299 95.3535L68.1659 109.275L59.0018 123.196C59.0067 123.199 59.0264 123.212 59.0501 123.227L68.1766 109.282ZM61.1158 102.434L49.0177 90.9701L36.831 103.831L48.9291 115.295L61.0273 126.758L73.214 113.897L61.1158 102.434ZM68.185 109.272L55.4997 98.4617C55.5121 98.4472 55.5215 98.4362 55.5244 98.4328C55.5258 98.4311 55.527 98.4298 55.526 98.4309C55.5256 98.4313 55.5231 98.4343 55.5202 98.4377L68.1766 109.282L80.833 120.126C80.8315 120.127 80.8304 120.129 80.8314 120.128C80.8318 120.127 80.8343 120.124 80.8371 120.121C80.8429 120.114 80.8551 120.1 80.8702 120.082L68.185 109.272ZM68.1766 109.282L55.5265 98.4304C55.5554 98.3966 55.5883 98.3586 55.6249 98.317L68.1444 109.319L80.6639 120.321C80.7207 120.256 80.775 120.193 80.8268 120.133L68.1766 109.282ZM68.1444 109.319L55.6258 98.316C55.7767 98.1443 55.9594 97.9457 56.1746 97.7271C56.2834 97.6166 56.3969 97.5047 56.5153 97.3916C56.5444 97.3638 56.572 97.3376 56.5977 97.3134C56.6234 97.2892 56.6457 97.2684 56.6416 97.2723C56.6414 97.2724 56.6302 97.2828 56.6165 97.2958C56.6157 97.2965 56.5581 97.3505 56.4875 97.4181C56.4723 97.4327 56.3421 97.5571 56.1822 97.7186C56.0748 97.8281 55.7424 98.18 55.5213 98.4259C54.7813 99.3273 53.5328 117.678 68.7709 126.096C73.1469 125.306 77.6356 123.063 78.1014 122.722C78.278 122.586 78.5428 122.375 78.6324 122.301C78.7751 122.183 78.8852 122.088 78.9044 122.072C78.9877 122 79.159 121.849 79.033 121.96C78.5121 122.418 77.86 122.933 77.0725 123.429L68.1852 109.33L59.2978 95.2306C58.3134 95.8511 57.5538 96.4596 57.0183 96.9306C56.8913 97.0423 57.0621 96.8917 57.1452 96.8201C57.1644 96.8036 57.2745 96.7085 57.4172 96.5908C57.5068 96.5174 57.7716 96.3064 57.9482 96.1705C58.414 95.8295 62.9026 93.5859 67.2786 92.796C82.5168 101.214 81.2683 119.565 80.5282 120.466C80.3071 120.712 79.9748 121.064 79.8674 121.173C79.7074 121.335 79.5773 121.459 79.5621 121.474C79.4916 121.541 79.434 121.595 79.4333 121.596C79.4254 121.603 79.4191 121.609 79.4158 121.612C79.4123 121.616 79.4096 121.618 79.4086 121.619C79.405 121.623 79.4282 121.601 79.4551 121.576C79.4821 121.55 79.5113 121.522 79.5424 121.493C79.6688 121.372 79.7962 121.247 79.9247 121.116C80.1794 120.857 80.4251 120.592 80.663 120.322L68.1444 109.319ZM68.1852 109.33L77.0758 123.427C76.986 123.484 76.8969 123.539 76.8089 123.592L68.2191 109.309L59.6293 95.0265C59.5175 95.0937 59.4059 95.1624 59.2945 95.2327L68.1852 109.33ZM68.2191 109.309L76.8121 123.59C76.3849 123.847 75.9184 124.098 75.4121 124.332L68.4279 109.199L61.4437 94.0662C60.7736 94.3755 60.1678 94.7025 59.6261 95.0284L68.2191 109.309ZM68.4279 109.199L53.0554 115.638L56.535 123.945L71.9076 117.506L87.2801 111.067L83.8004 102.76L68.4279 109.199ZM68.4279 109.199L61.4212 94.0766C62.7882 93.4432 64.2234 93.0161 65.6797 92.7947L68.185 109.272L70.6903 125.749C72.314 125.502 73.9128 125.026 75.4347 124.321L68.4279 109.199ZM68.1659 109.275L66.0107 92.7479C67.4418 92.5613 68.8872 92.5727 70.3063 92.7785L67.9154 109.273L65.5245 125.767C67.111 125.997 68.7248 126.01 70.3211 125.801L68.1659 109.275ZM184.629 209.91L171.939 220.715L183.456 234.242L196.146 223.437L208.836 212.633L197.319 199.106L184.629 209.91ZM210.098 90.7691H193.431V108.923H210.098H226.764V90.7691H210.098ZM25.9024 90.7691V74.1024C31.1143 74.1024 33.935 78.2957 33.935 81.6922H17.2683H0.601625C0.601625 95.1147 11.1536 107.436 25.9024 107.436V90.7691ZM17.2683 81.6922V65.0255H0V81.6922V98.3589H17.2683V81.6922ZM17.3716 107.412L11.6356 123.06C16.1084 124.7 20.9188 125.59 25.9024 125.59V108.923V92.2563C24.9084 92.2563 23.9775 92.0819 23.1077 91.7631L17.3716 107.412ZM25.9024 108.923H42.5691V99.8161H25.9024H9.23577V108.923H25.9024ZM25.9024 99.8161H42.5691V90.7691H25.9024H9.23577V99.8161H25.9024ZM17.2683 81.6922H33.935C33.935 85.0887 31.1143 89.2819 25.9024 89.2819V72.6153V55.9486C11.1536 55.9486 0.601625 68.2697 0.601625 81.6922H17.2683ZM25.9024 72.6153H42.5691V54.4614H25.9024H9.23577V72.6153H25.9024ZM25.9024 72.6153V89.2819C20.6906 89.2819 17.8699 85.0887 17.8699 81.6922H34.5366H51.2032C51.2032 68.2697 40.6512 55.9486 25.9024 55.9486V72.6153ZM34.5366 81.6922V98.3589H51.8049V81.6922V65.0255H34.5366V81.6922ZM209.994 90.7685L193.328 90.5846L193.228 99.6609L209.894 99.8448L226.559 100.029L226.66 90.9524L209.994 90.7685ZM184.195 81.6922H167.528C167.528 93.1661 172.259 102.504 176.837 109.045L190.491 99.4878L204.145 89.9307C201.741 86.4957 200.862 83.8078 200.862 81.6922H184.195ZM34.5366 81.6922H17.8699C17.8699 80.0571 18.4568 78.3867 19.5646 77.0386L32.4412 87.6203L45.3178 98.2019C49.0479 93.6628 51.2032 87.8752 51.2032 81.6922H34.5366ZM32.4412 87.6203L21.2361 99.9581L27.7697 105.892L38.9749 93.554L50.18 81.2161L43.6464 75.2824L32.4412 87.6203ZM38.9749 93.554L27.7697 105.892L34.3034 111.826L45.5085 99.4878L56.7136 87.1499L50.18 81.2161L38.9749 93.554ZM45.5085 99.4878L58.3846 110.07C61.5807 106.181 64.1177 101.721 65.848 96.8826L50.1545 91.2707L34.4611 85.6588C34.021 86.8893 33.3888 87.9852 32.6324 88.9055L45.5085 99.4878ZM50.1545 91.2707L61.5811 79.1376C58.8991 76.6118 55.849 73.9689 52.5822 71.8491L43.5099 85.8302L34.4376 99.8113C35.2472 100.337 36.6162 101.415 38.728 103.404L50.1545 91.2707ZM43.5099 85.8302L29.1375 77.3915L24.6025 85.1153L38.9749 93.554L53.3473 101.993L57.8823 94.2689L43.5099 85.8302ZM38.9749 93.554L24.6025 85.1153L20.208 92.5998L34.5804 101.038L48.9528 109.477L53.3473 101.993L38.9749 93.554ZM34.5804 101.038L20.208 92.5998L20.0675 92.8391L34.4399 101.278L48.8123 109.716L48.9528 109.477L34.5804 101.038ZM34.4399 101.278L25.368 115.259C25.344 115.244 25.3245 115.231 25.3097 115.221L34.6249 101.4L43.9402 87.5798C43.8006 87.4857 43.6577 87.3911 43.5118 87.2964L34.4399 101.278ZM34.6249 101.4L25.3092 115.22C25.1972 115.145 25.3169 115.216 25.7331 115.572C26.138 115.919 26.7025 116.431 27.4803 117.179L39.0341 105.167L50.588 93.1552C48.5856 91.2292 46.3354 89.1943 43.9406 87.5801L34.6249 101.4ZM32.4412 87.6203L19.5648 77.0385C20.8785 75.4398 23.1019 74.136 25.8037 74.1031L26.0065 90.7685L26.2093 107.434C34.0428 107.339 40.8521 103.636 45.3177 98.202L32.4412 87.6203ZM26.0065 90.7685L9.34085 90.9519L9.44072 100.028L26.1064 99.8448L42.772 99.6615L42.6722 90.5851L26.0065 90.7685ZM26.1064 99.8448L9.44072 100.028L9.54059 109.104L26.2062 108.921L42.8719 108.737L42.772 99.6615L26.1064 99.8448ZM26.2062 108.921L26.4075 125.586C31.361 125.526 36.1311 124.587 40.5564 122.914L34.664 107.324L28.7716 91.7334C27.9048 92.061 26.9823 92.2433 26.005 92.2551L26.2062 108.921ZM39.0341 105.167L47.8095 119.337C51.8431 116.838 55.4083 113.692 58.386 110.068L45.5085 99.4878L32.6311 88.9072C31.9275 89.7635 31.1184 90.4655 30.2588 90.9978L39.0341 105.167ZM26.0065 90.7685L25.8328 74.1028C25.8379 74.1027 25.8636 74.1024 25.9024 74.1024V90.7691V107.436C26.0106 107.436 26.1056 107.435 26.1802 107.434L26.0065 90.7685ZM25.9024 108.923V125.59C26.1199 125.59 26.3206 125.587 26.4046 125.586L26.205 108.921L26.0055 92.2551C25.9793 92.2554 25.9603 92.2556 25.9424 92.2558C25.9252 92.256 25.9131 92.2561 25.9042 92.2562C25.8857 92.2564 25.8878 92.2563 25.9024 92.2563V108.923ZM26.205 108.921L26.3638 125.586L26.365 125.586L26.2062 108.921L26.0475 92.2546L26.0463 92.2546L26.205 108.921ZM34.664 107.324L51.3015 106.339C51.2307 105.142 51.2056 104.286 51.2033 103.697C51.201 103.087 51.224 102.904 51.2134 103.013L34.6249 101.4L18.0365 99.7876C17.7912 102.311 17.8419 105.191 18.0265 108.309L34.664 107.324ZM34.6249 101.4L51.2134 103.013C51.2105 103.042 51.2054 103.091 51.197 103.157L34.664 101.05L18.1311 98.9433C18.0945 99.2304 18.0633 99.5122 18.0365 99.7874L34.6249 101.4ZM34.664 101.05L36.9886 84.5465L36.9049 84.5347L34.5804 101.038L32.2558 117.542L32.3395 117.554L34.664 101.05ZM34.5804 101.038L36.9051 84.5347L28.4311 83.3411L26.1064 99.8448L23.7817 116.349L32.2557 117.542L34.5804 101.038ZM26.1064 99.8448L28.4309 83.3411L28.2269 83.3123L25.9024 99.8161L23.5779 116.32L23.7819 116.349L26.1064 99.8448ZM25.9024 99.8161L28.2271 83.3124L19.8733 82.1357L17.5486 98.6394L15.2239 115.143L23.5778 116.32L25.9024 99.8161ZM17.5486 98.6394L1.01562 96.5328C0.494198 100.625 0.549725 104.736 0.725905 108.247L17.3716 107.412L34.0173 106.576C33.8797 103.832 33.9245 101.979 34.0816 100.746L17.5486 98.6394ZM215.081 144.302L248.241 147.696L248.241 147.696L215.081 144.302ZM197.912 142.361L231.072 145.755L231.072 145.754L197.912 142.361ZM35.9772 121.73L2.81697 125.122L2.85643 125.508L2.90485 125.893L35.9772 121.73ZM88.2418 109.52L117.688 125.141L118.703 123.229L119.461 121.201L88.2418 109.52ZM127.157 70.6875L95.1354 79.9473L96.0938 83.2614L97.7106 86.3091L127.157 70.6875ZM162.84 100.676L192.288 85.0578L192.286 85.0544L162.84 100.676ZM160.612 125.813L146.608 156.062L146.613 156.065L160.612 125.813ZM168.085 109.273L172.845 142.264L175.707 141.851L178.456 140.952L168.085 109.273ZM48.9291 115.295L73.0396 92.2776L73.0357 92.2736L48.9291 115.295ZM75.3871 125.813L89.386 156.065L89.3914 156.062L75.3871 125.813ZM184.629 209.91L161.788 185.633L161.783 185.638L184.629 209.91ZM209.794 108.921L209.391 142.251L209.396 142.251L209.794 108.921ZM18.808 123.671L52.0628 121.384L52.0247 120.83L51.9682 120.278L18.808 123.671ZM147.758 109.52L118.312 125.141L118.313 125.143L147.758 109.52ZM142.239 61.845L171.685 46.223L169.742 42.5601L166.96 39.4849L142.239 61.845ZM147.956 109.892L177.401 94.269L177.401 94.2689L147.956 109.892ZM152.996 118.772L125.273 137.28L125.278 137.287L125.282 137.294L152.996 118.772ZM167.815 109.272L142.454 130.904L150.527 140.368L162.827 142.23L167.815 109.272ZM167.128 108.34L139.409 126.853L139.413 126.859L139.417 126.866L167.128 108.34ZM167.834 109.275L163.531 142.329L163.534 142.329L167.834 109.275ZM170.45 127.256L175.24 160.243L179.024 159.694L182.585 158.302L170.45 127.256ZM49.1973 115.576L73.3083 92.5591L73.3077 92.5585L49.1973 115.576ZM56.3906 122.682L77.9861 97.2905L77.9838 97.2885L56.3906 122.682ZM65.5501 127.256L60.7573 160.243L60.7601 160.243L65.5501 127.256ZM68.1659 109.275L49.8226 137.107L60.1802 143.933L72.4806 142.328L68.1659 109.275ZM67.2519 108.57L45.6558 133.961L45.6585 133.963L67.2519 108.57ZM61.1158 102.434L37.0082 125.454L37.0101 125.456L61.1158 102.434ZM73.1605 100.676L46.0209 81.3229L44.7439 83.1135L43.7134 85.0564L73.1605 100.676ZM68.8717 108.34L96.588 126.858L96.5931 126.85L68.8717 108.34ZM68.185 109.272L73.1955 142.227L85.484 140.358L93.5489 130.9L68.185 109.272ZM83.004 118.772L110.721 137.289L110.722 137.288L83.004 118.772ZM88.0385 109.903L58.5923 94.2812L58.5919 94.282L88.0385 109.903ZM192.729 187.273L159.891 181.551L159.89 181.551L192.729 187.273ZM188.969 202.364L157.729 190.739L157.726 190.746L188.969 202.364ZM196.146 223.437L173.305 199.16L173.301 199.163L196.146 223.437ZM205.052 208.977L236.292 220.602L236.293 220.6L205.052 208.977ZM209.715 190.543L242.554 196.265L242.554 196.264L209.715 190.543ZM131.106 236L131.107 202.667H131.106V236ZM169.71 234.646L174.152 267.682L174.157 267.681L169.71 234.646ZM167.519 216.638L163.073 183.603L163.072 183.603L167.519 216.638ZM218.732 81.6922L186.942 71.6662L185.398 76.5604V81.6922H218.732ZM236 81.6922H269.333V77.1438L268.115 72.7617L236 81.6922ZM17.3716 107.412L50.6631 105.741L49.5574 83.7073L28.8437 76.1146L17.3716 107.412ZM209.994 90.7685L209.588 124.099L209.616 124.1L209.644 124.1L209.994 90.7685ZM190.491 99.4878L157.724 105.605L159.296 114.029L164.737 120.65L190.491 99.4878ZM50.1545 91.2707L18.7676 80.0469L11.4238 100.584L27.3014 115.537L50.1545 91.2707ZM39.0341 105.167L62.1418 81.1433L43.4879 63.2007L21.4835 76.8284L39.0341 105.167ZM34.664 107.324L22.8793 76.143L-0.0604266 84.8131L1.38892 109.294L34.664 107.324ZM34.7209 108.221L67.9788 105.98L67.9788 105.98L34.7209 108.221ZM17.4958 109.504L50.7537 107.263L50.7537 107.263L17.4958 109.504ZM18.7941 123.535L51.9543 120.142L51.9543 120.142L18.7941 123.535ZM215.081 144.302L248.241 147.696C250.456 126.055 235.543 103.942 211.166 101.185L207.42 134.307L203.674 167.429C188.779 165.745 180.726 152.583 181.921 140.909L215.081 144.302ZM207.42 134.307L211.166 101.185C186.465 98.3912 166.989 117.1 164.752 138.969L197.912 142.361L231.072 145.754C229.855 157.652 218.893 169.15 203.674 167.429L207.42 134.307ZM30 150.5L26.7003 117.33C31.66 116.837 35.4979 117.749 37.6741 118.463C39.9967 119.224 41.8379 120.218 43.2737 121.193C44.7086 122.168 46.3319 123.528 47.919 125.443C49.4155 127.25 51.6863 130.53 53.0324 135.368L20.9188 144.302L-11.1948 153.237C-7.82596 165.345 0.513938 172.74 5.80893 176.337C11.0986 179.931 20.9464 184.899 33.2997 183.67L30 150.5ZM85 97L68.139 125.754C63.4898 123.028 59.9319 118.866 57.8516 114.244C55.9784 110.081 55.7236 106.531 55.7251 104.663C55.7266 102.74 56.0015 101.326 56.1839 100.542C56.2895 100.089 56.4096 99.6565 56.5406 99.2357C56.6072 99.0214 56.6797 98.8004 56.7588 98.5707C56.7984 98.4555 56.8401 98.3372 56.8838 98.2156C56.9057 98.1547 56.9282 98.0929 56.9512 98.0301C56.9627 97.9987 56.9744 97.967 56.9862 97.9351C56.9921 97.9192 56.9981 97.9032 57.0041 97.8871C57.0071 97.879 57.0116 97.8669 57.0131 97.8629C57.0176 97.8507 57.0222 97.8386 88.2418 109.52C119.461 121.201 119.466 121.188 119.471 121.176C119.472 121.172 119.477 121.16 119.48 121.151C119.486 121.135 119.492 121.118 119.499 121.101C119.511 121.067 119.524 121.032 119.537 120.997C119.563 120.925 119.59 120.851 119.618 120.774C119.674 120.619 119.733 120.451 119.795 120.271C119.918 119.912 120.055 119.5 120.198 119.04C120.481 118.128 120.805 116.986 121.115 115.656C121.705 113.121 122.388 109.292 122.392 104.715C122.399 95.6033 119.239 78.4357 101.861 68.2455L85 97ZM130.5 58.5L115.593 28.6858C96.0986 38.4329 93.4907 57.5332 93.2622 64.6488C93.1262 68.8855 93.5769 72.4724 93.9791 74.8243C94.1911 76.0637 94.4193 77.1292 94.6195 77.9739C94.7205 78.3999 94.8166 78.7796 94.9035 79.1079C94.947 79.2724 94.9884 79.4249 95.0272 79.5647C95.0466 79.6347 95.0653 79.7016 95.0834 79.7653C95.0924 79.7972 95.1013 79.8283 95.1099 79.8586C95.1143 79.8738 95.1186 79.8888 95.1228 79.9035C95.125 79.9109 95.1281 79.9219 95.1292 79.9255C95.1323 79.9364 95.1354 79.9473 127.157 70.6875C159.178 61.4276 159.181 61.4384 159.184 61.4491C159.185 61.4527 159.188 61.4634 159.191 61.4705C159.195 61.4847 159.199 61.4989 159.203 61.5129C159.211 61.541 159.219 61.5688 159.226 61.5962C159.242 61.6511 159.257 61.7048 159.272 61.7573C159.301 61.8622 159.328 61.9627 159.353 62.0591C159.404 62.2514 159.449 62.4308 159.489 62.5997C159.568 62.9303 159.635 63.2546 159.692 63.5858C159.783 64.1213 159.945 65.2238 159.895 66.7886C159.849 68.199 159.592 71.5819 157.69 75.6857C155.527 80.3528 151.499 85.2684 145.407 88.3142L130.5 58.5ZM175.5 116L207.947 108.365C205.189 96.6444 197.684 84.0045 183.05 78.3535C176.777 75.9308 171.041 75.6026 166.902 75.859C164.807 75.9887 162.979 76.2752 161.48 76.5895C160.723 76.7482 160.03 76.9182 159.406 77.0878C159.094 77.1727 158.796 77.2581 158.515 77.3427C158.374 77.385 158.236 77.4272 158.103 77.469C158.036 77.49 157.971 77.5108 157.906 77.5316C157.873 77.542 157.841 77.5524 157.809 77.5628C157.793 77.5679 157.77 77.5757 157.762 77.5783C157.738 77.586 157.714 77.5938 168.085 109.273C178.456 140.952 178.432 140.959 178.408 140.967C178.401 140.97 178.377 140.977 178.361 140.983C178.329 140.993 178.298 141.003 178.266 141.013C178.202 141.034 178.139 141.054 178.075 141.074C177.946 141.114 177.817 141.154 177.687 141.193C177.426 141.271 177.159 141.348 176.886 141.422C176.342 141.57 175.768 141.71 175.163 141.837C173.968 142.087 172.579 142.302 171.023 142.398C167.962 142.588 163.704 142.348 159.035 140.544C154.084 138.632 149.961 135.449 147.043 131.643C144.313 128.082 143.359 124.935 143.053 123.635L175.5 116ZM192.5 89L211.875 116.124C210.098 117.394 207.276 118.909 203.235 119.528C199.096 120.161 191.775 120.011 184.568 115.015L203.559 87.6203L222.549 60.2254C202.149 46.0838 181.04 56.2223 173.125 61.8756L192.5 89ZM130.524 217.846V184.513H105.476V217.846V251.179H130.524V217.846ZM105.476 217.846V184.513C93.609 184.513 81.8323 189.174 73.4557 198.798C65.6565 207.758 62.9179 218.568 63.1733 227.841C63.6668 245.761 77.3565 269.333 105.476 269.333V236V202.667C112.196 202.667 119.027 205.654 123.795 211.02C128.037 215.793 129.685 221.286 129.815 226.005C129.945 230.739 128.578 237.011 123.742 242.567C118.328 248.787 111.105 251.179 105.476 251.179V217.846ZM105.476 236V269.333H130.524V236V202.667H105.476V236ZM38.0881 142.361H71.4214C71.4214 138.075 70.5773 130.594 70.1556 126.859C69.8784 124.403 69.6031 122.09 69.3981 120.399C69.2953 119.551 69.2093 118.852 69.1486 118.362C69.1182 118.116 69.094 117.922 69.0772 117.788C69.0688 117.72 69.0622 117.667 69.0576 117.63C69.0552 117.612 69.0534 117.597 69.0521 117.587C69.0514 117.581 69.0509 117.577 69.0504 117.574C69.0502 117.572 69.0501 117.571 69.0499 117.57C69.0499 117.569 69.0498 117.568 69.0497 117.568C69.0497 117.568 69.0496 117.567 35.9772 121.73C2.90485 125.893 2.9048 125.892 2.90476 125.892C2.90476 125.892 2.90472 125.892 2.90472 125.892C2.9047 125.892 2.90472 125.892 2.90477 125.892C2.90487 125.893 2.90509 125.895 2.90544 125.897C2.90614 125.903 2.90733 125.912 2.909 125.926C2.91235 125.952 2.9176 125.994 2.92464 126.051C2.93873 126.164 2.95995 126.334 2.98727 126.555C3.04196 126.996 3.12089 127.638 3.21595 128.422C3.4068 129.996 3.65919 132.117 3.90967 134.336C4.16301 136.581 4.40037 138.802 4.56988 140.614C4.78966 142.963 4.75476 143.202 4.75476 142.361H38.0881ZM18.808 123.671C-14.4467 125.959 -14.4467 125.959 -14.4466 125.96C-14.4466 125.96 -14.4465 125.961 -14.4465 125.962C-14.4464 125.963 -14.4463 125.965 -14.4461 125.967C-14.4459 125.971 -14.4455 125.976 -14.4451 125.982C-14.4443 125.993 -14.4432 126.01 -14.4418 126.03C-14.439 126.07 -14.4351 126.126 -14.4301 126.198C-14.42 126.341 -14.4056 126.545 -14.3872 126.803C-14.3503 127.317 -14.2972 128.048 -14.2308 128.931C-14.0985 130.689 -13.9102 133.095 -13.689 135.638C-13.4714 138.139 -13.2052 140.967 -12.9124 143.505C-12.7415 144.987 -12.2565 149.421 -11.1948 153.237L20.9188 144.302L53.0324 135.368C53.4869 137.001 53.6076 138.039 53.5163 137.44C53.4802 137.203 53.4108 136.695 53.3152 135.866C53.126 134.226 52.922 132.103 52.7268 129.859C52.5351 127.657 52.368 125.524 52.248 123.93C52.1884 123.137 52.1412 122.488 52.1093 122.042C52.0933 121.819 52.0812 121.648 52.0734 121.535C52.0694 121.479 52.0666 121.438 52.0648 121.412C52.0639 121.4 52.0633 121.391 52.0629 121.386C52.0628 121.383 52.0627 121.382 52.0627 121.382C52.0626 121.382 52.0627 121.382 52.0627 121.382C52.0627 121.382 52.0627 121.383 52.0627 121.383C52.0628 121.383 52.0628 121.384 18.808 123.671ZM127.157 70.6875L97.7106 86.3091L118.312 125.141L147.758 109.52L177.204 93.898L156.603 55.0658L127.157 70.6875ZM162.84 100.676L192.286 85.0544L171.685 46.223L142.239 61.845L112.793 77.4669L133.394 116.298L162.84 100.676ZM147.758 109.52L118.313 125.143L118.51 125.516L147.956 109.892L177.401 94.2689L177.203 93.8963L147.758 109.52ZM147.956 109.892L118.51 125.516C120.035 128.389 122.535 133.179 125.273 137.28L152.996 118.772L180.719 100.264C180.252 99.5649 179.449 98.13 177.401 94.269L147.956 109.892ZM152.996 118.772L125.282 137.294C128.261 141.75 134.793 150.592 146.608 156.062L160.612 125.813L174.617 95.5647C179.285 97.7259 181.153 100.913 180.71 100.25L152.996 118.772ZM167.815 109.272L193.177 87.6405C194.025 88.6347 194.572 89.4144 194.839 89.8138L167.128 108.34L139.417 126.866C140.328 128.227 141.331 129.586 142.454 130.904L167.815 109.272ZM167.128 108.34L194.848 89.8263C195.096 90.198 195.055 90.1826 194.522 89.2209C194.009 88.2943 193.338 87.0384 192.288 85.0578L162.84 100.676L133.392 116.295C135.08 119.477 137.216 123.569 139.409 126.853L167.128 108.34ZM160.612 125.813L146.613 156.065C155.528 160.19 165.459 161.664 175.24 160.243L170.45 127.256L165.659 94.2686C168.756 93.8189 171.874 94.2954 174.611 95.562L160.612 125.813ZM168.085 109.273L163.325 76.281C166.223 75.8628 169.188 75.8365 172.135 76.2199L167.834 109.275L163.534 142.329C166.646 142.734 169.779 142.707 172.845 142.264L168.085 109.273ZM167.834 109.275L172.138 76.2203C172.341 76.2468 172.564 76.2778 172.804 76.314L167.815 109.272L162.827 142.23C163.079 142.268 163.315 142.301 163.531 142.329L167.834 109.275ZM48.9291 115.295L24.8187 138.312L25.0868 138.593L49.1973 115.576L73.3077 92.5585L73.0396 92.2776L48.9291 115.295ZM49.1973 115.576L25.0862 138.593C27.2958 140.907 31.0167 144.861 34.7975 148.076L56.3906 122.682L77.9838 97.2885C77.4156 96.8054 76.3165 95.7104 73.3083 92.5591L49.1973 115.576ZM56.3906 122.682L34.7952 148.074C38.9204 151.583 47.7215 158.349 60.7573 160.243L65.5501 127.256L70.3429 94.269C75.6487 95.0399 78.4886 97.7179 77.9861 97.2905L56.3906 122.682ZM68.1659 109.275L86.5091 81.4424C87.6619 82.2021 88.4495 82.8394 88.8453 83.1759L67.2519 108.57L45.6585 133.963C46.9369 135.05 48.3196 136.116 49.8226 137.107L68.1659 109.275ZM67.2519 108.57L88.848 83.1782C89.2235 83.4976 89.208 83.5226 88.4496 82.7578C87.7206 82.0225 86.7537 81.0156 85.2215 79.4113L61.1158 102.434L37.0101 125.456C39.4443 128.005 42.6257 131.384 45.6558 133.961L67.2519 108.57ZM73.1605 100.676L43.7134 85.0564C42.6633 87.036 41.9926 88.2923 41.479 89.2189C40.946 90.1806 40.9039 90.1982 41.1503 89.8293L68.8717 108.34L96.5931 126.85C98.7835 123.57 100.917 119.483 102.608 116.296L73.1605 100.676ZM68.8717 108.34L41.1554 89.8215C41.4226 89.4216 41.9713 88.6402 42.821 87.6437L68.185 109.272L93.5489 130.9C94.674 129.581 95.6778 128.22 96.588 126.858L68.8717 108.34ZM75.3871 125.813L89.3914 156.062C101.204 150.593 107.738 141.755 110.721 137.289L83.004 118.772L55.2868 100.255C54.8502 100.909 56.7171 97.7246 61.3829 95.5645L75.3871 125.813ZM83.004 118.772L110.722 137.288C113.463 133.185 115.964 128.391 117.485 125.524L88.0385 109.903L58.5919 94.282C56.5447 98.1412 55.7468 99.5666 55.2864 100.256L83.004 118.772ZM88.0385 109.903L117.485 125.524L117.688 125.141L88.2418 109.52L58.7956 93.898L58.5923 94.2812L88.0385 109.903ZM65.5501 127.256L60.7601 160.243C70.5412 161.664 80.4717 160.19 89.386 156.065L75.3871 125.813L61.3883 95.562C64.1251 94.2955 67.2434 93.8189 70.3401 94.2685L65.5501 127.256ZM68.185 109.272L63.1744 76.3174C63.4274 76.2789 63.6549 76.2474 63.8512 76.2217L68.1659 109.275L72.4806 142.328C72.6896 142.3 72.9298 142.267 73.1955 142.227L68.185 109.272ZM197.912 142.361L164.752 138.968C162.86 157.451 161.779 170.713 159.891 181.551L192.729 187.273L225.568 192.994C227.99 179.094 229.418 161.918 231.072 145.755L197.912 142.361ZM192.729 187.273L159.89 181.551C158.991 186.714 158.187 189.507 157.729 190.739L188.969 202.364L220.21 213.99C222.682 207.345 224.333 200.081 225.568 192.994L192.729 187.273ZM188.969 202.364L157.726 190.746C157.534 191.263 157.603 190.948 158.1 190.113C158.578 189.309 159.714 187.585 161.788 185.633L184.629 209.91L207.47 234.188C214.006 228.039 217.805 220.455 220.212 213.983L188.969 202.364ZM196.146 223.437L218.987 247.715C228.297 238.956 233.353 228.501 236.292 220.602L205.052 208.977L173.811 197.352C173.321 198.669 172.937 199.411 172.74 199.742C172.552 200.058 172.689 199.74 173.305 199.16L196.146 223.437ZM205.052 208.977L236.293 220.6C239.33 212.437 241.221 203.912 242.554 196.265L209.715 190.543L176.877 184.821C175.882 190.532 174.837 194.594 173.81 197.355L205.052 208.977ZM209.715 190.543L242.554 196.264C245.127 181.494 246.651 163.232 248.241 147.696L215.081 144.302L181.921 140.909C180.099 158.713 178.917 173.109 176.877 184.821L209.715 190.543ZM130.524 236V269.333H131.106V236V202.667H130.524V236ZM131.106 236L131.106 269.333C146.071 269.333 161.359 269.402 174.152 267.682L169.71 234.646L165.269 201.61C157.911 202.599 147.79 202.667 131.107 202.667L131.106 236ZM169.71 234.646L174.157 267.681C188.399 265.764 204.794 261.072 218.991 247.712L196.146 223.437L173.301 199.163C172.928 199.514 172.525 199.809 171.657 200.159C170.604 200.584 168.699 201.148 165.264 201.61L169.71 234.646ZM184.629 209.91L161.783 185.638C162.337 185.116 163.003 184.587 163.745 184.115C164.477 183.65 165.086 183.366 165.458 183.215C165.806 183.075 165.854 183.089 165.465 183.183C165.067 183.28 164.309 183.436 163.073 183.603L167.519 216.638L171.964 249.674C184.396 248.001 196.899 244.138 207.475 234.183L184.629 209.91ZM167.519 216.638L163.072 183.603C156.965 184.425 148.025 184.513 130.524 184.513V217.846V251.179C146.13 251.179 160.375 251.233 171.965 249.674L167.519 216.638ZM218.732 81.6922H185.398C185.398 69.8858 194.906 57.4358 210.098 57.4358V90.7691V124.102C234.826 124.102 252.065 103.525 252.065 81.6922H218.732ZM210.098 108.923V142.256C244.363 142.256 269.333 113.55 269.333 81.6922H236H202.667C202.667 80.5483 203.131 79.1611 204.261 77.9733C205.419 76.7564 207.491 75.5896 210.098 75.5896V108.923ZM0 81.6922H-33.3333C-33.3333 107.161 -17.7296 130.047 5.89956 138.709L17.3716 107.412L28.8437 76.1146C32.2441 77.361 33.3333 80.0165 33.3333 81.6922H0ZM25.9024 54.4614V21.1281C-8.3638 21.1281 -33.3333 49.8341 -33.3333 81.6922H0H33.3333C33.3333 82.8352 32.8689 84.2226 31.7386 85.4109C30.5806 86.6283 28.508 87.7948 25.9024 87.7948V54.4614ZM51.8049 81.6922H85.1382C85.1382 49.8341 60.1687 21.1281 25.9024 21.1281V54.4614V87.7948C23.2969 87.7948 21.2243 86.6283 20.0663 85.4109C18.936 84.2226 18.4715 82.8352 18.4715 81.6922H51.8049ZM210.098 90.7691V57.4358C210.21 57.4358 210.297 57.4365 210.344 57.437L209.994 90.7685L209.644 124.1C209.76 124.101 209.916 124.102 210.098 124.102V90.7691ZM209.794 108.921L209.396 142.251C209.461 142.252 209.763 142.256 210.098 142.256V108.923V75.5896C210.178 75.5896 210.232 75.5901 210.245 75.5902C210.252 75.5903 210.253 75.5903 210.244 75.5902C210.232 75.5901 210.219 75.5899 210.191 75.5896L209.794 108.921ZM209.994 90.7685L210.4 57.4377C211.943 57.4564 214.276 57.6378 217.032 58.3825C219.847 59.1433 222.049 60.2068 223.513 61.0441C224.682 61.7131 225.425 62.2775 224.932 61.9236C224.775 61.8105 223.611 60.9615 222.549 60.2254L203.559 87.6203L184.568 115.015C185.036 115.339 185.12 115.41 186.055 116.081C186.655 116.511 188.334 117.724 190.409 118.911C192.779 120.267 195.856 121.718 199.64 122.741C203.365 123.747 206.762 124.065 209.588 124.099L209.994 90.7685ZM190.491 99.4878L164.737 120.65C175.167 133.342 191.098 142.031 209.391 142.251L209.794 108.921L210.196 75.5896C213.053 75.6241 215.166 77.0121 216.245 78.3253L190.491 99.4878ZM50.1545 91.2707L81.5414 102.494C83.8803 95.954 85.1382 88.9301 85.1382 81.6922H51.8049H18.4715C18.4715 81.189 18.5612 80.6243 18.7676 80.0469L50.1545 91.2707ZM61.1158 102.434L85.2235 79.4133C81.4771 75.49 77.0995 70.8581 73.0077 67.0045L50.1545 91.2707L27.3014 115.537C29.7848 117.876 32.6872 120.929 37.0082 125.454L61.1158 102.434ZM39.0341 105.167L15.9265 129.191C17.7304 130.926 20.3748 133.659 24.8226 138.316L48.9291 115.295L73.0357 92.2736C68.8414 87.8815 65.1655 84.0517 62.1418 81.1433L39.0341 105.167ZM34.664 107.324L46.4487 138.504C50.0232 137.153 53.413 135.47 56.5848 133.506L39.0341 105.167L21.4835 76.8284C21.8964 76.5727 22.3624 76.3384 22.8793 76.143L34.664 107.324ZM35.9772 121.73L69.1375 118.337C68.5471 112.567 68.1714 108.839 67.9788 105.98L34.7209 108.221L1.46296 110.462C1.75066 114.732 2.26925 119.769 2.81697 125.122L35.9772 121.73ZM34.7209 108.221L67.9788 105.98C67.9637 105.756 67.9506 105.548 67.9391 105.354L34.664 107.324L1.38892 109.294C1.41163 109.677 1.43633 110.067 1.463 110.462L34.7209 108.221ZM17.3716 107.412L-15.9198 109.082C-15.8739 109.997 -15.8199 110.888 -15.7621 111.745L17.4958 109.504L50.7537 107.263C50.7166 106.713 50.6865 106.208 50.6631 105.741L17.3716 107.412ZM17.4958 109.504L-15.7621 111.745C-15.4498 116.381 -14.8978 121.732 -14.366 126.928L18.7941 123.535L51.9543 120.142C51.3833 114.562 50.9715 110.495 50.7537 107.263L17.4958 109.504ZM18.7941 123.535L-14.366 126.928L-14.3521 127.064L18.808 123.671L51.9682 120.278L51.9543 120.142L18.7941 123.535ZM30 150.5L33.2997 183.67C44.575 182.548 53.1469 176.747 58.1782 172.002C63.0685 167.389 71.4214 157.27 71.4214 142.361H38.0881H4.75476C4.75476 131.314 10.7472 125.096 12.4352 123.504C13.7892 122.227 15.383 121.057 17.288 120.065C19.0214 119.163 22.2232 117.776 26.7003 117.33L30 150.5ZM192.5 89L173.125 61.8756C164.363 68.1345 160.59 76.4499 158.964 81.5274C157.306 86.7067 156.944 91.3559 156.863 94.2476C156.776 97.3463 156.98 100.002 157.172 101.78C157.273 102.712 157.383 103.514 157.479 104.148C157.527 104.467 157.574 104.751 157.615 104.993C157.636 105.115 157.655 105.227 157.673 105.329C157.683 105.38 157.691 105.428 157.7 105.474C157.704 105.497 157.708 105.52 157.712 105.541C157.714 105.552 157.716 105.563 157.718 105.573C157.719 105.579 157.72 105.587 157.721 105.589C157.722 105.597 157.724 105.605 190.491 99.4878C223.258 93.371 223.26 93.3786 223.261 93.3863C223.262 93.3888 223.263 93.3964 223.264 93.4014C223.266 93.4115 223.268 93.4215 223.27 93.4314C223.273 93.4512 223.277 93.4707 223.28 93.4898C223.287 93.5281 223.294 93.5651 223.3 93.6009C223.313 93.6724 223.325 93.7392 223.335 93.8016C223.357 93.9261 223.374 94.0352 223.389 94.1312C223.417 94.3186 223.438 94.477 223.453 94.6211C223.475 94.823 223.525 95.326 223.503 96.1152C223.487 96.6974 223.409 98.881 222.455 101.859C221.534 104.736 218.887 111.116 211.875 116.124L192.5 89ZM236 81.6922C268.115 72.7617 268.111 72.7485 268.107 72.7353C268.106 72.7309 268.102 72.7176 268.1 72.7086C268.095 72.6908 268.09 72.6727 268.085 72.6545C268.074 72.6181 268.064 72.581 268.053 72.5433C268.032 72.4679 268.009 72.3898 267.986 72.3091C267.938 72.1477 267.887 71.9757 267.831 71.7937C267.719 71.4302 267.587 71.0232 267.435 70.5787C267.133 69.6963 266.735 68.6293 266.223 67.4343C265.238 65.1371 263.628 61.8914 261.111 58.4431C256.028 51.4797 245.028 41.1667 227.5 41.1667V74.5V107.833C216.472 107.833 209.722 101.116 207.264 97.7491C206.059 96.0988 205.356 94.6512 204.949 93.7025C204.726 93.1818 204.535 92.6767 204.368 92.1876C204.283 91.9398 204.201 91.6873 204.121 91.4292C204.081 91.2998 204.042 91.1682 204.003 91.0341C203.983 90.967 203.963 90.8992 203.944 90.8307C203.934 90.7964 203.924 90.7619 203.915 90.7273C203.91 90.7099 203.905 90.6925 203.9 90.6751C203.897 90.6664 203.894 90.6533 203.893 90.6489C203.889 90.6358 203.885 90.6226 236 81.6922ZM227.5 74.5V41.1667C210.202 41.1667 199.276 51.232 194.232 57.8051C191.688 61.1216 190.015 64.2545 188.974 66.4886C188.433 67.6488 188.008 68.6857 187.682 69.5443C187.517 69.9767 187.375 70.3725 187.253 70.7259C187.192 70.9029 187.135 71.0701 187.084 71.2268C187.058 71.3052 187.033 71.381 187.01 71.4543C186.998 71.4909 186.986 71.5269 186.975 71.5622C186.969 71.5799 186.964 71.5974 186.958 71.6147C186.955 71.6234 186.951 71.6363 186.95 71.6406C186.946 71.6534 186.942 71.6662 218.732 81.6922C250.521 91.7182 250.517 91.7309 250.513 91.7436C250.512 91.7478 250.508 91.7606 250.505 91.769C250.5 91.7859 250.495 91.8028 250.489 91.8196C250.479 91.8531 250.468 91.8865 250.457 91.9197C250.436 91.986 250.414 92.0515 250.393 92.1163C250.35 92.2458 250.308 92.3726 250.265 92.4969C250.179 92.745 250.092 92.9863 250.002 93.222C249.825 93.6873 249.628 94.1623 249.401 94.6483C248.989 95.5338 248.289 96.8687 247.124 98.3871C244.84 101.364 238.298 107.833 227.5 107.833V74.5ZM175.5 116L143.053 123.635C142.422 120.956 142.189 117.186 143.303 112.92C144.398 108.729 146.438 105.412 148.497 103.028C150.461 100.754 152.462 99.2903 153.931 98.3775C154.704 97.8972 155.452 97.4942 156.157 97.1508C156.514 96.9772 156.871 96.8135 157.227 96.6584C157.406 96.5807 157.585 96.5046 157.766 96.4301C157.857 96.3928 157.947 96.3558 158.039 96.3192C158.084 96.3008 158.13 96.2826 158.176 96.2644C158.199 96.2553 158.222 96.2463 158.245 96.2372C158.257 96.2327 158.274 96.2259 158.28 96.2236C158.297 96.2169 158.314 96.2101 170.45 127.256C182.585 158.302 182.602 158.295 182.62 158.288C182.626 158.286 182.643 158.279 182.655 158.274C182.678 158.265 182.702 158.256 182.726 158.246C182.773 158.228 182.821 158.208 182.871 158.189C182.969 158.149 183.07 158.108 183.173 158.065C183.381 157.98 183.6 157.887 183.829 157.787C184.288 157.588 184.794 157.357 185.34 157.091C186.423 156.564 187.706 155.879 189.109 155.008C191.838 153.312 195.476 150.628 198.952 146.603C206.954 137.337 211.561 123.725 207.947 108.365L175.5 116ZM142.239 61.845C166.96 39.4849 166.952 39.4758 166.944 39.4666C166.941 39.4635 166.932 39.4543 166.927 39.4481C166.916 39.4356 166.904 39.4231 166.893 39.4104C166.87 39.3851 166.846 39.3592 166.822 39.3328C166.773 39.28 166.723 39.2252 166.67 39.1683C166.565 39.0547 166.451 38.9328 166.328 38.8035C166.082 38.5452 165.799 38.2545 165.48 37.9375C164.847 37.3083 164.046 36.5493 163.089 35.7192C161.256 34.1295 158.449 31.9278 154.782 29.8948C147.955 26.1099 132.602 20.1814 115.593 28.6858L130.5 58.5L145.407 88.3142C134.398 93.8186 124.914 89.5626 122.457 88.2002C120.975 87.3784 119.977 86.5754 119.408 86.0816C119.082 85.7995 118.777 85.5127 118.481 85.2189C118.331 85.0695 118.177 84.9122 118.018 84.7454C117.939 84.6618 117.858 84.5752 117.774 84.4854C117.733 84.4404 117.69 84.3946 117.648 84.3479C117.626 84.3246 117.605 84.301 117.583 84.2772C117.572 84.2653 117.561 84.2533 117.551 84.2413C117.545 84.2353 117.537 84.2262 117.534 84.2232C117.526 84.2141 117.518 84.205 142.239 61.845ZM73.1605 100.676C100.3 120.03 100.292 120.04 100.285 120.051C100.282 120.055 100.274 120.066 100.269 120.073C100.259 120.087 100.249 120.101 100.239 120.115C100.218 120.144 100.198 120.172 100.178 120.2C100.138 120.255 100.098 120.31 100.059 120.363C99.9801 120.471 99.9028 120.575 99.8266 120.676C99.6747 120.877 99.525 121.069 99.3762 121.254C99.0843 121.617 98.7681 121.986 98.4166 122.361C97.8148 123.003 96.6476 124.162 94.8063 125.359C93.0061 126.529 89.4264 128.47 84.2924 129.073C78.5662 129.745 72.8265 128.503 68.139 125.754L85 97L101.861 68.2455C83.8237 57.6689 66.7918 64.0569 58.4792 69.4589C54.4905 72.051 51.5822 74.8434 49.7761 76.7703C48.8224 77.7878 48.0383 78.7123 47.4289 79.4699C47.1214 79.8522 46.8507 80.2016 46.6174 80.5106C46.5005 80.6654 46.3924 80.811 46.2932 80.9464C46.2435 81.0141 46.196 81.0794 46.1506 81.1422C46.1279 81.1736 46.1058 81.2043 46.0842 81.2344C46.0733 81.2495 46.0627 81.2644 46.0521 81.2791C46.0469 81.2865 46.039 81.2974 46.0364 81.3011C46.0286 81.312 46.0209 81.3229 73.1605 100.676Z" fill="#F4DCDC" mask="url(#path-4-inside-2_0_1)"/>
<path d="M39.3337 184.696H196.667" stroke="#F4ADBD" stroke-width="20" stroke-linecap="round"/>
<path d="M39 185H95" stroke="#F4DCDC" stroke-width="20" stroke-linecap="round"/>
</svg>
