<svg width="236" height="236" viewBox="0 0 236 236" fill="none" xmlns="http://www.w3.org/2000/svg">
<mask id="path-1-inside-1_189_19" fill="white">
<path d="M215.081 144.303C215.591 139.319 212.161 134.843 207.42 134.307C202.679 133.771 198.422 137.376 197.912 142.361L215.081 144.303ZM130.524 217.846H105.476V236H130.524V217.846ZM38.0881 142.361L35.9772 121.73L18.808 123.671L20.9188 144.303L38.0881 142.361ZM88.2418 109.52L108.843 70.6877L93.7614 61.8451L73.1605 100.676L88.2418 109.52ZM127.157 70.6876L147.758 109.52L162.84 100.676L142.239 61.8451L127.157 70.6876ZM147.758 109.52C149.621 113.029 151.335 116.284 152.996 118.772C154.707 121.332 157.039 124.159 160.612 125.813L167.572 109.199C168.215 109.496 168.106 109.802 167.128 108.34C166.103 106.804 164.886 104.533 162.84 100.676L147.758 109.52ZM174.884 102.434C171.906 105.553 170.139 107.387 168.748 108.57C167.423 109.696 167.394 109.373 168.085 109.273L170.45 127.256C174.315 126.694 177.296 124.65 179.61 122.682C181.858 120.77 184.359 118.136 187.071 115.295L174.884 102.434ZM160.612 125.813C163.701 127.243 167.108 127.741 170.45 127.256L168.085 109.273C167.909 109.298 167.732 109.273 167.572 109.199L160.612 125.813ZM48.9291 115.295C51.6412 118.136 54.1419 120.77 56.3906 122.682C58.7045 124.65 61.6851 126.694 65.5501 127.256L67.9154 109.273C68.6062 109.373 68.577 109.696 67.2519 108.57C65.8617 107.387 64.0945 105.553 61.1158 102.434L48.9291 115.295ZM73.1605 100.676C71.1145 104.533 69.8972 106.804 68.8717 108.34C67.8949 109.802 67.7854 109.496 68.4279 109.199L75.3871 125.813C78.9606 124.159 81.2939 121.332 83.004 118.772C84.6654 116.285 86.3794 113.029 88.2418 109.52L73.1605 100.676ZM65.5501 127.256C68.8923 127.741 72.2984 127.243 75.3871 125.813L68.4279 109.199C68.2686 109.273 68.0907 109.298 67.9154 109.273L65.5501 127.256ZM105.476 217.846C88.9226 217.846 77.3296 217.829 68.4811 216.638C59.8738 215.48 55.0111 213.337 51.3706 209.91L39.8537 223.438C47.1048 230.261 55.8499 233.241 66.2894 234.646C76.4877 236.017 89.3806 236 105.476 236V217.846ZM20.9188 144.303C22.6245 160.973 23.9778 177.301 26.2849 190.543C27.4485 197.222 28.9161 203.516 30.9486 208.977C32.9639 214.394 35.7442 219.571 39.8537 223.438L51.3706 209.91C50.0343 208.653 48.513 206.349 47.0302 202.365C45.5647 198.426 44.3378 193.398 43.2707 187.273C41.1157 174.904 39.8605 159.685 38.0881 142.361L20.9188 144.303ZM197.912 142.361C196.139 159.685 194.884 174.904 192.729 187.273C191.662 193.398 190.435 198.426 188.969 202.365C187.488 206.349 185.966 208.653 184.629 209.91L196.146 223.438C200.256 219.571 203.036 214.394 205.052 208.977C207.084 203.516 208.551 197.222 209.715 190.543C212.022 177.301 213.375 160.973 215.081 144.303L197.912 142.361ZM130.524 236C146.619 236 159.512 236.017 169.71 234.646C180.15 233.241 188.896 230.261 196.146 223.438L184.629 209.91C180.989 213.337 176.126 215.48 167.519 216.638C158.67 217.829 147.077 217.846 130.524 217.846V236ZM103.61 33.2821C103.61 24.9269 110.052 18.1538 118 18.1538V0C100.515 0 86.3415 14.9009 86.3415 33.2821H103.61ZM118 18.1538C125.948 18.1538 132.39 24.9269 132.39 33.2821H149.659C149.659 14.9009 135.485 0 118 0V18.1538ZM218.732 81.6923C218.732 86.7053 214.866 90.7692 210.098 90.7692V108.923C224.403 108.923 236 96.731 236 81.6923H218.732ZM201.463 81.6923C201.463 76.6793 205.329 72.6154 210.098 72.6154V54.4615C195.792 54.4615 184.195 66.6532 184.195 81.6923H201.463ZM210.098 72.6154C214.866 72.6154 218.732 76.6793 218.732 81.6923H236C236 66.6532 224.403 54.4615 210.098 54.4615V72.6154ZM25.9024 90.7692C21.134 90.7692 17.2683 86.7053 17.2683 81.6923H0C0 96.731 11.5969 108.923 25.9024 108.923V90.7692ZM17.2683 81.6923C17.2683 76.6793 21.134 72.6154 25.9024 72.6154V54.4615C11.5969 54.4615 0 66.6532 0 81.6923H17.2683ZM25.9024 72.6154C30.6709 72.6154 34.5366 76.6793 34.5366 81.6923H51.8049C51.8049 66.6532 40.2079 54.4615 25.9024 54.4615V72.6154ZM210.098 90.7692C210.063 90.7692 210.028 90.769 209.994 90.7686L209.794 108.921C209.895 108.922 209.996 108.923 210.098 108.923V90.7692ZM209.994 90.7686C207.428 90.7374 205.135 89.538 203.559 87.6204L190.491 99.4879C195.166 105.177 202.076 108.827 209.794 108.921L209.994 90.7686ZM203.559 87.6204C202.247 86.0249 201.463 83.9663 201.463 81.6923H184.195C184.195 88.4871 186.574 94.7207 190.491 99.4879L203.559 87.6204ZM187.071 115.295C194.87 107.128 198.887 103.012 201.56 101.278L192.49 85.8303C187.656 88.967 181.858 95.1298 174.884 102.434L187.071 115.295ZM34.5366 81.6923C34.5366 83.9663 33.7524 86.0249 32.4412 87.6204L45.5085 99.4879C49.4265 94.7207 51.8049 88.4871 51.8049 81.6923H34.5366ZM61.1158 102.434C54.1414 95.1298 48.3438 88.967 43.5099 85.8303L34.4399 101.278C37.1127 103.012 41.13 107.128 48.9291 115.295L61.1158 102.434ZM32.4412 87.6204C30.8653 89.538 28.5723 90.7374 26.0065 90.7686L26.2062 108.921C33.9237 108.827 40.8339 105.177 45.5085 99.4879L32.4412 87.6204ZM26.0065 90.7686C25.9717 90.769 25.9371 90.7692 25.9024 90.7692V108.923C26.0039 108.923 26.1052 108.922 26.2062 108.921L26.0065 90.7686ZM35.9772 121.73C35.4082 116.168 34.961 111.785 34.7209 108.221C34.4752 104.576 34.4947 102.379 34.664 101.05L17.5486 98.6395C17.1344 101.89 17.2339 105.618 17.4958 109.504C17.7631 113.471 18.2509 118.226 18.808 123.671L35.9772 121.73ZM132.39 33.2821C132.39 39.1523 129.212 44.2577 124.525 46.7712L132.373 62.9422C142.614 57.4491 149.659 46.2382 149.659 33.2821H132.39ZM124.525 46.7712C122.576 47.8166 120.367 48.4103 118 48.4103V66.5641C123.157 66.5641 128.05 65.2607 132.373 62.9422L124.525 46.7712ZM142.239 61.8451C139.864 57.3686 137.73 53.3416 135.771 50.0465L121.127 59.6669C122.807 62.4943 124.709 66.0737 127.157 70.6876L142.239 61.8451ZM118 48.4103C115.633 48.4103 113.424 47.8166 111.475 46.7712L103.627 62.9422C107.95 65.2607 112.843 66.5641 118 66.5641V48.4103ZM111.475 46.7712C106.788 44.2577 103.61 39.1523 103.61 33.2821H86.3415C86.3415 46.2382 93.3853 57.4491 103.627 62.9422L111.475 46.7712ZM108.843 70.6877C111.291 66.0737 113.193 62.4943 114.873 59.6669L100.229 50.0465C98.2704 53.3416 96.136 57.3686 93.7614 61.8451L108.843 70.6877Z"/>
</mask>
<path d="M215.081 144.303C215.591 139.319 212.161 134.843 207.42 134.307C202.679 133.771 198.422 137.376 197.912 142.361L215.081 144.303ZM130.524 217.846H105.476V236H130.524V217.846ZM38.0881 142.361L35.9772 121.73L18.808 123.671L20.9188 144.303L38.0881 142.361ZM88.2418 109.52L108.843 70.6877L93.7614 61.8451L73.1605 100.676L88.2418 109.52ZM127.157 70.6876L147.758 109.52L162.84 100.676L142.239 61.8451L127.157 70.6876ZM147.758 109.52C149.621 113.029 151.335 116.284 152.996 118.772C154.707 121.332 157.039 124.159 160.612 125.813L167.572 109.199C168.215 109.496 168.106 109.802 167.128 108.34C166.103 106.804 164.886 104.533 162.84 100.676L147.758 109.52ZM174.884 102.434C171.906 105.553 170.139 107.387 168.748 108.57C167.423 109.696 167.394 109.373 168.085 109.273L170.45 127.256C174.315 126.694 177.296 124.65 179.61 122.682C181.858 120.77 184.359 118.136 187.071 115.295L174.884 102.434ZM160.612 125.813C163.701 127.243 167.108 127.741 170.45 127.256L168.085 109.273C167.909 109.298 167.732 109.273 167.572 109.199L160.612 125.813ZM48.9291 115.295C51.6412 118.136 54.1419 120.77 56.3906 122.682C58.7045 124.65 61.6851 126.694 65.5501 127.256L67.9154 109.273C68.6062 109.373 68.577 109.696 67.2519 108.57C65.8617 107.387 64.0945 105.553 61.1158 102.434L48.9291 115.295ZM73.1605 100.676C71.1145 104.533 69.8972 106.804 68.8717 108.34C67.8949 109.802 67.7854 109.496 68.4279 109.199L75.3871 125.813C78.9606 124.159 81.2939 121.332 83.004 118.772C84.6654 116.285 86.3794 113.029 88.2418 109.52L73.1605 100.676ZM65.5501 127.256C68.8923 127.741 72.2984 127.243 75.3871 125.813L68.4279 109.199C68.2686 109.273 68.0907 109.298 67.9154 109.273L65.5501 127.256ZM105.476 217.846C88.9226 217.846 77.3296 217.829 68.4811 216.638C59.8738 215.48 55.0111 213.337 51.3706 209.91L39.8537 223.438C47.1048 230.261 55.8499 233.241 66.2894 234.646C76.4877 236.017 89.3806 236 105.476 236V217.846ZM20.9188 144.303C22.6245 160.973 23.9778 177.301 26.2849 190.543C27.4485 197.222 28.9161 203.516 30.9486 208.977C32.9639 214.394 35.7442 219.571 39.8537 223.438L51.3706 209.91C50.0343 208.653 48.513 206.349 47.0302 202.365C45.5647 198.426 44.3378 193.398 43.2707 187.273C41.1157 174.904 39.8605 159.685 38.0881 142.361L20.9188 144.303ZM197.912 142.361C196.139 159.685 194.884 174.904 192.729 187.273C191.662 193.398 190.435 198.426 188.969 202.365C187.488 206.349 185.966 208.653 184.629 209.91L196.146 223.438C200.256 219.571 203.036 214.394 205.052 208.977C207.084 203.516 208.551 197.222 209.715 190.543C212.022 177.301 213.375 160.973 215.081 144.303L197.912 142.361ZM130.524 236C146.619 236 159.512 236.017 169.71 234.646C180.15 233.241 188.896 230.261 196.146 223.438L184.629 209.91C180.989 213.337 176.126 215.48 167.519 216.638C158.67 217.829 147.077 217.846 130.524 217.846V236ZM103.61 33.2821C103.61 24.9269 110.052 18.1538 118 18.1538V0C100.515 0 86.3415 14.9009 86.3415 33.2821H103.61ZM118 18.1538C125.948 18.1538 132.39 24.9269 132.39 33.2821H149.659C149.659 14.9009 135.485 0 118 0V18.1538ZM218.732 81.6923C218.732 86.7053 214.866 90.7692 210.098 90.7692V108.923C224.403 108.923 236 96.731 236 81.6923H218.732ZM201.463 81.6923C201.463 76.6793 205.329 72.6154 210.098 72.6154V54.4615C195.792 54.4615 184.195 66.6532 184.195 81.6923H201.463ZM210.098 72.6154C214.866 72.6154 218.732 76.6793 218.732 81.6923H236C236 66.6532 224.403 54.4615 210.098 54.4615V72.6154ZM25.9024 90.7692C21.134 90.7692 17.2683 86.7053 17.2683 81.6923H0C0 96.731 11.5969 108.923 25.9024 108.923V90.7692ZM17.2683 81.6923C17.2683 76.6793 21.134 72.6154 25.9024 72.6154V54.4615C11.5969 54.4615 0 66.6532 0 81.6923H17.2683ZM25.9024 72.6154C30.6709 72.6154 34.5366 76.6793 34.5366 81.6923H51.8049C51.8049 66.6532 40.2079 54.4615 25.9024 54.4615V72.6154ZM210.098 90.7692C210.063 90.7692 210.028 90.769 209.994 90.7686L209.794 108.921C209.895 108.922 209.996 108.923 210.098 108.923V90.7692ZM209.994 90.7686C207.428 90.7374 205.135 89.538 203.559 87.6204L190.491 99.4879C195.166 105.177 202.076 108.827 209.794 108.921L209.994 90.7686ZM203.559 87.6204C202.247 86.0249 201.463 83.9663 201.463 81.6923H184.195C184.195 88.4871 186.574 94.7207 190.491 99.4879L203.559 87.6204ZM187.071 115.295C194.87 107.128 198.887 103.012 201.56 101.278L192.49 85.8303C187.656 88.967 181.858 95.1298 174.884 102.434L187.071 115.295ZM34.5366 81.6923C34.5366 83.9663 33.7524 86.0249 32.4412 87.6204L45.5085 99.4879C49.4265 94.7207 51.8049 88.4871 51.8049 81.6923H34.5366ZM61.1158 102.434C54.1414 95.1298 48.3438 88.967 43.5099 85.8303L34.4399 101.278C37.1127 103.012 41.13 107.128 48.9291 115.295L61.1158 102.434ZM32.4412 87.6204C30.8653 89.538 28.5723 90.7374 26.0065 90.7686L26.2062 108.921C33.9237 108.827 40.8339 105.177 45.5085 99.4879L32.4412 87.6204ZM26.0065 90.7686C25.9717 90.769 25.9371 90.7692 25.9024 90.7692V108.923C26.0039 108.923 26.1052 108.922 26.2062 108.921L26.0065 90.7686ZM35.9772 121.73C35.4082 116.168 34.961 111.785 34.7209 108.221C34.4752 104.576 34.4947 102.379 34.664 101.05L17.5486 98.6395C17.1344 101.89 17.2339 105.618 17.4958 109.504C17.7631 113.471 18.2509 118.226 18.808 123.671L35.9772 121.73ZM132.39 33.2821C132.39 39.1523 129.212 44.2577 124.525 46.7712L132.373 62.9422C142.614 57.4491 149.659 46.2382 149.659 33.2821H132.39ZM124.525 46.7712C122.576 47.8166 120.367 48.4103 118 48.4103V66.5641C123.157 66.5641 128.05 65.2607 132.373 62.9422L124.525 46.7712ZM142.239 61.8451C139.864 57.3686 137.73 53.3416 135.771 50.0465L121.127 59.6669C122.807 62.4943 124.709 66.0737 127.157 70.6876L142.239 61.8451ZM118 48.4103C115.633 48.4103 113.424 47.8166 111.475 46.7712L103.627 62.9422C107.95 65.2607 112.843 66.5641 118 66.5641V48.4103ZM111.475 46.7712C106.788 44.2577 103.61 39.1523 103.61 33.2821H86.3415C86.3415 46.2382 93.3853 57.4491 103.627 62.9422L111.475 46.7712ZM108.843 70.6877C111.291 66.0737 113.193 62.4943 114.873 59.6669L100.229 50.0465C98.2704 53.3416 96.136 57.3686 93.7614 61.8451L108.843 70.6877Z" fill="#1C274C"/>
<path d="M88.2418 109.52L79.8121 123.897L96.6723 95.1425L88.2418 109.52ZM93.7614 61.8451L102.191 47.4674L85.331 76.2223L93.7614 61.8451ZM127.157 70.6876L118.727 56.3098L135.586 85.0657L127.157 70.6876ZM162.84 100.676L171.271 115.054L154.41 86.299L162.84 100.676ZM160.612 125.813L145.24 119.374L175.985 132.253L160.612 125.813ZM174.884 102.434L186.982 90.9695L162.786 113.897L174.884 102.434ZM168.085 109.273L184.609 107.1L151.56 111.446L168.085 109.273ZM48.9291 115.295L36.8305 103.832L61.0273 126.759L48.9291 115.295ZM67.9154 109.273L84.4398 111.446L51.391 107.099L67.9154 109.273ZM51.3706 209.911L64.0614 220.714L38.6804 199.106L51.3706 209.911ZM184.629 209.911L197.319 199.106L171.938 220.714L184.629 209.911ZM203.559 87.6204L214.764 99.9576L192.354 75.2824L203.559 87.6204ZM124.525 46.7712L139.519 39.4936L109.531 54.048L124.525 46.7712ZM111.475 46.7712L126.469 54.048L96.4811 39.4936L111.475 46.7712ZM197.912 142.361L196.039 158.922L213.209 160.864L215.081 144.303L216.954 127.741L199.784 125.8L197.912 142.361ZM29.5035 143.332L27.6309 126.771L19.0463 127.741L20.9188 144.303L22.7913 160.864L31.376 159.893L29.5035 143.332ZM27.3927 122.701L29.2652 139.262L37.8497 138.291L35.9772 121.73L34.1047 105.169L25.5202 106.139L27.3927 122.701ZM80.7012 105.099L72.2715 119.476L79.8121 123.897L88.2418 109.52L96.6715 95.142L89.1309 90.721L80.7012 105.099ZM101.302 66.2664L109.732 51.8891L102.192 47.4678L93.7614 61.8451L85.331 76.2223L92.8712 80.6437L101.302 66.2664ZM134.698 66.2664L126.269 51.8883L118.728 56.3095L127.157 70.6876L135.586 85.0657L143.127 80.6445L134.698 66.2664ZM155.298 105.099L163.729 119.476L171.271 115.054L162.84 100.676L154.409 86.2992L146.868 90.7215L155.298 105.099ZM164.093 117.506L148.72 111.066L145.24 119.374L160.612 125.813L175.985 132.253L179.465 123.946L164.093 117.506ZM180.977 108.864L193.075 97.3996L186.982 90.9695L174.884 102.434L162.786 113.898L168.88 120.328L180.977 108.864ZM169.267 118.265L185.792 116.092L184.609 107.1L168.085 109.273L151.56 111.446L152.743 120.438L169.267 118.265ZM55.0225 108.864L42.9239 97.4008L36.8305 103.832L48.9291 115.295L61.0278 126.758L67.1212 120.327L55.0225 108.864ZM66.7327 118.265L83.2571 120.438L84.4398 111.446L67.9154 109.273L51.391 107.1L50.2084 116.092L66.7327 118.265ZM71.9076 117.506L56.535 123.945L60.0145 132.252L75.3871 125.813L90.7598 119.374L87.2802 111.067L71.9076 117.506ZM45.6122 216.675L58.303 227.478L64.0614 220.714L51.3706 209.911L38.6799 199.107L32.9215 205.871L45.6122 216.675ZM190.388 216.675L203.078 205.871L197.32 199.107L184.629 209.911L171.938 220.714L177.697 227.478L190.388 216.675ZM209.894 99.8449L193.228 99.661L193.128 108.737L209.794 108.921L226.459 109.105L226.559 100.029L209.894 99.8449ZM197.025 93.5544L208.231 105.892L214.764 99.9576L203.559 87.6204L192.353 75.2831L185.82 81.2172L197.025 93.5544ZM128.45 54.8567L143.443 47.579L139.519 39.4936L124.525 46.7712L109.531 54.0489L113.456 62.1343L128.45 54.8567ZM107.55 54.8567L122.544 62.1343L126.469 54.0489L111.475 46.7712L96.4811 39.4936L92.5566 47.579L107.55 54.8567ZM105.476 217.846H88.8092V236H105.476H122.143V217.846H105.476ZM130.524 236H147.191V217.846H130.524H113.857V236H130.524ZM35.9772 121.73L34.1047 105.169L16.9355 107.11L18.808 123.671L20.6806 140.232L37.8497 138.291L35.9772 121.73ZM20.9188 144.303L22.7913 160.864L39.9606 158.922L38.0881 142.361L36.2156 125.8L19.0463 127.741L20.9188 144.303ZM108.843 70.6877L117.273 56.3101L102.191 47.4674L93.7614 61.8451L85.3316 76.2227L100.413 85.0653L108.843 70.6877ZM73.1605 100.676L64.73 115.054L79.8113 123.897L88.2418 109.52L96.6723 95.1425L81.5909 86.2992L73.1605 100.676ZM147.758 109.52L156.188 123.897L171.27 115.054L162.84 100.676L154.41 86.299L139.328 95.1423L147.758 109.52ZM142.239 61.8451L133.809 47.4673L118.727 56.3098L127.157 70.6876L135.586 85.0653L150.668 76.2228L142.239 61.8451ZM160.612 125.813L175.985 132.252L182.944 115.638L167.572 109.199L152.199 102.76L145.24 119.374L160.612 125.813ZM168.085 109.273L151.561 111.446L153.925 129.429L170.45 127.256L186.974 125.083L184.609 107.1L168.085 109.273ZM187.071 115.295L199.169 103.832L186.982 90.9701L174.884 102.434L162.786 113.897L174.973 126.759L187.071 115.295ZM65.5501 127.256L82.0744 129.429L84.4397 111.446L67.9154 109.273L51.391 107.099L49.0257 125.083L65.5501 127.256ZM61.1158 102.434L49.0177 90.9702L36.831 103.832L48.9291 115.295L61.0273 126.759L73.214 113.897L61.1158 102.434ZM68.4279 109.199L53.0553 115.638L60.0146 132.252L75.3871 125.813L90.7597 119.374L83.8005 102.76L68.4279 109.199ZM51.3706 209.911L38.6804 199.106L27.1635 212.633L39.8537 223.438L52.5439 234.242L64.0609 220.715L51.3706 209.911ZM184.629 209.911L171.939 220.715L183.456 234.242L196.146 223.438L208.836 212.633L197.319 199.106L184.629 209.911ZM118 18.1538H134.667V0H118H101.333V18.1538H118ZM86.3415 33.2821V49.9487H103.61V33.2821V16.6154H86.3415V33.2821ZM132.39 33.2821V49.9487H149.659V33.2821V16.6154H132.39V33.2821ZM210.098 90.7692H193.431V108.923H210.098H226.764V90.7692H210.098ZM236 81.6923V65.0256H218.732V81.6923V98.359H236V81.6923ZM210.098 72.6154H226.764V54.4615H210.098H193.431V72.6154H210.098ZM184.195 81.6923V98.359H201.463V81.6923V65.0256H184.195V81.6923ZM17.2683 81.6923V65.0256H0V81.6923V98.359H17.2683V81.6923ZM25.9024 108.923H42.5691V90.7692H25.9024H9.23577V108.923H25.9024ZM25.9024 72.6154H42.5691V54.4615H25.9024H9.23577V72.6154H25.9024ZM34.5366 81.6923V98.359H51.8049V81.6923V65.0256H34.5366V81.6923ZM209.994 90.7686L193.328 90.5847L193.128 108.737L209.794 108.921L226.459 109.105L226.66 90.9525L209.994 90.7686ZM203.559 87.6204L192.354 75.2824L179.286 87.1499L190.491 99.4879L201.696 111.826L214.764 99.9583L203.559 87.6204ZM32.4412 87.6204L21.2361 99.9582L34.3034 111.826L45.5085 99.4879L56.7136 87.15L43.6464 75.2825L32.4412 87.6204ZM26.0065 90.7686L9.34085 90.952L9.54059 109.104L26.2062 108.921L42.8719 108.737L42.6722 90.5853L26.0065 90.7686ZM124.525 46.7712L109.531 54.048L117.379 70.2189L132.373 62.9422L147.367 55.6654L139.519 39.4944L124.525 46.7712ZM118 48.4103H101.333V66.5641H118H134.667V48.4103H118ZM111.475 46.7712L96.4807 39.4944L88.6328 55.6654L103.627 62.9422L118.621 70.2189L126.469 54.048L111.475 46.7712ZM215.081 144.303L248.241 147.696L248.241 147.696L215.081 144.303ZM197.912 142.361L231.072 145.755L231.072 145.754L197.912 142.361ZM20.9188 144.303L-12.2414 147.695L-12.2414 147.695L20.9188 144.303ZM35.9772 121.73L2.81697 125.122L2.817 125.123L35.9772 121.73ZM88.2418 109.52L117.687 125.144L117.688 125.142L88.2418 109.52ZM93.7614 61.8451L123.207 77.4669L123.208 77.4655L93.7614 61.8451ZM127.157 70.6876L97.71 86.308L97.7106 86.3092L127.157 70.6876ZM162.84 100.676L192.288 85.0579L192.286 85.0545L162.84 100.676ZM160.612 125.813L146.608 156.062L146.614 156.065L160.612 125.813ZM174.884 102.434L198.992 125.454L198.992 125.453L174.884 102.434ZM168.085 109.273L172.882 142.259L163.324 76.2812L168.085 109.273ZM48.9291 115.295L73.0381 92.2762L73.0357 92.2737L48.9291 115.295ZM67.9154 109.273L72.6973 76.2843L63.119 142.259L67.9154 109.273ZM75.3871 125.813L89.386 156.065L89.3914 156.062L75.3871 125.813ZM51.3706 209.911L74.2157 185.637L74.2135 185.635L51.3706 209.911ZM184.629 209.911L161.788 185.633L161.783 185.638L184.629 209.911ZM209.794 108.921L209.391 142.252L209.395 142.252L209.794 108.921ZM203.559 87.6204L177.806 108.785L177.806 108.785L203.559 87.6204ZM124.525 46.7712L108.771 17.3958L108.769 17.3967L124.525 46.7712ZM111.475 46.7712L127.231 17.3967L127.229 17.3958L111.475 46.7712ZM38.0881 142.361L71.2483 138.969L71.2483 138.968L38.0881 142.361ZM18.808 123.671L51.9683 120.279L51.9682 120.278L18.808 123.671ZM108.843 70.6877L138.289 86.3096L138.29 86.3079L108.843 70.6877ZM73.1605 100.676L43.7144 85.0545L43.7134 85.0565L73.1605 100.676ZM147.758 109.52L118.312 125.141L118.314 125.146L147.758 109.52ZM142.239 61.8451L171.685 46.2232L171.685 46.2228L142.239 61.8451ZM152.996 118.772L125.273 137.28L125.278 137.287L125.282 137.294L152.996 118.772ZM167.572 109.199L181.521 78.9247L153.607 139.466L167.572 109.199ZM167.128 108.34L139.409 126.853L139.413 126.859L139.417 126.865L167.128 108.34ZM168.748 108.57L147.156 83.1748L147.155 83.176L168.748 108.57ZM170.45 127.256L175.24 160.243L175.241 160.243L170.45 127.256ZM179.61 122.682L201.205 148.075L201.205 148.074L179.61 122.682ZM187.071 115.295L162.965 92.2732L162.963 92.2752L187.071 115.295ZM56.3906 122.682L77.986 97.2906L77.9837 97.2886L56.3906 122.682ZM65.5501 127.256L60.7573 160.243L60.7601 160.243L65.5501 127.256ZM67.2519 108.57L45.6558 133.961L45.6586 133.963L67.2519 108.57ZM61.1158 102.434L37.0081 125.454L37.0102 125.456L61.1158 102.434ZM68.8717 108.34L96.5879 126.858L96.5931 126.85L68.8717 108.34ZM68.4279 109.199L82.4418 139.443L54.4602 78.9333L68.4279 109.199ZM83.004 118.772L110.721 137.289L110.722 137.288L83.004 118.772ZM68.4811 216.638L72.9272 183.603L72.9264 183.603L68.4811 216.638ZM39.8537 223.438L62.6972 199.162L62.6961 199.161L39.8537 223.438ZM66.2894 234.646L61.843 267.681L61.8475 267.682L66.2894 234.646ZM26.2849 190.543L59.1236 184.822L59.1235 184.821L26.2849 190.543ZM30.9486 208.977L62.19 197.355L62.189 197.352L30.9486 208.977ZM47.0302 202.365L15.7898 213.99L15.7902 213.991L47.0302 202.365ZM43.2707 187.273L10.432 192.994L10.432 192.994L43.2707 187.273ZM192.729 187.273L159.891 181.551L159.89 181.551L192.729 187.273ZM188.969 202.365L157.729 190.739L157.726 190.746L188.969 202.365ZM196.146 223.438L173.305 199.16L173.301 199.163L196.146 223.438ZM205.052 208.977L236.292 220.602L236.293 220.6L205.052 208.977ZM209.715 190.543L242.554 196.265L242.554 196.264L209.715 190.543ZM169.71 234.646L174.152 267.682L174.157 267.681L169.71 234.646ZM167.519 216.638L163.073 183.603L163.072 183.603L167.519 216.638ZM209.994 90.7686L209.588 124.099L209.616 124.1L209.644 124.1L209.994 90.7686ZM190.491 99.4879L216.245 78.3255L216.244 78.3245L190.491 99.4879ZM201.56 101.278L219.703 129.241L246.446 111.89L230.305 84.3999L201.56 101.278ZM192.49 85.8303L221.234 68.9523L203.585 38.8945L174.345 57.8681L192.49 85.8303ZM32.4412 87.6204L58.1942 108.784L58.1944 108.784L32.4412 87.6204ZM45.5085 99.4879L19.7564 78.3234L19.7536 78.3267L45.5085 99.4879ZM43.5099 85.8303L61.6544 57.8681L32.414 38.8941L14.7651 68.9529L43.5099 85.8303ZM34.4399 101.278L5.69507 84.4005L-10.4448 111.889L16.2958 129.24L34.4399 101.278ZM26.0065 90.7686L26.3546 124.1L26.3834 124.1L26.4121 124.099L26.0065 90.7686ZM26.2062 108.921L26.6053 142.252L26.6087 142.252L26.2062 108.921ZM34.7209 108.221L67.9788 105.98L67.9788 105.98L34.7209 108.221ZM34.664 101.05L67.7299 105.264L71.8885 72.6313L39.3134 68.0429L34.664 101.05ZM17.5486 98.6395L22.198 65.632L-11.2481 60.9209L-15.5174 94.4263L17.5486 98.6395ZM17.4958 109.504L50.7537 107.263L50.7537 107.263L17.4958 109.504ZM132.373 62.9422L148.128 92.3172L148.129 92.3168L132.373 62.9422ZM135.771 50.0465L164.426 33.017L146.613 3.04241L117.47 22.1868L135.771 50.0465ZM121.127 59.6669L102.825 31.8071L76.1887 49.3051L92.4738 76.6999L121.127 59.6669ZM103.627 62.9422L87.8719 92.3171L87.8721 92.3172L103.627 62.9422ZM114.873 59.6669L143.526 76.6999L159.811 49.3051L133.175 31.8071L114.873 59.6669ZM100.229 50.0465L118.53 22.1868L89.3874 3.04241L71.5736 33.017L100.229 50.0465ZM215.081 144.303L248.241 147.696C250.456 126.055 235.543 103.942 211.166 101.185L207.42 134.307L203.674 167.429C188.779 165.745 180.726 152.583 181.921 140.909L215.081 144.303ZM207.42 134.307L211.166 101.185C186.465 98.3913 166.989 117.1 164.752 138.969L197.912 142.361L231.072 145.754C229.855 157.652 218.893 169.15 203.674 167.429L207.42 134.307ZM130.524 217.846V184.513H105.476V217.846V251.179H130.524V217.846ZM105.476 236V269.333H130.524V236V202.667H105.476V236ZM38.0881 142.361L71.2483 138.968L69.1374 118.337L35.9772 121.73L2.817 125.123L4.92787 145.754L38.0881 142.361ZM18.808 123.671L-14.3522 127.064L-12.2414 147.695L20.9188 144.303L54.079 140.91L51.9683 120.279L18.808 123.671ZM88.2418 109.52L117.688 125.142L138.289 86.3096L108.843 70.6877L79.3972 55.0658L58.7958 93.8979L88.2418 109.52ZM93.7614 61.8451L64.3154 46.2232L43.7144 85.0545L73.1605 100.676L102.606 116.298L123.207 77.4669L93.7614 61.8451ZM127.157 70.6876L97.7106 86.3092L118.312 125.141L147.758 109.52L177.204 93.8981L156.603 55.0659L127.157 70.6876ZM162.84 100.676L192.286 85.0545L171.685 46.2232L142.239 61.8451L112.793 77.467L133.394 116.298L162.84 100.676ZM147.758 109.52L118.314 125.146C119.858 128.055 122.46 133.067 125.273 137.28L152.996 118.772L180.719 100.264C180.209 99.5005 179.383 98.0037 177.202 93.8935L147.758 109.52ZM152.996 118.772L125.282 137.294C128.261 141.751 134.793 150.592 146.608 156.062L160.612 125.813L174.617 95.5648C179.285 97.7261 181.153 100.913 180.71 100.25L152.996 118.772ZM167.572 109.199L153.622 139.473C151.486 138.489 149.69 137.367 148.222 136.293C147.472 135.743 146.82 135.215 146.268 134.743C146.205 134.688 146.153 134.643 146.118 134.613C145.963 134.478 146.179 134.666 146.296 134.767C146.321 134.788 146.555 134.988 146.855 135.234C147.052 135.394 147.661 135.874 148.078 136.189C149.321 137.071 171.166 142.626 190.451 134.063C201.155 112.649 193.753 88.313 192.702 87.0914C192.337 86.695 191.786 86.1182 191.603 85.9333C191.324 85.6534 191.098 85.4366 191.075 85.4142C190.956 85.2996 190.753 85.1084 190.894 85.2416C191.068 85.4068 191.289 85.6192 191.539 85.8694C193.389 87.7213 194.461 89.2485 194.839 89.814L167.128 108.34L139.417 126.865C140.773 128.893 142.388 130.998 144.377 132.988C144.644 133.256 144.875 133.479 145.055 133.648C145.196 133.782 144.995 133.592 144.876 133.478C144.853 133.455 144.626 133.239 144.348 132.959C144.165 132.774 143.614 132.197 143.249 131.801C142.198 130.579 134.796 106.243 145.5 84.8295C164.785 76.2658 186.63 81.8215 187.873 82.7028C188.289 83.0179 188.899 83.4979 189.096 83.6579C189.396 83.9037 189.63 84.1044 189.654 84.1253C189.771 84.2255 189.987 84.4128 189.83 84.2772C189.794 84.2459 189.741 84.1994 189.675 84.1433C189.108 83.657 188.415 83.095 187.6 82.4981C186.002 81.3288 183.979 80.0573 181.521 78.9247L167.572 109.199ZM167.128 108.34L194.848 89.8265C195.096 90.1981 195.055 90.1828 194.522 89.221C194.009 88.2944 193.338 87.0385 192.288 85.0579L162.84 100.676L133.392 116.295C135.08 119.477 137.216 123.569 139.409 126.853L167.128 108.34ZM174.884 102.434L150.777 79.4132C149.245 81.0174 148.279 82.0237 147.55 82.7582C146.793 83.5222 146.779 83.4957 147.156 83.1748L168.748 108.57L190.34 133.965C193.374 131.385 196.558 128.003 198.992 125.454L174.884 102.434ZM168.748 108.57L147.155 83.176C147.696 82.7159 149.215 81.4826 151.613 80.1652C151.924 79.9946 152.262 79.8157 152.626 79.6319C152.715 79.5871 152.82 79.5346 152.938 79.4764C152.969 79.4615 153.008 79.442 153.055 79.4193C153.066 79.414 153.195 79.3512 153.357 79.2741C153.533 79.1912 156.465 77.9885 159.308 77.1177C198.745 97.417 182.857 139.05 182.611 139.175C182.422 139.27 182.268 139.344 182.268 139.345C181.997 139.477 181.766 139.585 181.595 139.664C180.82 140.021 179.989 140.368 179.103 140.69C177.338 141.332 175.251 141.915 172.882 142.259L168.085 109.273L163.288 76.2865C160.573 76.6813 158.231 77.3421 156.318 78.0378C155.358 78.3868 154.481 78.754 153.689 79.1192C153.513 79.2002 153.28 79.3094 153.008 79.442C153.008 79.4423 152.854 79.5172 152.665 79.612C152.419 79.7373 136.53 121.37 175.968 141.669C178.811 140.798 181.742 139.596 181.919 139.513C182.081 139.436 182.21 139.373 182.221 139.367C182.268 139.345 182.308 139.325 182.338 139.31C182.457 139.252 182.563 139.199 182.654 139.153C183.024 138.966 183.376 138.78 183.708 138.598C186.279 137.185 188.475 135.55 190.341 133.963L168.748 108.57ZM170.45 127.256L175.241 160.243C188.278 158.349 197.079 151.583 201.205 148.075L179.61 122.682L158.015 97.29C157.512 97.7177 160.352 95.0396 165.658 94.2689L170.45 127.256ZM179.61 122.682L201.205 148.074C205.079 144.78 208.947 140.652 211.179 138.315L187.071 115.295L162.963 92.2752C159.77 95.6191 158.637 96.761 158.014 97.2908L179.61 122.682ZM160.612 125.813L146.614 156.065C155.528 160.19 165.459 161.664 175.24 160.243L170.45 127.256L165.659 94.2687C168.756 93.819 171.874 94.2956 174.611 95.5621L160.612 125.813ZM168.085 109.273L163.324 76.2812C169.44 75.3988 175.773 76.2732 181.536 78.9316L167.572 109.199L153.607 139.466C159.69 142.272 166.378 143.198 172.845 142.264L168.085 109.273ZM48.9291 115.295L24.8202 138.314C27.0533 140.653 30.9216 144.781 34.7976 148.076L56.3906 122.682L77.9837 97.2886C77.3621 96.76 76.229 95.6182 73.0381 92.2762L48.9291 115.295ZM56.3906 122.682L34.7953 148.074C38.9203 151.583 47.7214 158.349 60.7573 160.243L65.5501 127.256L70.3429 94.2691C75.6488 95.04 78.4887 97.7181 77.986 97.2906L56.3906 122.682ZM67.9154 109.273L63.119 142.259C60.7501 141.915 58.662 141.332 56.8933 140.689C56.0089 140.367 55.1702 140.017 54.3771 139.651C54.2459 139.59 53.9315 139.444 53.5345 139.247C53.4898 139.225 53.3862 139.173 53.3272 139.143C53.2263 139.092 52.932 138.94 52.7392 138.839C52.0704 138.474 36.9519 98.2357 73.3147 76.43C77.4073 77.3107 81.7418 78.8631 82.1242 79.0336C82.2673 79.0988 82.493 79.2035 82.5759 79.2424C82.6268 79.2664 82.7177 79.3097 82.7577 79.3288C82.8391 79.3677 82.9052 79.3998 82.9469 79.4201C83.1068 79.4979 83.2383 79.5635 83.3283 79.6087C83.7143 79.8027 84.0633 79.9876 84.3727 80.1573C86.7813 81.4787 88.3052 82.7167 88.8453 83.176L67.2519 108.57L45.6586 133.963C47.5238 135.549 49.7248 137.189 52.3066 138.606C52.6376 138.787 53.0004 138.979 53.3926 139.176C53.4841 139.222 53.6167 139.288 53.7771 139.366C53.819 139.387 53.8852 139.419 53.9667 139.458C54.0067 139.477 54.0977 139.52 54.1486 139.544C54.2315 139.583 54.4573 139.688 54.6004 139.753C54.9828 139.924 59.3173 141.476 63.41 142.357C99.7728 120.551 84.6542 80.3128 83.9854 79.9481C83.7926 79.8466 83.4983 79.6947 83.3974 79.6435C83.3384 79.6138 83.2347 79.5618 83.19 79.5396C82.7923 79.3421 82.4753 79.1948 82.3397 79.1321C81.5293 78.7577 80.6438 78.3877 79.6857 78.0391C77.7696 77.342 75.4261 76.6811 72.7117 76.2864L67.9154 109.273ZM67.2519 108.57L88.8481 83.1784C89.2235 83.4977 89.208 83.5227 88.4496 82.7579C87.7206 82.0226 86.7537 81.0157 85.2215 79.4114L61.1158 102.434L37.0102 125.456C39.4443 128.005 42.6257 131.384 45.6558 133.961L67.2519 108.57ZM73.1605 100.676L43.7134 85.0565C42.6633 87.0361 41.9926 88.2924 41.479 89.219C40.946 90.1807 40.9039 90.1983 41.1503 89.8294L68.8717 108.34L96.5931 126.85C98.7835 123.57 100.917 119.483 102.608 116.296L73.1605 100.676ZM68.8717 108.34L41.1555 89.8215C41.5288 89.2629 42.6077 87.7225 44.4765 85.8545C44.7249 85.6061 44.9657 85.3735 45.1959 85.1572C45.2209 85.1337 45.2413 85.1145 45.2543 85.1024C45.2953 85.064 45.2411 85.1147 45.2205 85.134C45.2191 85.1353 45.1202 85.2279 44.999 85.3437C44.9183 85.4211 44.6691 85.6633 44.5014 85.8292C44.0337 86.3043 37.2288 96.6901 34.7155 108.179C52.4145 138.898 88.4743 135.77 89.1622 135.221C89.3753 135.044 89.6822 134.785 89.7774 134.704C89.8337 134.655 89.9222 134.578 89.9544 134.55C89.9773 134.53 90.0137 134.498 90.0272 134.486C90.1036 134.419 89.95 134.555 89.8078 134.677C89.221 135.184 88.5543 135.723 87.8068 136.271C86.3337 137.352 84.5341 138.478 82.3956 139.465L68.4279 109.199L54.4602 78.9333C52.0005 80.0685 49.9736 81.3437 48.3709 82.5196C47.5585 83.1156 46.8514 83.6887 46.2491 84.2086C46.103 84.3347 45.947 84.4723 46.0226 84.4058C46.0361 84.394 46.0724 84.3622 46.0953 84.3421C46.1275 84.314 46.216 84.2373 46.2723 84.1887C46.3674 84.1071 46.6743 83.8479 46.8873 83.6717C47.5753 83.1226 83.635 79.9939 101.334 110.713C98.8208 122.202 92.0158 132.588 91.5482 133.063C91.3805 133.229 91.1313 133.471 91.0506 133.548C90.9294 133.664 90.8306 133.757 90.8293 133.758C90.8089 133.777 90.755 133.827 90.7964 133.789C90.8098 133.776 90.8307 133.757 90.8563 133.733C91.0911 133.512 91.3429 133.269 91.6087 133.003C93.6157 130.997 95.2378 128.879 96.5879 126.858L68.8717 108.34ZM75.3871 125.813L89.3914 156.062C101.204 150.593 107.738 141.755 110.721 137.289L83.004 118.772L55.2868 100.255C54.8502 100.909 56.7171 97.7247 61.3829 95.5646L75.3871 125.813ZM83.004 118.772L110.722 137.288C113.54 133.07 116.146 128.047 117.687 125.144L88.2418 109.52L58.7969 93.8958C56.6129 98.0117 55.7912 99.5004 55.2864 100.256L83.004 118.772ZM65.5501 127.256L60.7601 160.243C70.5413 161.664 80.4718 160.19 89.386 156.065L75.3871 125.813L61.3883 95.5621C64.1251 94.2956 67.2433 93.819 70.3401 94.2687L65.5501 127.256ZM68.4279 109.199L54.4141 78.9546C60.2142 76.2671 66.576 75.397 72.6973 76.2843L67.9154 109.273L63.1335 142.261C69.6055 143.2 76.323 142.279 82.4418 139.443L68.4279 109.199ZM105.476 217.846V184.513C87.9754 184.513 79.0347 184.425 72.9272 183.603L68.4811 216.638L64.035 249.674C75.6245 251.234 89.8698 251.179 105.476 251.179V217.846ZM68.4811 216.638L72.9264 183.603C71.6909 183.436 70.933 183.28 70.5348 183.184C70.1464 183.09 70.1939 183.075 70.5423 183.216C70.9144 183.366 71.5225 183.65 72.2542 184.115C72.996 184.587 73.6616 185.115 74.2157 185.637L51.3706 209.911L28.5256 234.184C39.1014 244.138 51.6029 248.001 64.0358 249.674L68.4811 216.638ZM39.8537 223.438L17.0102 247.713C31.2063 261.072 47.5994 265.764 61.843 267.681L66.2894 234.646L70.7358 201.61C67.3007 201.148 65.3957 200.584 64.343 200.159C63.475 199.809 63.0711 199.514 62.6972 199.162L39.8537 223.438ZM66.2894 234.646L61.8475 267.682C74.776 269.42 90.2911 269.333 105.476 269.333V236V202.667C88.47 202.667 78.1995 202.614 70.7313 201.61L66.2894 234.646ZM20.9188 144.303L-12.2414 147.695C-10.6516 163.234 -9.12723 181.494 -6.55376 196.264L26.2849 190.543L59.1235 184.821C57.0829 173.109 55.9005 158.712 54.079 140.91L20.9188 144.303ZM26.2849 190.543L-6.55384 196.264C-5.22167 203.91 -3.33032 212.437 -0.291869 220.603L30.9486 208.977L62.189 197.352C61.1625 194.594 60.1187 190.534 59.1236 184.822L26.2849 190.543ZM30.9486 208.977L-0.292792 220.6C2.64636 228.5 7.70311 238.955 17.0114 247.714L39.8537 223.438L62.6961 199.161C63.3116 199.74 63.4487 200.058 63.2608 199.743C63.0638 199.411 62.6796 198.671 62.19 197.355L30.9486 208.977ZM51.3706 209.911L74.2135 185.635C76.2886 187.587 77.4235 189.312 77.9003 190.114C78.3958 190.946 78.464 191.259 78.2702 190.738L47.0302 202.365L15.7902 213.991C18.1956 220.454 21.9927 228.037 28.5278 234.186L51.3706 209.911ZM47.0302 202.365L78.2706 190.739C77.8125 189.508 77.0091 186.716 76.1093 181.551L43.2707 187.273L10.432 192.994C11.6665 200.08 13.3168 207.344 15.7898 213.99L47.0302 202.365ZM43.2707 187.273L76.1093 181.551C74.2211 170.714 73.1392 157.45 71.2483 138.969L38.0881 142.361L4.92786 145.754C6.58178 161.919 8.01026 179.094 10.432 192.994L43.2707 187.273ZM197.912 142.361L164.752 138.968C162.86 157.452 161.779 170.713 159.891 181.551L192.729 187.273L225.568 192.994C227.99 179.095 229.418 161.918 231.072 145.755L197.912 142.361ZM192.729 187.273L159.89 181.551C158.991 186.714 158.187 189.507 157.729 190.739L188.969 202.365L220.21 213.99C222.682 207.346 224.333 200.081 225.568 192.994L192.729 187.273ZM188.969 202.365L157.726 190.746C157.534 191.264 157.603 190.948 158.1 190.113C158.578 189.31 159.714 187.585 161.788 185.633L184.629 209.911L207.47 234.188C214.006 228.039 217.805 220.455 220.212 213.983L188.969 202.365ZM196.146 223.438L218.987 247.715C228.297 238.956 233.353 228.501 236.292 220.602L205.052 208.977L173.811 197.352C173.321 198.669 172.937 199.411 172.74 199.742C172.552 200.058 172.689 199.74 173.305 199.16L196.146 223.438ZM205.052 208.977L236.293 220.6C239.33 212.437 241.221 203.912 242.554 196.265L209.715 190.543L176.877 184.821C175.882 190.532 174.837 194.594 173.81 197.355L205.052 208.977ZM209.715 190.543L242.554 196.264C245.127 181.494 246.651 163.232 248.241 147.696L215.081 144.303L181.921 140.909C180.099 158.714 178.917 173.109 176.877 184.821L209.715 190.543ZM130.524 236V269.333C145.709 269.333 161.224 269.42 174.152 267.682L169.71 234.646L165.269 201.61C157.8 202.614 147.53 202.667 130.524 202.667V236ZM169.71 234.646L174.157 267.681C188.399 265.764 204.794 261.072 218.991 247.712L196.146 223.438L173.301 199.163C172.928 199.514 172.525 199.809 171.657 200.159C170.604 200.584 168.699 201.148 165.264 201.61L169.71 234.646ZM184.629 209.911L161.783 185.638C162.337 185.116 163.003 184.587 163.745 184.115C164.477 183.65 165.086 183.366 165.458 183.216C165.806 183.075 165.854 183.089 165.465 183.184C165.067 183.28 164.309 183.436 163.073 183.603L167.519 216.638L171.964 249.674C184.396 248.001 196.899 244.138 207.475 234.183L184.629 209.911ZM167.519 216.638L163.072 183.603C156.965 184.425 148.025 184.513 130.524 184.513V217.846V251.179C146.13 251.179 160.375 251.234 171.965 249.674L167.519 216.638ZM103.61 33.2821H136.943C136.943 41.7452 130.013 51.4872 118 51.4872V18.1538V-15.1795C90.0906 -15.1795 70.2764 8.10861 70.2764 33.2821H103.61ZM118 0V-33.3333C80.5544 -33.3333 53.0081 -1.91793 53.0081 33.2821H86.3415H119.675C119.675 32.754 119.855 32.6285 119.766 32.7218C119.719 32.7717 119.555 32.9245 119.22 33.0735C118.857 33.235 118.416 33.3333 118 33.3333V0ZM118 18.1538V51.4872C105.987 51.4872 99.0569 41.7452 99.0569 33.2821H132.39H165.724C165.724 8.10864 145.909 -15.1795 118 -15.1795V18.1538ZM149.659 33.2821H182.992C182.992 -1.91792 155.446 -33.3333 118 -33.3333V0V33.3333C117.584 33.3333 117.143 33.235 116.78 33.0735C116.445 32.9245 116.281 32.7717 116.234 32.7218C116.145 32.6285 116.325 32.754 116.325 33.2821H149.659ZM218.732 81.6923H185.398C185.398 69.8859 194.906 57.4359 210.098 57.4359V90.7692V124.103C234.826 124.103 252.065 103.525 252.065 81.6923H218.732ZM210.098 108.923V142.256C244.363 142.256 269.333 113.55 269.333 81.6923H236H202.667C202.667 80.5484 203.131 79.1612 204.261 77.9734C205.419 76.7565 207.491 75.5897 210.098 75.5897V108.923ZM201.463 81.6923H234.797C234.797 93.4985 225.29 105.949 210.098 105.949V72.6154V39.2821C185.369 39.2821 168.13 59.8601 168.13 81.6923H201.463ZM210.098 54.4615V21.1282C175.832 21.1282 150.862 49.8338 150.862 81.6923H184.195H217.528C217.528 82.8357 217.064 84.2231 215.934 85.4112C214.776 86.6283 212.704 87.7949 210.098 87.7949V54.4615ZM210.098 72.6154V105.949C194.906 105.949 185.398 93.4986 185.398 81.6923H218.732H252.065C252.065 59.86 234.826 39.2821 210.098 39.2821V72.6154ZM236 81.6923H269.333C269.333 49.8338 244.363 21.1282 210.098 21.1282V54.4615V87.7949C207.492 87.7949 205.419 86.6283 204.261 85.4112C203.131 84.2231 202.667 82.8357 202.667 81.6923H236ZM25.9024 90.7692V57.4359C41.0947 57.4359 50.6016 69.8863 50.6016 81.6923H17.2683H-16.065C-16.065 103.524 1.17326 124.103 25.9024 124.103V90.7692ZM0 81.6923H-33.3333C-33.3333 113.55 -8.36417 142.256 25.9024 142.256V108.923V75.5897C28.5084 75.5897 30.581 76.7564 31.7387 77.9735C32.8688 79.1616 33.3333 80.5488 33.3333 81.6923H0ZM17.2683 81.6923H50.6016C50.6016 93.4983 41.0947 105.949 25.9024 105.949V72.6154V39.2821C1.17324 39.2821 -16.065 59.8603 -16.065 81.6923H17.2683ZM25.9024 54.4615V21.1282C-8.3638 21.1282 -33.3333 49.8342 -33.3333 81.6923H0H33.3333C33.3333 82.8354 32.8689 84.2227 31.7386 85.411C30.5806 86.6284 28.508 87.7949 25.9024 87.7949V54.4615ZM25.9024 72.6154V105.949C10.7102 105.949 1.20325 93.4983 1.20325 81.6923H34.5366H67.8699C67.8699 59.8603 50.6316 39.2821 25.9024 39.2821V72.6154ZM51.8049 81.6923H85.1382C85.1382 49.8342 60.1687 21.1282 25.9024 21.1282V54.4615V87.7949C23.2969 87.7949 21.2243 86.6284 20.0663 85.411C18.936 84.2227 18.4715 82.8354 18.4715 81.6923H51.8049ZM210.098 90.7692V57.4359C210.211 57.4359 210.298 57.4367 210.344 57.4371L209.994 90.7686L209.644 124.1C209.759 124.101 209.915 124.103 210.098 124.103V90.7692ZM209.794 108.921L209.395 142.252C209.462 142.252 209.763 142.256 210.098 142.256V108.923V75.5897C210.178 75.5897 210.232 75.5902 210.245 75.5903C210.252 75.5904 210.253 75.5904 210.244 75.5903C210.233 75.5902 210.22 75.59 210.192 75.5897L209.794 108.921ZM209.994 90.7686L210.4 57.4378C218.367 57.5347 225.107 61.3406 229.311 66.4559L203.559 87.6204L177.806 108.785C185.162 117.735 196.488 123.94 209.588 124.099L209.994 90.7686ZM190.491 99.4879L164.737 120.65C175.167 133.342 191.098 142.031 209.391 142.252L209.794 108.921L210.196 75.5897C213.053 75.6242 215.166 77.0122 216.245 78.3255L190.491 99.4879ZM203.559 87.6204L229.311 66.456C232.84 70.7502 234.797 76.1507 234.797 81.6923H201.463H168.13C168.13 91.7819 171.655 101.3 177.806 108.785L203.559 87.6204ZM184.195 81.6923H150.862C150.862 96.3238 155.994 110.011 164.738 120.651L190.491 99.4879L216.244 78.3245C217.153 79.4299 217.528 80.6503 217.528 81.6923H184.195ZM187.071 115.295L211.177 138.317C215.156 134.15 217.72 131.493 219.567 129.683C220.46 128.808 220.923 128.391 221.09 128.246C221.299 128.065 220.778 128.544 219.703 129.241L201.56 101.278L183.418 73.3143C179.054 76.1456 175.346 79.6776 172.909 82.0656C170.129 84.7889 166.785 88.273 162.965 92.2732L187.071 115.295ZM201.56 101.278L230.305 84.3999L221.234 68.9523L192.49 85.8303L163.745 102.708L172.816 118.156L201.56 101.278ZM192.49 85.8303L174.345 57.8681C165.37 63.6922 156.248 73.6835 150.776 79.4141L174.884 102.434L198.992 125.453C202.683 121.588 205.358 118.772 207.732 116.462C210.25 114.013 211.027 113.538 210.634 113.793L192.49 85.8303ZM34.5366 81.6923H1.20325C1.20325 76.1482 3.16127 70.7488 6.68806 66.4571L32.4412 87.6204L58.1944 108.784C64.3435 101.301 67.8699 91.7843 67.8699 81.6923H34.5366ZM45.5085 99.4879L71.2607 120.652C80.0055 110.012 85.1382 96.3239 85.1382 81.6923H51.8049H18.4715C18.4715 80.6503 18.8474 79.4293 19.7564 78.3234L45.5085 99.4879ZM61.1158 102.434L85.2235 79.4135C79.752 73.6835 70.6295 63.692 61.6544 57.8681L43.5099 85.8303L25.3653 113.793C24.9724 113.538 25.7499 114.014 28.2675 116.463C30.6416 118.772 33.3168 121.588 37.0081 125.454L61.1158 102.434ZM43.5099 85.8303L14.7651 68.9529L5.69507 84.4005L34.4399 101.278L63.1847 118.155L72.2547 102.708L43.5099 85.8303ZM34.4399 101.278L16.2958 129.24C15.221 128.543 14.7003 128.065 14.9101 128.246C15.0772 128.391 15.5407 128.809 16.4332 129.683C18.2802 131.493 20.8441 134.15 24.8225 138.316L48.9291 115.295L73.0357 92.2737C69.215 88.2729 65.8707 84.7888 63.091 82.0652C60.6534 79.6768 56.9462 76.1459 52.584 73.3154L34.4399 101.278ZM32.4412 87.6204L6.68826 66.4569C10.8918 61.3418 17.6315 57.5347 25.6009 57.4378L26.0065 90.7686L26.4121 124.099C39.5132 123.94 50.8389 117.734 58.1942 108.784L32.4412 87.6204ZM26.2062 108.921L26.6087 142.252C44.9004 142.031 60.8336 133.343 71.2634 120.649L45.5085 99.4879L19.7536 78.3267C20.8342 77.0116 22.9469 75.6242 25.8038 75.5897L26.2062 108.921ZM26.0065 90.7686L25.6584 57.4371C25.7031 57.4366 25.7895 57.4359 25.9024 57.4359V90.7692V124.103C26.0847 124.103 26.2404 124.101 26.3546 124.1L26.0065 90.7686ZM25.9024 108.923V142.256C26.237 142.256 26.5384 142.252 26.6053 142.252L26.2062 108.921L25.8072 75.5897C25.7796 75.59 25.7667 75.5902 25.7559 75.5903C25.7464 75.5904 25.7474 75.5904 25.7547 75.5903C25.7678 75.5902 25.8226 75.5897 25.9024 75.5897V108.923ZM35.9772 121.73L69.1375 118.338C68.5471 112.567 68.1714 108.839 67.9788 105.98L34.7209 108.221L1.46296 110.462C1.75066 114.732 2.26925 119.769 2.81697 125.122L35.9772 121.73ZM34.7209 108.221L67.9788 105.98C67.9342 105.317 67.9066 104.795 67.8903 104.395C67.8739 103.991 67.8703 103.746 67.8699 103.634C67.8694 103.516 67.8726 103.596 67.8612 103.833C67.8502 104.059 67.8196 104.56 67.7299 105.264L34.664 101.05L1.5981 96.8366C0.998635 101.541 1.19103 106.427 1.463 110.463L34.7209 108.221ZM34.664 101.05L39.3134 68.0429L22.198 65.632L17.5486 98.6395L12.8993 131.647L30.0147 134.058L34.664 101.05ZM17.5486 98.6395L-15.5174 94.4263C-16.3586 101.029 -16.0536 107.421 -15.7621 111.745L17.4958 109.504L50.7537 107.263C50.6487 105.705 50.6045 104.574 50.6018 103.727C50.599 102.861 50.6426 102.633 50.6146 102.853L17.5486 98.6395ZM17.4958 109.504L-15.7621 111.745C-15.4474 116.416 -14.8887 121.821 -14.3521 127.065L18.808 123.671L51.9682 120.278C51.3904 114.632 50.9735 110.526 50.7537 107.263L17.4958 109.504ZM132.39 33.2821H99.0569C99.0569 27.0424 102.482 20.7688 108.771 17.3958L124.525 46.7712L140.279 76.1466C155.942 67.7467 165.724 51.2621 165.724 33.2821H132.39ZM132.373 62.9422L148.129 92.3168C169.298 80.9622 182.992 58.4014 182.992 33.2821H149.659H116.325C116.325 33.4907 116.298 33.6252 116.276 33.7032C116.253 33.787 116.227 33.8378 116.214 33.8603C116.199 33.8855 116.204 33.8683 116.254 33.8196C116.305 33.7705 116.419 33.674 116.617 33.5675L132.373 62.9422ZM124.525 46.7712L108.769 17.3967C111.498 15.9328 114.683 15.0769 118 15.0769V48.4103V81.7436C126.051 81.7436 133.654 79.7005 140.281 76.1457L124.525 46.7712ZM118 66.5641V99.8974C128.844 99.8974 139.129 97.1436 148.128 92.3172L132.373 62.9422L116.618 33.5671C116.971 33.3777 117.471 33.2308 118 33.2308V66.5641ZM142.239 61.8451L171.685 46.2228C169.438 41.9873 166.887 37.1571 164.426 33.017L135.771 50.0465L107.116 67.076C108.572 69.526 110.29 72.7498 112.793 77.4673L142.239 61.8451ZM135.771 50.0465L117.47 22.1868L102.825 31.8071L121.127 59.6669L139.428 87.5266L154.073 77.9063L135.771 50.0465ZM121.127 59.6669L92.4738 76.6999C93.6487 78.6762 95.128 81.4406 97.71 86.308L127.157 70.6876L156.604 55.0671C154.291 50.7068 151.966 46.3123 149.78 42.6338L121.127 59.6669ZM118 48.4103V15.0769C121.317 15.0769 124.502 15.9328 127.231 17.3967L111.475 46.7712L95.7189 76.1457C102.346 79.7005 109.949 81.7436 118 81.7436V48.4103ZM103.627 62.9422L87.8721 92.3172C96.8709 97.1436 107.156 99.8974 118 99.8974V66.5641V33.2308C118.529 33.2308 119.029 33.3777 119.382 33.5671L103.627 62.9422ZM111.475 46.7712L127.229 17.3958C133.518 20.7688 136.943 27.0424 136.943 33.2821H103.61H70.2764C70.2764 51.2621 80.0582 67.7467 95.7207 76.1466L111.475 46.7712ZM86.3415 33.2821H53.0081C53.0081 58.4007 66.7011 80.9622 87.8719 92.3171L103.627 62.9422L119.382 33.5672C119.581 33.6737 119.694 33.7702 119.745 33.8195C119.796 33.8683 119.801 33.8856 119.786 33.8605C119.773 33.8381 119.747 33.7874 119.724 33.7035C119.702 33.6255 119.675 33.4909 119.675 33.2821H86.3415ZM108.843 70.6877L138.29 86.3079C140.872 81.4406 142.351 78.6761 143.526 76.6999L114.873 59.6669L86.2204 42.6338C84.0336 46.3124 81.7094 50.7068 79.3963 55.0675L108.843 70.6877ZM114.873 59.6669L133.175 31.8071L118.53 22.1868L100.229 50.0465L81.9271 77.9063L96.5718 87.5266L114.873 59.6669ZM100.229 50.0465L71.5736 33.017C69.1129 37.1577 66.5623 41.9874 64.3146 46.2246L93.7614 61.8451L123.208 77.4655C125.71 72.7497 127.428 69.5255 128.884 67.076L100.229 50.0465Z" fill="#9BBDA2" mask="url(#path-1-inside-1_189_19)"/>
<path d="M39.3337 184.696H196.667" stroke="#9BBDA2" stroke-width="20" stroke-linecap="round"/>
</svg>
