<svg width="76" height="66" viewBox="0 0 76 66" fill="none" xmlns="http://www.w3.org/2000/svg">
<path d="M3.50085 3.50085L4.51375 3.76929C9.56096 5.10695 12.0846 5.77575 13.528 7.36804C14.9714 8.9603 14.9714 11.0753 14.9714 15.3053V23.2609C14.9714 31.8592 14.9714 36.1584 18.3311 38.8296C21.6908 41.5009 27.098 41.5009 37.9126 41.5009H45.5597M68.5009 41.5009H60.8538" stroke="#F4ADBD" stroke-width="7" stroke-linecap="round"/>
<path d="M3.50085 3.50085L4.51375 3.76929C9.56096 5.10695 12.0846 5.77575 13.528 7.36804C14.9714 8.9603 14.9714 11.0753 14.9714 15.3053M18.3311 38.8296C21.6908 41.5009 27.098 41.5009 37.9126 41.5009" stroke="#F4DCDC" stroke-width="7" stroke-linecap="round"/>
<path d="M26.5391 53.5009C29.3217 53.5009 31.5774 55.5156 31.5774 58.0008C31.5774 60.486 29.3217 62.5008 26.5391 62.5008C23.7566 62.5008 21.5009 60.486 21.5009 58.0008C21.5009 55.5156 23.7566 53.5009 26.5391 53.5009Z" stroke="#F4ADBD" stroke-width="7"/>
<path d="M60.5391 53.5009C63.3216 53.5009 65.5774 55.5153 65.5774 58.0008C65.5774 60.486 63.3216 62.5008 60.5391 62.5008C57.7567 62.5008 55.5009 60.486 55.5009 58.0008C55.5009 55.5153 57.7567 53.5009 60.5391 53.5009Z" stroke="#F4ADBD" stroke-width="7"/>
<path d="M65.5775 58.0008C65.5775 60.486 63.3217 62.5008 60.5392 62.5008M31.5775 58.0008C31.5775 60.486 29.3217 62.5008 26.5392 62.5008" stroke="#F4DCDC" stroke-width="7" stroke-linecap="round"/>
<path d="M21.5009 10.5009H45.0482H60.0189C66.9317 10.5009 70.3878 10.5009 71.8837 12.1383C73.3793 13.7759 72.0176 16.0694 69.2945 20.6567L67.8527 23.0852C66.5815 25.2267 65.9457 26.2975 64.6819 26.8993C63.4181 27.5009 61.8044 27.5009 58.5771 27.5009H26.501" stroke="#F4ADBD" stroke-width="7" stroke-linecap="round"/>
<path d="M58.5771 27.5009C61.8045 27.5009 63.4181 27.5009 64.682 26.8993C65.9458 26.2975 66.5816 25.2267 67.8528 23.0852L69.2945 20.6567C72.0176 16.0694 73.3793 13.7759 71.8837 12.1383C70.3878 10.5009 66.9317 10.5009 60.0189 10.5009" stroke="#F4DCDC" stroke-width="7" stroke-linecap="round"/>
</svg>
