<svg width="586" height="457" viewBox="0 0 586 457" fill="none" xmlns="http://www.w3.org/2000/svg">
<circle cx="293" cy="251.5" r="205" fill="#477B91"/>
<path d="M222 252C222 265.531 211.031 276.5 197.5 276.5C183.969 276.5 173 265.531 173 252C173 238.469 183.969 227.5 197.5 227.5C211.031 227.5 222 238.469 222 252Z" fill="#477B91" stroke="#ECE4C0" stroke-width="21"/>
<path d="M318 252C318 265.531 307.031 276.5 293.5 276.5C279.969 276.5 269 265.531 269 252C269 238.469 279.969 227.5 293.5 227.5C307.031 227.5 318 238.469 318 252Z" fill="#477B91" stroke="#ECE4C0" stroke-width="21"/>
<path d="M414 252C414 265.531 403.031 276.5 389.5 276.5C375.969 276.5 365 265.531 365 252C365 238.469 375.969 227.5 389.5 227.5C403.031 227.5 414 238.469 414 252Z" fill="#477B91" stroke="#ECE4C0" stroke-width="21"/>
<circle cx="293" cy="251.5" r="205" fill="#477B91"/>
<path d="M222 252C222 265.531 211.031 276.5 197.5 276.5C183.969 276.5 173 265.531 173 252C173 238.469 183.969 227.5 197.5 227.5C211.031 227.5 222 238.469 222 252Z" fill="#477B91" stroke="#ECE4C0" stroke-width="21"/>
<path d="M318 252C318 265.531 307.031 276.5 293.5 276.5C279.969 276.5 269 265.531 269 252C269 238.469 279.969 227.5 293.5 227.5C307.031 227.5 318 238.469 318 252Z" fill="#477B91" stroke="#ECE4C0" stroke-width="21"/>
<path d="M414 252C414 265.531 403.031 276.5 389.5 276.5C375.969 276.5 365 265.531 365 252C365 238.469 375.969 227.5 389.5 227.5C403.031 227.5 414 238.469 414 252Z" fill="#477B91" stroke="#ECE4C0" stroke-width="21"/>
<path d="M533 268.5C533 128.772 425.548 15.5 293 15.5C160.452 15.5 53 128.772 53 268.5" stroke="#376072" stroke-width="31" stroke-linecap="round"/>
<line x1="33" y1="192.5" x2="33" y2="281.5" stroke="#376072" stroke-width="66" stroke-linecap="round"/>
<line x1="33" y1="192.5" x2="33" y2="281.5" stroke="#376072" stroke-width="66" stroke-linecap="round"/>
<line x1="553" y1="192.5" x2="553" y2="281.5" stroke="#376072" stroke-width="66" stroke-linecap="round"/>
<line x1="553" y1="192.5" x2="553" y2="281.5" stroke="#376072" stroke-width="66" stroke-linecap="round"/>
</svg>
