<svg width="578" height="457" viewBox="0 0 578 457" fill="none" xmlns="http://www.w3.org/2000/svg">
<path d="M218 252C218 265.531 207.031 276.5 193.5 276.5C179.969 276.5 169 265.531 169 252C169 238.469 179.969 227.5 193.5 227.5C207.031 227.5 218 238.469 218 252Z" fill="#F4ADBD" stroke="#6C0820" stroke-width="21"/>
<path d="M314 252C314 265.531 303.031 276.5 289.5 276.5C275.969 276.5 265 265.531 265 252C265 238.469 275.969 227.5 289.5 227.5C303.031 227.5 314 238.469 314 252Z" fill="#F4ADBD" stroke="#6C0820" stroke-width="21"/>
<path d="M410 252C410 265.531 399.031 276.5 385.5 276.5C371.969 276.5 361 265.531 361 252C361 238.469 371.969 227.5 385.5 227.5C399.031 227.5 410 238.469 410 252Z" fill="#F4ADBD" stroke="#6C0820" stroke-width="21"/>
<circle cx="289" cy="251.5" r="205" fill="#F4ADBD"/>
<path d="M218 252C218 265.531 207.031 276.5 193.5 276.5C179.969 276.5 169 265.531 169 252C169 238.469 179.969 227.5 193.5 227.5C207.031 227.5 218 238.469 218 252Z" fill="#F4ADBD" stroke="#6C0820" stroke-width="21"/>
<path d="M314 252C314 265.531 303.031 276.5 289.5 276.5C275.969 276.5 265 265.531 265 252C265 238.469 275.969 227.5 289.5 227.5C303.031 227.5 314 238.469 314 252Z" fill="#F4ADBD" stroke="#6C0820" stroke-width="21"/>
<path d="M410 252C410 265.531 399.031 276.5 385.5 276.5C371.969 276.5 361 265.531 361 252C361 238.469 371.969 227.5 385.5 227.5C399.031 227.5 410 238.469 410 252Z" fill="#F4ADBD" stroke="#6C0820" stroke-width="21"/>
<circle cx="289" cy="251.5" r="205" fill="#6C0820"/>
<mask id="path-9-inside-1_0_1" fill="white">
<path d="M494 251.5C494 291.417 482.346 330.465 460.47 363.853C438.593 397.241 407.445 423.515 370.847 439.452C334.25 455.389 293.796 460.295 254.451 453.568C215.105 446.84 178.579 428.773 149.356 401.582L179.695 368.975C202.57 390.258 231.16 404.4 261.957 409.666C292.754 414.932 324.419 411.092 353.065 398.617C381.711 386.143 406.092 365.577 423.216 339.443C440.34 313.309 449.461 282.744 449.461 251.5H494Z"/>
</mask>
<path d="M494 251.5C494 291.417 482.346 330.465 460.47 363.853C438.593 397.241 407.445 423.515 370.847 439.452C334.25 455.389 293.796 460.295 254.451 453.568C215.105 446.84 178.579 428.773 149.356 401.582L179.695 368.975C202.57 390.258 231.16 404.4 261.957 409.666C292.754 414.932 324.419 411.092 353.065 398.617C381.711 386.143 406.092 365.577 423.216 339.443C440.34 313.309 449.461 282.744 449.461 251.5H494Z" stroke="#F4ADBD" stroke-width="46" mask="url(#path-9-inside-1_0_1)"/>
<path d="M218 252C218 265.531 207.031 276.5 193.5 276.5C179.969 276.5 169 265.531 169 252C169 238.469 179.969 227.5 193.5 227.5C207.031 227.5 218 238.469 218 252Z" fill="#6C0820" stroke="#F4DCDC" stroke-width="21"/>
<path d="M314 252C314 265.531 303.031 276.5 289.5 276.5C275.969 276.5 265 265.531 265 252C265 238.469 275.969 227.5 289.5 227.5C303.031 227.5 314 238.469 314 252Z" fill="#6C0820" stroke="#F4DCDC" stroke-width="21"/>
<path d="M410 252C410 265.531 399.031 276.5 385.5 276.5C371.969 276.5 361 265.531 361 252C361 238.469 371.969 227.5 385.5 227.5C399.031 227.5 410 238.469 410 252Z" fill="#6C0820" stroke="#F4DCDC" stroke-width="21"/>
<path d="M529 268.5C529 128.772 421.548 15.5 289 15.5C156.452 15.5 49 128.772 49 268.5" stroke="#5B86CB" stroke-width="31" stroke-linecap="round"/>
<path d="M529 268.5C529 128.772 421.548 15.5 289 15.5" stroke="#3E5D93" stroke-width="31" stroke-linecap="round"/>
<line x1="33" y1="192.5" x2="33" y2="281.5" stroke="#3E5D93" stroke-width="66" stroke-linecap="round"/>
<line x1="545" y1="192.5" x2="545" y2="281.5" stroke="#5B86CB" stroke-width="66" stroke-linecap="round"/>
<circle cx="167" cy="387.5" r="22" fill="#F4ADBD"/>
<circle cx="472" cy="249.5" r="22" fill="#F4ADBD"/>
</svg>
