<svg width="92" height="92" viewBox="0 0 92 92" fill="none" xmlns="http://www.w3.org/2000/svg">
<path d="M56.5 35.5001L35.5001 56.5M35.5 35.5L56.5 56.5" stroke="#254C69" stroke-width="7" stroke-linecap="round"/>
<path d="M88.5 46C88.5 66.0345 88.5 76.0522 82.2759 82.2759C76.0522 88.5 66.0345 88.5 46 88.5C25.9653 88.5 15.948 88.5 9.724 82.2759C3.5 76.0522 3.5 66.0345 3.5 46C3.5 25.9653 3.5 15.948 9.724 9.724C15.948 3.5 25.9653 3.5 46 3.5C66.0345 3.5 76.0522 3.5 82.2759 9.724C86.4145 13.8624 87.8013 19.6778 88.2658 29" stroke="#254C69" stroke-width="7" stroke-linecap="round"/>
</svg>
