<svg width="844" height="864" viewBox="0 0 844 864" fill="none" xmlns="http://www.w3.org/2000/svg">
<ellipse cx="422" cy="434.5" rx="173.5" ry="173" fill="#F4ADBD"/>
<mask id="path-2-inside-1_0_1" fill="white">
<path d="M545.221 355.628C557.702 347.788 574.389 351.343 580.44 364.783C595.213 397.594 599.334 434.331 591.843 469.888C582.52 514.137 555.955 553.054 517.816 578.332C479.678 603.61 432.989 613.247 387.715 605.184C351.608 598.754 318.683 581.472 293.301 556.06C282.635 545.381 285.643 528.093 298.016 519.449L300.273 517.872C312.35 509.435 328.797 512.537 339.886 522.236C356.132 536.444 376.165 546.133 397.905 550.005C428.516 555.456 460.084 548.941 485.871 531.849C511.658 514.758 529.62 488.444 535.923 458.526C540.328 437.618 538.795 416.107 531.75 396.263C526.704 382.047 530.075 365.142 542.849 357.118L545.221 355.628Z"/>
</mask>
<path d="M535.923 458.526L474.276 445.539L535.923 458.526ZM531.75 396.263L472.38 417.338L531.75 396.263ZM293.301 556.06L248.726 600.581H248.726L293.301 556.06ZM580.44 364.783L522.994 390.647C532.331 411.386 534.91 434.524 530.196 456.9L591.843 469.888L653.489 482.876C663.757 434.138 658.095 383.803 637.886 338.918L580.44 364.783ZM591.843 469.888L530.196 456.9C524.329 484.748 507.542 509.56 483.011 525.82L517.816 578.332L552.622 630.845C604.367 596.548 640.712 543.526 653.489 482.876L591.843 469.888ZM517.816 578.332L483.011 525.82C458.442 542.104 428.186 548.4 398.761 543.16L387.715 605.184L376.67 667.208C437.791 678.093 500.914 665.117 552.622 630.845L517.816 578.332ZM387.715 605.184L398.761 543.16C375.322 538.986 354.111 527.794 337.875 511.539L293.301 556.06L248.726 600.581C283.255 635.151 327.895 658.522 376.67 667.208L387.715 605.184ZM298.016 519.449L334.095 571.095L336.353 569.518L300.273 517.872L264.194 466.227L261.936 467.804L298.016 519.449ZM339.886 522.236L298.411 569.657C323.281 591.408 353.834 606.148 386.859 612.029L397.905 550.005L408.95 487.981C398.496 486.119 388.983 481.48 381.361 474.814L339.886 522.236ZM397.905 550.005L386.859 612.029C433.318 620.303 481.32 610.448 520.676 584.362L485.871 531.849L451.065 479.337C438.848 487.434 423.713 490.61 408.95 487.981L397.905 550.005ZM485.871 531.849L520.676 584.362C560.07 558.252 587.811 517.834 597.569 471.514L535.923 458.526L474.276 445.539C471.428 459.055 463.245 471.264 451.065 479.337L485.871 531.849ZM535.923 458.526L597.569 471.514C604.388 439.15 602.007 405.856 591.121 375.188L531.75 396.263L472.38 417.338C475.582 426.359 476.267 436.086 474.276 445.539L535.923 458.526ZM542.849 357.118L576.361 410.466L578.733 408.976L545.221 355.628L511.71 302.28L509.338 303.77L542.849 357.118ZM531.75 396.263L591.121 375.188C592.561 379.244 593.122 384.287 591.617 390.116C589.995 396.398 585.487 404.733 576.361 410.466L542.849 357.118L509.338 303.77C464.517 331.925 460.556 384.028 472.38 417.338L531.75 396.263ZM293.301 556.06L337.875 511.539C347.632 521.307 351.005 534.601 349.382 545.927C347.852 556.605 342.074 565.521 334.095 571.095L298.016 519.449L261.936 467.804C223.383 494.737 205.479 557.282 248.726 600.581L293.301 556.06ZM300.273 517.872L336.353 569.518C327.742 575.533 318.538 576.555 312.134 575.702C306.164 574.907 301.665 572.503 298.411 569.657L339.886 522.236L381.361 474.814C355.034 451.788 306.491 436.677 264.194 466.227L300.273 517.872ZM580.44 364.783L637.886 338.918C613.406 284.546 550.664 277.81 511.71 302.28L545.221 355.628L578.733 408.976C570.689 414.029 560.505 415.927 550.258 413.418C539.414 410.762 528.546 402.977 522.994 390.647L580.44 364.783Z" fill="#F4DCDC" mask="url(#path-2-inside-1_0_1)"/>
<path d="M31.5 429.5H110.989" stroke="#F4ADBD" stroke-width="63" stroke-linecap="round"/>
<path d="M421.5 832.329V751.5" stroke="#F4ADBD" stroke-width="63" stroke-linecap="round"/>
<path d="M640.5 620.5L654.143 634.373" stroke="#F4ADBD" stroke-width="63" stroke-linecap="round"/>
<path d="M203.143 238.373L189.5 224.5" stroke="#F4ADBD" stroke-width="63" stroke-linecap="round"/>
<path d="M421.5 79.5V160.329" stroke="#F4DCDC" stroke-width="63" stroke-linecap="round"/>
<path d="M70.5 429.5H149.989" stroke="#F4DCDC" stroke-width="63" stroke-linecap="round"/>
<path d="M693.5 429.5H772.989" stroke="#F4DCDC" stroke-width="63" stroke-linecap="round"/>
<path d="M626.5 252.373L640.144 238.5" stroke="#F4DCDC" stroke-width="63" stroke-linecap="round"/>
<path d="M216.143 252.373L202.5 238.5" stroke="#F4DCDC" stroke-width="63" stroke-linecap="round"/>
<path d="M421.5 780.329V699.5" stroke="#F4DCDC" stroke-width="63" stroke-linecap="round"/>
<path d="M217.144 607.5L203.5 621.373" stroke="#F4DCDC" stroke-width="63" stroke-linecap="round"/>
<path d="M626.5 607.5L640.143 621.373" stroke="#F4DCDC" stroke-width="63" stroke-linecap="round"/>
<path d="M421.5 31.5V112.329" stroke="#F4ADBD" stroke-width="63" stroke-linecap="round"/>
<path d="M732.5 429.5H811.989" stroke="#F4ADBD" stroke-width="63" stroke-linecap="round"/>
<path d="M640.5 238.373L654.144 224.5" stroke="#F4ADBD" stroke-width="63" stroke-linecap="round"/>
<path d="M203.144 621.5L189.5 635.373" stroke="#F4ADBD" stroke-width="63" stroke-linecap="round"/>
<circle cx="507.5" cy="320.5" r="32" fill="#F4DCDC"/>
</svg>
