<svg width="800" height="800" viewBox="0 0 800 800" fill="none" xmlns="http://www.w3.org/2000/svg">
<path d="M273.98 301L278.244 303.444C299.491 315.62 310.114 321.708 314.726 330.515C319.338 339.322 316.778 348.631 311.657 367.249L302.027 402.265C291.618 440.111 286.414 459.033 298.401 474.977C310.388 490.92 334.885 497.658 383.881 511.133L418.525 520.662M493.348 573.311L453.832 573.311" stroke="#477B91" stroke-width="20" stroke-linecap="round"/>
<path d="M326.921 540.899C342.426 540.899 354.995 553.234 354.995 568.449C354.995 583.665 342.426 596 326.921 596C311.417 596 298.848 583.665 298.848 568.449C298.848 553.234 311.417 540.899 326.921 540.899Z" stroke="#477B91" stroke-width="20"/>
<path d="M564.666 536.392C580.169 536.392 592.739 548.725 592.739 563.942C592.739 579.158 580.169 591.493 564.666 591.493C549.162 591.493 536.592 579.158 536.592 563.942C536.592 548.725 549.162 536.392 564.666 536.392Z" stroke="#477B91" stroke-width="20"/>
<path d="M316.967 353.461L359.817 365.246M306.25 420.36L456.533 461.693C470.237 465.462 477.088 467.346 483.086 466.524C489.085 465.702 492.909 462.354 500.556 455.659L509.229 448.066C525.611 433.724 533.802 426.554 529.172 418.552C524.541 410.551 509.866 406.515 480.514 398.442L416.949 380.959" stroke="#477B91" stroke-width="20" stroke-linecap="round"/>
<path d="M775 400C775 576.775 775 665.166 720.081 720.081C665.166 775 576.775 775 400 775C223.223 775 134.835 775 79.9176 720.081C25 665.166 25 576.775 25 400C25 223.223 25 134.835 79.9176 79.9176C134.835 25 223.223 25 400 25C576.775 25 665.166 25 720.081 79.9176C756.599 116.433 768.835 167.746 772.934 250" stroke="#254C69" stroke-width="50" stroke-linecap="round"/>
<path d="M384.5 162V226.15" stroke="#477B91" stroke-width="35" stroke-linecap="round"/>
<path d="M96 483H162.3" stroke="#477B91" stroke-width="35" stroke-linecap="round"/>
<path d="M648 483H714.3" stroke="#477B91" stroke-width="35" stroke-linecap="round"/>
<path d="M572.02 301.311L583.4 290.301" stroke="#477B91" stroke-width="35" stroke-linecap="round"/>
<path d="M196.98 301.311L185.601 290.301" stroke="#477B91" stroke-width="35" stroke-linecap="round"/>
</svg>
