<svg width="800" height="793" viewBox="0 0 800 793" fill="none" xmlns="http://www.w3.org/2000/svg">
<path d="M268.98 288L273.244 290.421C294.491 302.484 305.114 308.515 309.726 317.24C314.338 325.965 311.778 335.187 306.657 353.631L297.027 388.32C286.618 425.812 281.414 444.558 293.401 460.353C305.388 476.148 329.885 482.823 378.881 496.172L413.525 505.612M488.348 557.769L448.832 557.769" stroke="#5B86CB" stroke-width="28" stroke-linecap="round"/>
<path d="M321.921 525.66C337.426 525.66 349.995 537.88 349.995 552.953C349.995 568.027 337.426 580.247 321.921 580.247C306.417 580.247 293.848 568.027 293.848 552.953C293.848 537.88 306.417 525.66 321.921 525.66Z" stroke="#5B86CB" stroke-width="28"/>
<path d="M559.666 521.195C575.169 521.195 587.739 533.413 587.739 548.489C587.739 563.562 575.169 575.782 559.666 575.782C544.162 575.782 531.592 563.562 531.592 548.489C531.592 533.413 544.162 521.195 559.666 521.195Z" stroke="#5B86CB" stroke-width="28"/>
<path d="M311.967 339.972L354.817 351.647M301.25 406.246L451.533 447.194C465.237 450.927 472.088 452.794 478.086 451.98C484.085 451.165 487.909 447.848 495.556 441.216L504.229 433.694C520.611 419.486 528.802 412.382 524.172 404.455C519.541 396.529 504.866 392.53 475.514 384.533L411.949 367.213" stroke="#5B86CB" stroke-width="28" stroke-linecap="round"/>
<path d="M775 396.5C775 571.625 775 659.191 720.081 713.594C665.166 768 576.775 768 400 768C223.223 768 134.835 768 79.9176 713.594C25 659.191 25 571.625 25 396.5C25 221.373 25 133.81 79.9176 79.4051C134.835 25 223.223 25 400 25C576.775 25 665.166 25 720.081 79.4051C756.599 115.58 768.835 166.413 772.934 247.9" stroke="#5B86CB" stroke-width="50" stroke-linecap="round"/>
<path d="M720.081 713.594C665.166 768 576.775 768 400 768C324.187 768 264.631 768 217 763.709M400 25C223.223 25 134.835 25 79.9176 79.4051C25 133.81 25 221.373 25 396.5C25 478.782 25 541.734 30.6961 591M720.081 79.4051C756.599 115.58 768.835 166.413 772.934 247.9" stroke="#3E5D93" stroke-width="50" stroke-linecap="round"/>
<path d="M384.5 160.721V224.272" stroke="#3E5D93" stroke-width="35" stroke-linecap="round"/>
<path d="M96 478.725H162.3" stroke="#3E5D93" stroke-width="35" stroke-linecap="round"/>
<path d="M648 478.725H714.3" stroke="#3E5D93" stroke-width="35" stroke-linecap="round"/>
<path d="M572.02 298.732L583.4 287.825" stroke="#3E5D93" stroke-width="35" stroke-linecap="round"/>
<path d="M196.98 298.732L185.601 287.825" stroke="#3E5D93" stroke-width="35" stroke-linecap="round"/>
</svg>
