<svg width="220" height="202" viewBox="0 0 220 202" fill="none" xmlns="http://www.w3.org/2000/svg">
<path d="M57.0888 74.8196C76.0809 61.2309 97.756 56.4509 115.947 56.4509V28.8448C115.947 17.5651 115.947 11.9251 119.422 10.3645C122.896 8.80376 127.112 12.5507 135.54 20.0445L182.302 61.6191C200.767 78.0363 210 86.2454 210 96.82C210 107.396 200.767 115.604 182.302 132.022L135.54 173.596C127.112 181.089 122.896 184.837 119.422 183.276C115.947 181.716 115.947 176.076 115.947 164.796V137.19C73.5683 137.19 27.6579 157.375 10 191.015C10 162.383 14.4411 139.463 21.7731 121.242" stroke="#254C69" stroke-width="20" stroke-linecap="round" stroke-linejoin="round"/>
</svg>
