<svg width="517" height="495" viewBox="0 0 517 495" fill="none" xmlns="http://www.w3.org/2000/svg">
<rect x="117.639" y="42" width="61" height="284" transform="rotate(18.6117 117.639 42)" fill="#F4ADBD"/>
<rect x="60" y="287.283" width="61" height="160.113" transform="rotate(-21.4257 60 287.283)" fill="#F4ADBD"/>
<path d="M440.774 373.671C455.618 383.945 459.036 404.675 446.352 417.521C420.953 443.247 389.987 463.552 355.469 476.926C310.421 494.38 261.147 499.323 213.298 491.187C165.45 483.051 120.967 462.166 84.9504 430.927C48.9342 399.689 22.8445 359.363 9.67412 314.575C-3.49622 269.788 -3.2137 222.353 10.4893 177.712C24.1922 133.071 50.7606 93.0324 87.1465 62.1895C123.532 31.3466 168.262 10.9486 216.204 3.33549C253.52 -2.59025 291.606 -0.583487 327.799 9.05932C344.744 13.5738 352.39 32.4453 345.374 48.516V48.516C338.658 63.8986 320.961 70.9057 304.619 67.0765C279.232 61.1278 252.746 60.1281 226.757 64.255C190.777 69.9687 157.207 85.2773 129.9 108.425C102.592 131.572 82.6525 161.621 72.3685 195.124C62.0844 228.627 61.8724 264.227 71.7567 297.84C81.641 331.453 101.221 361.718 128.251 385.162C155.281 408.606 188.666 424.28 224.576 430.386C260.486 436.493 297.467 432.783 331.275 419.684C355.388 410.341 377.191 396.492 395.466 379.05C407.784 367.293 426.773 363.979 440.774 373.671V373.671Z" fill="#F4ADBD"/>
<path d="M428.762 371.259C433.741 377.849 434.319 386.878 429.477 393.57C408.962 421.929 380.808 441.066 351.138 455.588C317.652 471.978 280.878 476.932 245.082 469.876C209.285 462.82 175.933 444.042 148.894 415.721C121.854 387.4 102.235 350.696 92.3123 309.866C82.3893 269.037 82.5691 225.754 92.8306 185.039C103.092 144.324 123.015 107.845 150.288 79.8322C177.562 51.8196 211.068 33.4216 246.922 26.772C276.457 21.2942 306.589 23.9742 334.934 34.4639C345.381 38.33 349.95 50.1593 346.105 60.6139C341.589 72.8917 327.389 78.3274 314.85 74.5964C294.708 68.6029 273.65 67.4312 252.958 71.2689C224.3 76.584 197.517 91.2899 175.717 113.681C153.917 136.072 137.992 165.23 129.79 197.775C121.588 230.319 121.444 264.915 129.376 297.551C137.307 330.187 152.989 359.525 174.602 382.163C196.216 404.8 222.874 419.809 251.487 425.45C280.1 431.09 309.494 427.13 336.26 414.029C355.09 404.813 376.005 389.282 392.547 371.206C402.248 360.606 420.101 359.793 428.762 371.259Z" fill="#F4DCDC"/>
</svg>
