<svg width="263" height="275" viewBox="0 0 263 275" fill="none" xmlns="http://www.w3.org/2000/svg">
<path d="M26.4909 185.643L130.538 109.309C134.072 109.402 137.84 110.554 141.464 112.65C146.995 115.849 151.862 122.127 161.596 134.685C171.331 147.242 176.198 153.521 177.917 159.675C179.044 163.707 179.22 167.643 178.429 171.088C177.22 176.347 172.789 179.783 163.924 186.654L78.5676 252.822C69.7037 259.693 65.2718 263.129 59.8773 262.988C56.3438 262.896 52.5753 261.744 48.9521 259.648C43.4205 256.449 38.5534 250.17 28.819 237.613C19.0846 225.055 14.2175 218.777 12.4985 212.622C11.3716 208.591 11.1956 204.654 11.9868 201.209C13.1952 195.95 17.6271 192.514 26.4909 185.643Z" stroke="#5B86CB" stroke-width="23" stroke-linecap="round"/>
<path d="M203.12 114.583L150.787 154.797C141.894 161.63 137.447 165.047 132.053 164.883C128.52 164.776 124.757 163.608 121.142 161.496C115.624 158.274 110.784 151.975 101.103 139.376C91.4221 126.777 86.5818 120.478 84.8889 114.317C83.7791 110.28 83.6199 106.343 84.4257 102.901C85.6564 97.6473 90.1028 94.2306 98.9958 87.3971L184.633 21.5923C193.526 14.7587 197.973 11.342 203.366 11.5059C206.9 11.6132 210.663 12.7813 214.278 14.8925C219.795 18.1153 224.636 24.4144 234.317 37.0131C243.997 49.6117 248.838 55.9108 250.531 62.0723C251.64 66.1087 251.8 70.0458 250.994 73.4877C250.005 77.708 246.942 80.7429 241.166 85.3155" stroke="#5B86CB" stroke-width="23" stroke-linecap="round"/>
<path d="M132.053 164.883C128.52 164.776 124.757 163.608 121.142 161.496C116.208 161.496 99.8887 137.412 90.2078 124.813M98.9958 87.3971L184.633 21.5923M250.531 62.0723C251.64 66.1087 251.8 70.0458 250.994 73.4877C250.006 77.708 246.942 80.7429 241.166 85.3156" stroke="#3E5D93" stroke-width="23" stroke-linecap="round"/>
<path d="M28.819 237.612C38.5533 250.17 43.4204 256.448 48.9521 259.647C52.5752 261.743 56.3437 262.895 59.8773 262.988C65.2718 263.129 69.7037 259.693 78.5675 252.822M178.429 171.088C179.22 167.643 179.044 163.706 177.917 159.675C176.198 153.52 171.331 147.242 161.596 134.684C151.862 122.127 146.995 115.848 141.464 112.649C137.84 110.553 134.072 109.401 130.538 109.309" stroke="#3E5D93" stroke-width="23" stroke-linecap="round"/>
</svg>
