<svg width="71" height="30" viewBox="0 0 71 30" fill="none" xmlns="http://www.w3.org/2000/svg">
<path d="M5.23828 10.4962C5.4375 10.4962 5.53711 10.5743 5.53711 10.7306C5.53711 10.8009 5.49414 10.8634 5.4082 10.9181C5.32227 10.9728 5.17383 11.0001 4.96289 11.0001H0L0 2.70911C1.53906 2.70911 3.07812 2.70911 4.61719 2.70911L5.09766 2.69154C5.39062 2.69154 5.53711 2.77747 5.53711 2.94935C5.53711 3.01575 5.51172 3.07825 5.46094 3.13685C5.41406 3.19154 5.35938 3.21888 5.29688 3.21888C5.19531 3.21888 5.08789 3.20716 4.97461 3.18372C4.80664 3.14857 4.57617 3.13099 4.2832 3.13099H2.98828V4.9181H4.05469C4.05469 4.9181 4.29492 4.90833 4.77539 4.8888C4.86133 4.8888 4.93359 4.91029 4.99219 4.95325C5.05469 4.99232 5.08594 5.04896 5.08594 5.12318C5.08594 5.28724 4.97656 5.36927 4.75781 5.36927L4.50586 5.36341C4.37695 5.35169 4.26953 5.34583 4.18359 5.34583H2.98828L2.98828 10.5724H4.2832C4.57227 10.5724 4.77734 10.5607 4.89844 10.5372C5.04297 10.5099 5.15625 10.4962 5.23828 10.4962ZM7.41375 4.74232H10.068L11.6618 8.02943L12.6637 6.03724C12.8708 5.61146 12.9997 5.29505 13.0505 5.08802C13.1052 4.88099 13.1579 4.75404 13.2087 4.70716C13.2634 4.66029 13.3278 4.63685 13.402 4.63685C13.4802 4.63685 13.5407 4.66224 13.5837 4.71302C13.6266 4.7638 13.6481 4.81458 13.6481 4.86536C13.6481 4.91615 13.6423 4.96693 13.6305 5.01771C13.6227 5.06849 13.6052 5.13685 13.5778 5.22279C13.5192 5.38294 13.3962 5.66029 13.2087 6.05482L10.6305 11.2638L7.41375 4.74232ZM21.431 9.5763C21.5834 9.5763 21.6595 9.64661 21.6595 9.78724C21.6595 9.89271 21.5912 10.0177 21.4545 10.1622C20.8373 10.7951 19.9916 11.1115 18.9173 11.1115C17.9525 11.1115 17.14 10.8204 16.4798 10.2384C15.7963 9.63294 15.4545 8.86732 15.4545 7.94154C15.4545 6.99622 15.763 6.21888 16.3802 5.6095C17.0326 4.96107 17.8998 4.63685 18.9818 4.63685C19.849 4.63685 20.5775 4.90052 21.1673 5.42786C21.8041 5.99427 22.1224 6.73841 22.1224 7.66029C22.1224 7.7931 22.1185 7.93372 22.1107 8.08216H18.2435V10.5958C18.5091 10.6505 18.808 10.6779 19.14 10.6779C19.8431 10.6779 20.4427 10.4454 20.9388 9.9806C21.0404 9.87904 21.1127 9.79896 21.1556 9.74036C21.2455 9.63099 21.3373 9.5763 21.431 9.5763ZM19.8666 5.17591C19.6127 5.10169 19.3255 5.06458 19.0052 5.06458C18.6849 5.06458 18.431 5.08607 18.2435 5.12904V7.65443H19.8666V5.17591ZM29.2666 5.38099C29.169 5.31849 29.0635 5.28724 28.9502 5.28724C28.837 5.28724 28.7198 5.31458 28.5987 5.36927C28.4776 5.42005 28.3506 5.49232 28.2178 5.58607C27.9405 5.78529 27.6846 6.05091 27.4502 6.38294V11.0001H24.9307V4.74232H27.4502V5.74427C28.1182 5.00599 28.8741 4.63685 29.7178 4.63685C31.0967 4.63685 31.7862 5.30482 31.7862 6.64075V11.0001L29.2666 11.0001V5.38099ZM37.4362 11.1115C35.905 11.1115 35.1394 10.4122 35.1394 9.0138L35.1335 5.17005L34.4597 5.19935C34.2487 5.19935 34.1433 5.11927 34.1433 4.95911C34.1433 4.79896 34.2566 4.71888 34.4831 4.71888L35.0456 4.74232H35.1335V3.83411L37.6472 2.70911V4.74232H38.4323L38.989 4.71888C39.2195 4.71888 39.3347 4.80091 39.3347 4.96497C39.3347 5.03919 39.3015 5.09779 39.2351 5.14075C39.1726 5.17982 39.1003 5.19935 39.0183 5.19935L38.2917 5.17005H37.6472V10.6779C38.1042 10.6701 38.4851 10.5392 38.7898 10.2853C38.9343 10.1759 39.0359 10.0353 39.0945 9.86341C39.157 9.69154 39.2116 9.58216 39.2585 9.53529C39.3093 9.4845 39.3679 9.45911 39.4343 9.45911C39.5007 9.45911 39.5573 9.48646 39.6042 9.54115C39.6511 9.59193 39.6745 9.65443 39.6745 9.72865C39.6745 9.79896 39.655 9.87904 39.6159 9.96888C39.5769 10.0548 39.5183 10.1466 39.4402 10.2443C39.2644 10.463 39.0612 10.6368 38.8308 10.7658C38.4128 10.9962 37.948 11.1115 37.4362 11.1115Z" fill="#F4DCDC"/>
<path d="M54.2383 20.4962C54.4375 20.4962 54.5371 20.5743 54.5371 20.7306C54.5371 20.8009 54.4941 20.8634 54.4082 20.9181C54.3223 20.9728 54.1738 21.0001 53.9629 21.0001H49V12.7091C50.5391 12.7091 52.0781 12.7091 53.6172 12.7091L54.0977 12.6915C54.3906 12.6915 54.5371 12.7775 54.5371 12.9493C54.5371 13.0158 54.5117 13.0783 54.4609 13.1368C54.4141 13.1915 54.3594 13.2189 54.2969 13.2189C54.1953 13.2189 54.0879 13.2072 53.9746 13.1837C53.8066 13.1486 53.5762 13.131 53.2832 13.131H51.9883V14.9181H53.0547C53.0547 14.9181 53.2949 14.9083 53.7754 14.8888C53.8613 14.8888 53.9336 14.9103 53.9922 14.9533C54.0547 14.9923 54.0859 15.049 54.0859 15.1232C54.0859 15.2872 53.9766 15.3693 53.7578 15.3693L53.5059 15.3634C53.377 15.3517 53.2695 15.3458 53.1836 15.3458H51.9883V20.5724H53.2832C53.5723 20.5724 53.7773 20.5607 53.8984 20.5372C54.043 20.5099 54.1562 20.4962 54.2383 20.4962ZM57.404 14.7423H59.9235V16.5822C60.193 15.9142 60.4821 15.424 60.7907 15.1115C61.1032 14.7951 61.4157 14.6368 61.7282 14.6368C61.904 14.6368 62.0427 14.6837 62.1442 14.7775C62.2497 14.8673 62.3024 14.9689 62.3024 15.0822C62.3024 15.1954 62.2868 15.2853 62.2555 15.3517C62.2243 15.4181 62.1833 15.4747 62.1325 15.5216C62.027 15.6193 61.9274 15.6681 61.8337 15.6681C61.6852 15.6681 61.5759 15.6525 61.5055 15.6212C61.3845 15.5665 61.277 15.5392 61.1833 15.5392C61.0895 15.5392 60.9704 15.6154 60.8259 15.7677C60.6813 15.9161 60.5427 16.1232 60.4098 16.3888C60.0856 17.0372 59.9235 17.7404 59.9235 18.4982V21.0001H57.404V14.7423ZM68.3041 20.6134C67.8041 20.9454 67.2494 21.1115 66.64 21.1115C65.8314 21.1115 65.183 20.9083 64.6947 20.5021C64.1869 20.0841 63.933 19.504 63.933 18.7618C63.933 18.1056 64.1849 17.5665 64.6888 17.1447C65.2045 16.7189 65.8822 16.506 66.722 16.506C67.2845 16.506 67.8119 16.6134 68.3041 16.8283V15.2169C67.9486 15.1154 67.6341 15.0646 67.3607 15.0646C67.0912 15.0646 66.8627 15.0763 66.6752 15.0997C66.4877 15.1232 66.3099 15.1583 66.142 15.2052C65.7787 15.3068 65.5033 15.4435 65.3158 15.6154C65.2064 15.7169 65.1068 15.7677 65.017 15.7677C64.9271 15.7677 64.8588 15.7462 64.8119 15.7033C64.765 15.6564 64.7416 15.6056 64.7416 15.5509C64.7416 15.4962 64.7513 15.4474 64.7709 15.4044C64.7904 15.3576 64.8275 15.3107 64.8822 15.2638C64.9994 15.1622 65.1947 15.0607 65.4681 14.9591C66.0345 14.7443 66.6029 14.6368 67.1732 14.6368C68.9076 14.6368 70.015 15.0509 70.4955 15.879C70.7064 16.2462 70.8119 16.7286 70.8119 17.3263V21.0001H68.3041V20.6134ZM68.3041 17.2853C67.8119 17.047 67.3216 16.9279 66.8334 16.9279C66.7552 16.9279 66.681 16.9337 66.6107 16.9454V20.672C66.6302 20.6759 66.6517 20.6779 66.6752 20.6779C66.6986 20.6779 66.722 20.6779 66.7455 20.6779C67.2806 20.6779 67.8002 20.4884 68.3041 20.1095V17.2853Z" fill="#F4DCDC"/>
<path d="M48.5625 1.00013L34.0625 24.0001" stroke="#6C0820" stroke-width="2" stroke-linecap="round"/>
<path d="M49.0625 7.00013L35.0625 29.0001" stroke="#F4ADBD" stroke-width="2" stroke-linecap="round"/>
</svg>
