<svg width="90" height="37" viewBox="0 0 90 37" fill="none" xmlns="http://www.w3.org/2000/svg">
<path d="M60.502 2.00024L45.502 25.0002" stroke="#6C0820" stroke-width="4" stroke-linecap="round"/>
<path d="M61.502 13.0002L47.502 35.0002" stroke="#F4ADBD" stroke-width="4" stroke-linecap="round"/>
<path d="M10.0039 2.93286C9.83464 2.98364 9.63574 3.08732 9.40723 3.2439C9.18294 3.40047 8.96077 3.54858 8.74072 3.68823C8.5249 3.82365 8.34505 3.89136 8.20117 3.89136H3.82764L3.12939 7.28735H8.06152C7.9388 7.31698 7.79915 7.37834 7.64258 7.47144C7.49023 7.56453 7.35905 7.64705 7.24902 7.71899C7.16439 7.77401 7.05436 7.84172 6.91895 7.92212C6.78776 8.00252 6.65446 8.07446 6.51904 8.13794C6.38363 8.20142 6.26725 8.23315 6.16992 8.23315H2.93896L2.48828 10.5056C2.45866 10.6537 2.40999 10.8378 2.34229 11.0579C2.27458 11.2737 2.18783 11.4768 2.08203 11.6672C1.97624 11.8577 1.8514 11.9867 1.70752 12.0544H6.92529C7.14535 12.0544 7.40137 12.01 7.69336 11.9211C7.98958 11.8323 8.24561 11.7519 8.46143 11.6799C8.35986 11.7646 8.18213 11.8788 7.92822 12.0227C7.67855 12.1666 7.40348 12.3147 7.10303 12.467C6.80257 12.6152 6.52327 12.7421 6.26514 12.8479C6.007 12.9495 5.81868 13.0002 5.7002 13.0002H0C0.325846 12.6575 0.56071 12.321 0.70459 11.991C0.852702 11.6609 0.973307 11.2673 1.06641 10.8103L1.58057 8.23315H0.609375L1.74561 7.47144L2.46289 3.89136H1.16162C1.2251 3.84481 1.33512 3.77075 1.4917 3.66919C1.65251 3.56763 1.82601 3.45972 2.01221 3.34546C2.1984 3.2312 2.36768 3.13387 2.52002 3.05347C2.6766 2.97306 2.78451 2.93286 2.84375 2.93286H10.0039ZM12.97 13.3748C12.9066 12.6003 12.8219 11.828 12.7161 11.0579C12.6103 10.2834 12.4707 9.5175 12.2972 8.76001C12.2549 8.58651 12.1977 8.37703 12.1258 8.13159C12.0539 7.88615 11.9502 7.67033 11.8148 7.48413C11.6793 7.2937 11.4974 7.19849 11.2689 7.19849C11.1673 7.19849 11.0615 7.21965 10.9515 7.26196C10.8415 7.30005 10.7441 7.34237 10.6595 7.38892C10.833 7.21541 11.0277 7.03979 11.2435 6.86206C11.4635 6.68433 11.6963 6.5341 11.9417 6.41138C12.1872 6.28866 12.4411 6.22729 12.7034 6.22729C12.8812 6.22729 13.0441 6.3479 13.1922 6.58911C13.3403 6.83032 13.4715 7.14771 13.5858 7.54126C13.7043 7.93058 13.8079 8.35588 13.8968 8.81714C13.9899 9.27417 14.0682 9.72485 14.1317 10.1692C14.1951 10.6135 14.2459 11.0071 14.284 11.3499C14.3263 11.6926 14.3559 11.9402 14.3729 12.0925C14.5464 11.919 14.758 11.6947 15.0076 11.4197C15.2573 11.1404 15.5154 10.8336 15.7821 10.4993C16.0487 10.165 16.2962 9.8243 16.5247 9.47729C16.7532 9.13029 16.9394 8.79598 17.0833 8.47437C17.2272 8.14852 17.2991 7.86076 17.2991 7.61108C17.2991 7.48413 17.2716 7.38257 17.2166 7.3064C17.1616 7.22599 17.0643 7.18579 16.9246 7.18579C16.785 7.18579 16.6453 7.21541 16.5057 7.27466C16.7511 7.1731 16.9648 7.04191 17.1468 6.8811C17.333 6.71606 17.5255 6.56795 17.7244 6.43677C17.9233 6.30558 18.1688 6.23999 18.4608 6.23999C18.6046 6.23999 18.7062 6.28019 18.7654 6.3606C18.8289 6.441 18.8607 6.54679 18.8607 6.67798C18.8607 6.77108 18.8501 6.86418 18.8289 6.95728C18.7231 7.44816 18.52 7.94539 18.2196 8.44897C17.9233 8.94832 17.5636 9.43921 17.1404 9.92163C16.7173 10.3998 16.2624 10.8547 15.7757 11.2864C15.2933 11.718 14.8087 12.1116 14.3221 12.467C13.8397 12.8225 13.389 13.1251 12.97 13.3748ZM22.6076 10.3914C22.6329 10.8315 22.7599 11.1806 22.9884 11.4387C23.2169 11.6926 23.5068 11.8767 23.858 11.991C24.2135 12.101 24.5838 12.156 24.9689 12.156C25.3201 12.156 25.6714 12.1158 26.0226 12.0354C26.3781 11.9508 26.7187 11.8429 27.0446 11.7117C26.7357 11.9867 26.376 12.2301 25.9655 12.4417C25.5592 12.649 25.1339 12.8119 24.6896 12.9304C24.2495 13.0447 23.8221 13.1018 23.4074 13.1018C22.9842 13.1018 22.597 13.0066 22.2457 12.8162C21.8987 12.6215 21.6194 12.357 21.4079 12.0227C21.2005 11.6842 21.0968 11.2991 21.0968 10.8674C21.0968 10.7193 21.1116 10.5754 21.1413 10.4358C21.2259 10.0168 21.3952 9.6106 21.6491 9.21704C21.9072 8.82349 22.2161 8.45532 22.5758 8.11255C22.9355 7.76978 23.3164 7.4672 23.7184 7.20483C24.1204 6.94246 24.5076 6.73299 24.88 6.57642C25.1974 6.441 25.5254 6.33521 25.8639 6.25903C26.2067 6.17863 26.5516 6.13843 26.8986 6.13843C27.1525 6.13843 27.381 6.21248 27.5841 6.3606C27.7915 6.50448 27.8952 6.71395 27.8952 6.98901C27.8952 7.23022 27.7936 7.47144 27.5905 7.71265C27.3873 7.94963 27.1186 8.18026 26.7843 8.40454C26.45 8.62882 26.084 8.84253 25.6862 9.04565C25.2884 9.24455 24.8906 9.43075 24.4928 9.60425C24.095 9.77775 23.729 9.93221 23.3947 10.0676C23.0646 10.1988 22.8022 10.3067 22.6076 10.3914ZM25.1149 7.12866C24.5478 7.12866 24.0823 7.26831 23.7184 7.54761C23.3545 7.82267 23.0815 8.18237 22.8996 8.62671C22.7218 9.07104 22.6245 9.545 22.6076 10.0486C22.7514 10.019 22.9694 9.95337 23.2614 9.85181C23.5576 9.74601 23.8813 9.61694 24.2326 9.4646C24.588 9.30802 24.9266 9.14087 25.2482 8.96313C25.5698 8.78117 25.8343 8.5992 26.0416 8.41724C26.2532 8.23527 26.359 8.06388 26.359 7.90308C26.359 7.72957 26.285 7.58569 26.1369 7.47144C25.9887 7.35295 25.8152 7.26619 25.6163 7.21118C25.4217 7.15617 25.2545 7.12866 25.1149 7.12866ZM37.4438 12.0544C37.2491 12.2026 37.0376 12.3591 36.809 12.5242C36.5848 12.685 36.3499 12.8225 36.1045 12.9368C35.859 13.0468 35.6072 13.1018 35.3491 13.1018C34.9132 13.1018 34.6953 12.8796 34.6953 12.4353C34.6953 12.2914 34.708 12.1497 34.7334 12.01C34.763 11.8661 34.7926 11.7244 34.8222 11.5847C34.9069 11.1488 34.9957 10.7151 35.0888 10.2834C35.1819 9.84757 35.2708 9.4117 35.3554 8.97583C35.3724 8.88273 35.3851 8.78963 35.3935 8.69653C35.4062 8.5992 35.4126 8.50187 35.4126 8.40454C35.4126 7.9856 35.2983 7.67879 35.0698 7.48413C34.8455 7.28524 34.5302 7.18579 34.124 7.18579C33.8362 7.18579 33.5971 7.25562 33.4067 7.39526C33.2205 7.53491 33.0682 7.71688 32.9497 7.94116C32.8312 8.16545 32.7381 8.40243 32.6704 8.6521C32.6027 8.90177 32.5455 9.13875 32.499 9.36304L32.0546 11.5974C32.0462 11.6397 32.042 11.682 32.042 11.7244C32.042 11.8471 32.0758 11.9571 32.1435 12.0544C32.2155 12.1518 32.317 12.2004 32.4482 12.2004C32.5074 12.2004 32.5646 12.1941 32.6196 12.1814C32.6746 12.1645 32.7296 12.1454 32.7846 12.1243C32.6281 12.2301 32.4376 12.3634 32.2133 12.5242C31.9933 12.685 31.7669 12.8289 31.5341 12.9558C31.3014 13.0828 31.0898 13.1462 30.8994 13.1462C30.7513 13.1462 30.6455 13.1018 30.582 13.0129C30.5227 12.9283 30.4931 12.8183 30.4931 12.6829C30.4931 12.6152 30.4974 12.5474 30.5058 12.4797C30.5185 12.412 30.5312 12.3464 30.5439 12.283C30.6793 11.572 30.8253 10.8632 30.9819 10.1565C31.1385 9.44979 31.2845 8.74097 31.4199 8.03003C31.4326 7.97502 31.441 7.92 31.4453 7.86499C31.4537 7.80998 31.458 7.75496 31.458 7.69995C31.458 7.48413 31.3966 7.3339 31.2739 7.24927C31.1512 7.1604 30.9882 7.11597 30.7851 7.11597C30.6793 7.11597 30.5735 7.12655 30.4677 7.14771C30.3619 7.16886 30.2604 7.19637 30.163 7.23022C30.3873 7.14982 30.5756 7.05037 30.728 6.93188C30.8846 6.80916 31.0327 6.69067 31.1723 6.57642C31.3162 6.45793 31.4812 6.35848 31.6674 6.27808C31.8536 6.19767 32.0906 6.15747 32.3784 6.15747C32.7931 6.15747 33.0004 6.3606 33.0004 6.76685C33.0004 6.86418 32.9899 6.96362 32.9687 7.06519C32.9518 7.16252 32.9306 7.25985 32.9052 7.35718C33.1549 7.17521 33.4342 6.99748 33.7431 6.82397C34.052 6.64624 34.3715 6.50024 34.7016 6.38599C35.0317 6.27173 35.3554 6.2146 35.6728 6.2146C36.0156 6.2146 36.3224 6.31193 36.5932 6.50659C36.8683 6.70125 37.0058 6.98478 37.0058 7.35718C37.0058 7.44604 36.9974 7.53703 36.9804 7.63013L36.2885 11.0833C36.2758 11.1594 36.2631 11.2356 36.2504 11.3118C36.242 11.3837 36.2378 11.4578 36.2378 11.5339C36.2378 11.9486 36.4536 12.156 36.8852 12.156C36.9783 12.156 37.0714 12.1475 37.1645 12.1306C37.2576 12.1095 37.3507 12.0841 37.4438 12.0544ZM45.8626 5.98608C45.7779 5.99878 45.6679 6.05379 45.5325 6.15112C45.4013 6.24845 45.2574 6.3606 45.1009 6.48755C44.9485 6.61027 44.8004 6.71818 44.6565 6.81128C44.5169 6.90015 44.4005 6.94458 44.3074 6.94458H43.4378L42.6888 10.6833C42.6676 10.7891 42.6485 10.8971 42.6316 11.0071C42.6189 11.1171 42.6126 11.225 42.6126 11.3308C42.6126 11.6524 42.6951 11.8831 42.8601 12.0227C43.0294 12.1581 43.2685 12.2258 43.5774 12.2258C43.7382 12.2258 43.8948 12.2004 44.0471 12.1497C44.2037 12.0989 44.3518 12.0396 44.4915 11.9719C44.2207 12.3189 43.8694 12.5982 43.4378 12.8098C43.0061 13.0214 42.5681 13.1272 42.1238 13.1272C41.7599 13.1272 41.5017 13.0193 41.3494 12.8035C41.2013 12.5876 41.1272 12.3126 41.1272 11.9783C41.1272 11.864 41.1336 11.7498 41.1463 11.6355C41.159 11.5212 41.178 11.4091 41.2034 11.2991L42.073 6.94458H41.159L42.2317 6.22729L42.4095 5.23706C42.5914 5.11011 42.7734 4.98739 42.9554 4.8689C43.1416 4.75041 43.332 4.64038 43.5266 4.53882C43.6028 4.50073 43.679 4.46265 43.7552 4.42456C43.8356 4.38647 43.9075 4.33781 43.971 4.27856L43.6282 5.98608H45.8626Z" fill="#F4DCDC"/>
<path d="M73.0039 24.9329C72.8346 24.9836 72.6357 25.0873 72.4072 25.2439C72.1829 25.4005 71.9608 25.5486 71.7407 25.6882C71.5249 25.8236 71.3451 25.8914 71.2012 25.8914H66.8276L66.1294 29.2874H71.0615C70.9388 29.317 70.7992 29.3783 70.6426 29.4714C70.4902 29.5645 70.359 29.6471 70.249 29.719C70.1644 29.774 70.0544 29.8417 69.9189 29.9221C69.7878 30.0025 69.6545 30.0745 69.519 30.1379C69.3836 30.2014 69.2673 30.2332 69.1699 30.2332H65.939L65.4883 32.5056C65.4587 32.6537 65.41 32.8378 65.3423 33.0579C65.2746 33.2737 65.1878 33.4768 65.082 33.6672C64.9762 33.8577 64.8514 33.9867 64.7075 34.0544H69.9253C70.1453 34.0544 70.4014 34.01 70.6934 33.9211C70.9896 33.8323 71.2456 33.7519 71.4614 33.6799C71.3599 33.7646 71.1821 33.8788 70.9282 34.0227C70.6785 34.1666 70.4035 34.3147 70.103 34.467C69.8026 34.6152 69.5233 34.7421 69.2651 34.8479C69.007 34.9495 68.8187 35.0002 68.7002 35.0002H63C63.3258 34.6575 63.5607 34.321 63.7046 33.991C63.8527 33.6609 63.9733 33.2673 64.0664 32.8103L64.5806 30.2332H63.6094L64.7456 29.4714L65.4629 25.8914H64.1616C64.2251 25.8448 64.3351 25.7708 64.4917 25.6692C64.6525 25.5676 64.826 25.4597 65.0122 25.3455C65.1984 25.2312 65.3677 25.1339 65.52 25.0535C65.6766 24.9731 65.7845 24.9329 65.8438 24.9329H73.0039ZM81.4862 28.1956C81.2915 28.441 81.0503 28.6589 80.7625 28.8494C80.4748 29.0356 80.1658 29.1816 79.8358 29.2874C79.5099 29.3931 79.1925 29.446 78.8836 29.446C78.6974 29.446 78.5239 29.4101 78.3631 29.3381C78.2023 29.262 78.0394 29.1879 77.8743 29.116C77.7135 29.0398 77.5421 29.0017 77.3602 29.0017C77.1782 29.0017 77.0174 29.1033 76.8778 29.3064C76.7381 29.5095 76.6154 29.7677 76.5096 30.0808C76.4038 30.394 76.3128 30.724 76.2366 31.071C76.1605 31.4138 76.097 31.7312 76.0462 32.0232C75.9954 32.3152 75.9552 32.5352 75.9256 32.6833C75.8918 32.8484 75.8515 33.0155 75.805 33.1848C75.7627 33.3499 75.7415 33.5191 75.7415 33.6926C75.7415 33.828 75.769 33.9465 75.824 34.0481C75.8833 34.1497 75.9912 34.2004 76.1478 34.2004C76.2493 34.2004 76.3615 34.175 76.4842 34.1243C76.2768 34.2724 76.097 34.4268 75.9446 34.5876C75.7923 34.7442 75.6273 34.8775 75.4495 34.9875C75.2718 35.0933 75.0369 35.1462 74.7449 35.1462C74.6011 35.1462 74.472 35.0997 74.3577 35.0066C74.2435 34.9177 74.1863 34.7971 74.1863 34.6448C74.1863 34.6067 74.1906 34.5686 74.199 34.5305C74.3429 33.8069 74.491 33.0833 74.6434 32.3596C74.8 31.636 74.9481 30.9124 75.0877 30.1887C75.1046 30.1041 75.1195 30.0194 75.1321 29.9348C75.1491 29.8459 75.1575 29.7592 75.1575 29.6746C75.1575 29.4545 75.0962 29.3064 74.9735 29.2302C74.855 29.1541 74.6942 29.116 74.491 29.116C74.3048 29.116 74.1123 29.1477 73.9134 29.2112C73.8965 29.2196 73.8817 29.226 73.869 29.2302C73.869 29.2302 73.8838 29.2239 73.9134 29.2112C74.1335 29.135 74.3154 29.0398 74.4593 28.9255C74.6032 28.807 74.7428 28.6886 74.8782 28.5701C75.0179 28.4516 75.1787 28.3542 75.3607 28.2781C75.5469 28.1977 75.7881 28.1575 76.0843 28.1575C76.4863 28.1575 76.6873 28.35 76.6873 28.7351C76.6873 28.8113 76.6831 28.8853 76.6746 28.9573C76.6704 29.0292 76.6619 29.1012 76.6492 29.1731C76.8862 29.0334 77.1571 28.8748 77.4617 28.697C77.7707 28.5193 78.0838 28.3669 78.4012 28.24C78.7228 28.1088 79.0211 28.0432 79.2962 28.0432C79.4909 28.0432 79.6686 28.0813 79.8294 28.1575C79.9902 28.2294 80.1404 28.3035 80.2801 28.3796C80.424 28.4516 80.5636 28.4875 80.699 28.4875C80.826 28.4875 80.9614 28.4558 81.1053 28.3923C81.2534 28.3246 81.3804 28.259 81.4862 28.1956ZM88.3307 33.5403C88.3307 33.7646 88.3899 33.9233 88.5084 34.0164C88.6269 34.1095 88.7962 34.156 89.0163 34.156C89.1601 34.156 89.2998 34.1412 89.4352 34.1116C89.2532 34.2512 89.0543 34.3993 88.8385 34.5559C88.6269 34.7125 88.4048 34.8458 88.172 34.9558C87.9435 35.0616 87.7065 35.1145 87.4611 35.1145C87.2579 35.1145 87.0908 35.0785 86.9596 35.0066C86.8327 34.9347 86.7692 34.7844 86.7692 34.5559C86.7692 34.4755 86.7734 34.3972 86.7819 34.321C86.7946 34.2406 86.8094 34.1624 86.8263 34.0862C86.5978 34.2343 86.3587 34.3909 86.109 34.5559C85.8593 34.7209 85.6012 34.8606 85.3346 34.9749C85.068 35.0891 84.7908 35.1462 84.5031 35.1462C83.8641 35.1462 83.3774 34.9706 83.0431 34.6194C82.713 34.2639 82.548 33.7709 82.548 33.1404C82.548 32.4972 82.6855 31.8751 82.9606 31.2742C83.2357 30.669 83.608 30.1252 84.0778 29.6428C84.5517 29.1604 85.0871 28.7774 85.6837 28.4939C86.2846 28.2104 86.9067 28.0686 87.5499 28.0686C87.8589 28.0686 88.1572 28.1152 88.445 28.2083C88.737 28.3014 89.0289 28.3881 89.3209 28.4685L88.3878 33.0642C88.3709 33.1404 88.3561 33.2187 88.3434 33.2991C88.3349 33.3795 88.3307 33.4599 88.3307 33.5403ZM87.6515 30.0173C87.3764 29.3403 86.875 29.0017 86.1471 29.0017C85.7747 29.0017 85.4552 29.1244 85.1886 29.3699C84.9262 29.6111 84.7104 29.9179 84.5412 30.2903C84.3761 30.6584 84.2534 31.0393 84.173 31.4329C84.0968 31.8222 84.0587 32.1628 84.0587 32.4548C84.0587 33.0219 84.1963 33.4556 84.4713 33.7561C84.7506 34.0523 85.178 34.2004 85.7536 34.2004C85.8678 34.2004 86.0138 34.1666 86.1915 34.0989C86.3735 34.0269 86.5407 33.9381 86.693 33.8323C86.8454 33.7222 86.9342 33.6059 86.9596 33.4832L87.6515 30.0173Z" fill="#F4DCDC"/>
</svg>
