<svg width="99" height="99" viewBox="0 0 99 99" fill="none" xmlns="http://www.w3.org/2000/svg">
<path d="M58.503 26.5177L90.0354 42.1422C95.9921 45.0937 95.9921 53.9157 90.0354 56.8672L15.7415 93.68C9.01029 97.0153 2.02826 89.609 5.3624 82.6703L19.5466 53.1517C20.6498 50.8557 20.6497 48.1537 19.5466 45.8577L5.3624 16.3392C2.02821 9.40016 9.01029 1.99415 15.7415 5.32965L37.1223 15.9237" stroke="#F4ADBD" stroke-width="9" stroke-linecap="round"/>
<path d="M58.503 26.5177L90.0354 42.1422M19.5466 53.1517L5.3624 82.6703C2.02826 89.609 9.01029 97.0153 15.7415 93.68L52.8885 75.2736M5.3624 16.3392C2.02821 9.40016 9.01029 1.99415 15.7415 5.32965L37.1223 15.9237" stroke="#F4DCDC" stroke-width="9" stroke-linecap="round"/>
</svg>
