<svg width="99" height="99" viewBox="0 0 99 99" fill="none" xmlns="http://www.w3.org/2000/svg">
<path d="M58.5028 26.5177L90.0352 42.1422C95.9919 45.0937 95.9919 53.9157 90.0352 56.8672L15.7413 93.6799C9.01004 97.0153 2.02801 89.609 5.36216 82.6703L19.5463 53.1517C20.6495 50.8557 20.6495 48.1537 19.5463 45.8577L5.36216 16.3392C2.02797 9.40015 9.01004 1.99414 15.7413 5.32964L37.122 15.9237" stroke="#3E5D93" stroke-width="9" stroke-linecap="round"/>
<path d="M58.5028 26.5177L90.0352 42.1422M19.5463 53.1517L5.36216 82.6703C2.02801 89.609 9.01004 97.0153 15.7413 93.6799L52.8882 75.2736M5.36216 16.3392C2.02797 9.40015 9.01004 1.99414 15.7413 5.32964L37.122 15.9237" stroke="#5B86CB" stroke-width="9" stroke-linecap="round"/>
</svg>
