<svg width="717" height="427" viewBox="0 0 717 427" fill="none" xmlns="http://www.w3.org/2000/svg">
<path d="M649.17 25.0015C677.5 61.8081 691.667 80.2105 691.667 134.857C691.667 189.504 677.5 207.907 649.17 244.714C592.6 318.204 497.73 401.524 358.333 401.524C218.937 401.524 124.065 318.204 67.4963 244.714C39.1653 207.907 25 189.504 25 134.857C25 80.2105 39.1653 61.8081 67.4963 25.0015" stroke="#F4DCDC" stroke-width="50" stroke-linecap="round"/>
<path d="M649.17 25.0015C677.5 61.8081 691.667 80.2105 691.667 134.857M358.333 401.524C218.937 401.524 124.065 318.204 67.4963 244.714C39.1653 207.907 25 189.504 25 134.857" stroke="#F4ADBD" stroke-width="50" stroke-linecap="round"/>
</svg>
