<svg width="65" height="66" viewBox="0 0 65 66" fill="none" xmlns="http://www.w3.org/2000/svg">
<path d="M32.9989 27.2201C36.5882 27.2201 39.4979 24.5965 39.4979 21.36C39.4979 18.1236 36.5882 15.5 32.9989 15.5C29.4097 15.5 26.5 18.1236 26.5 21.36C26.5 24.5965 29.4097 27.2201 32.9989 27.2201Z" stroke="#F4ADBD" stroke-width="5"/>
<path d="M39.4978 21.36C39.4978 24.5965 36.5882 27.2201 32.9989 27.2201" stroke="#F4DCDC" stroke-width="5" stroke-linecap="round"/>
<path d="M32.4497 35.9966C39.5465 35.9966 45.2999 38.6201 45.2999 41.8566M32.4497 35.9966C39.5465 35.9966 45.2999 38.6201 45.2999 41.8566M45.2999 41.8566C45.2999 45.0931 45.2999 47.7167 32.4498 47.7167C19.5996 47.7167 19.5996 45.0931 19.5996 41.8566C19.5996 38.6201 25.3528 35.9966 32.4498 35.9966C39.5466 35.9966 45.2999 38.6201 45.2999 41.8566Z" stroke="#F4ADBD" stroke-width="5"/>
<path d="M32.4498 47.7167C27.8495 47.7167 24.8961 47.3804 23 46.8002C19.5996 45.7597 19.5996 43.9345 19.5996 41.8566C19.5996 40.1271 21.2425 38.5726 23.8554 37.5" stroke="#F4DCDC" stroke-width="5" stroke-linecap="round"/>
<path d="M3.5 28.3293C3.5 18.8963 3.5 14.1798 4.71435 12.5931C5.92866 11.0064 10.7642 9.48838 20.4353 6.45233L22.2778 5.87392C27.3192 4.29131 29.8398 3.5 32.4498 3.5C35.0597 3.5 37.5803 4.29131 42.6217 5.87392L44.4642 6.45233C54.1354 9.48838 58.971 11.0064 60.1852 12.5931C61.3995 14.1798 61.3995 18.8963 61.3995 28.3293C61.3995 29.7538 61.3995 31.299 61.3995 32.9746C61.3995 40.3641 58.7078 46.0638 54.9662 50.4171M4.1203 38.9C6.87831 51.5803 18.2207 58.1131 25.6902 61.1055C28.0108 62.0351 29.171 62.5 32.4498 62.5C35.7285 62.5 36.8887 62.0351 39.2092 61.1055C41.0691 60.3604 43.1689 59.396 45.3163 58.1718" stroke="#F4ADBD" stroke-width="7" stroke-linecap="round"/>
<path d="M3.5 28.3293C3.5 18.8963 3.5 14.1798 4.71435 12.5931M42.6217 5.87393L44.4642 6.45234C54.1354 9.48839 58.971 11.0064 60.1852 12.5931C61.3995 14.1798 61.3995 18.8963 61.3995 28.3293C61.3995 29.7538 61.3995 31.299 61.3995 32.9746M25.6902 61.1055C28.0108 62.0351 29.171 62.5 32.4498 62.5C35.7285 62.5 36.8887 62.0351 39.2092 61.1055C41.0691 60.3604 43.1689 59.396 45.3163 58.1718" stroke="#F4DCDC" stroke-width="7" stroke-linecap="round"/>
</svg>
