<svg width="800" height="800" viewBox="0 0 800 800" fill="none" xmlns="http://www.w3.org/2000/svg">
<path d="M775 400C775 576.775 775 665.166 720.081 720.081C665.166 775 576.775 775 400 775C223.223 775 134.835 775 79.9176 720.081C25 665.166 25 576.775 25 400C25 223.223 25 134.835 79.9176 79.9176C134.835 25 223.223 25 400 25C576.775 25 665.166 25 720.081 79.9176C756.599 116.433 768.835 167.746 772.934 250" stroke="#3E5D93" stroke-width="50" stroke-linecap="round"/>
<path d="M720.081 720.081C748.733 691.431 762.437 653.67 768.991 599M79.9176 720.081C25 665.166 25 576.775 25 400M400 25C576.775 25 665.166 25 720.081 79.9176C756.599 116.433 768.835 167.746 772.934 250" stroke="#5B86CB" stroke-width="50" stroke-linecap="round"/>
<path d="M270.082 273V307.017" stroke="#F4ADBD" stroke-width="23" stroke-linecap="round"/>
<path d="M99.9973 443.085H134.014" stroke="#F4ADBD" stroke-width="23" stroke-linecap="round"/>
<path d="M173.87 346.873L168.032 341.035" stroke="#F4ADBD" stroke-width="23" stroke-linecap="round"/>
<path d="M340.607 443.046H183.448" stroke="#3E5D93" stroke-width="23" stroke-linecap="round"/>
<path d="M262.029 364.466V521.625" stroke="#3E5D93" stroke-width="23" stroke-linecap="round"/>
<path d="M269.887 443.046C269.887 460.405 283.96 474.478 301.319 474.478" stroke="#5B86CB" stroke-width="23" stroke-linecap="round"/>
<path d="M254.17 443.046C254.17 460.405 240.098 474.478 222.739 474.478" stroke="#5B86CB" stroke-width="23" stroke-linecap="round"/>
<path d="M262.029 427.606C262.029 415.899 269.997 405.694 281.355 402.854C293.957 399.704 305.372 411.119 302.221 423.721C299.382 435.078 289.177 443.046 277.469 443.046H262.029V427.606Z" stroke="#5B86CB" stroke-width="23"/>
<path d="M262.029 427.606C262.029 415.899 254.061 405.694 242.703 402.854C230.101 399.704 218.686 411.119 221.837 423.721C224.676 435.078 234.881 443.046 246.589 443.046H262.029V427.606Z" stroke="#5B86CB" stroke-width="23"/>
<path d="M340.565 437.5C340.565 477.333 341 497.251 329.43 509.625C317.862 522 299.241 522 262 522C224.759 522 206.139 522 194.569 509.625C183 497.251 183 477.333 183 437.5C183 397.666 183 377.749 194.569 365.375C206.139 353 224.759 353 262 353C299.241 353 317.862 353 329.43 365.375" stroke="#5B86CB" stroke-width="23" stroke-linecap="round"/>
<path d="M633.038 469.37L571.266 469.37C560.769 469.37 555.521 469.37 551.611 471.474C549.051 472.851 546.923 474.833 545.445 477.22C543.188 480.863 543.188 485.755 543.188 495.537C543.188 505.32 543.188 510.211 545.445 513.854C546.923 516.241 549.051 518.223 551.611 519.601C555.521 521.704 560.769 521.704 571.266 521.704L672.347 521.704C682.844 521.704 688.092 521.704 692.002 519.601C694.563 518.223 696.69 516.241 698.168 513.854C700.425 510.211 700.425 505.32 700.425 495.537C700.425 485.755 700.425 480.863 698.168 477.22C696.69 474.833 694.563 472.851 692.002 471.474C688.862 469.784 684.857 469.452 677.963 469.386" stroke="#477B91" stroke-width="23" stroke-linecap="round"/>
<path d="M633.038 469.37L571.266 469.37C560.769 469.37 555.521 469.37 551.611 471.474C549.051 472.851 546.923 474.833 545.445 477.22C543.188 480.863 543.188 485.755 543.188 495.537C543.188 505.32 543.188 510.211 545.445 513.854C546.923 516.241 549.051 518.223 551.611 519.601C555.521 521.704 560.769 521.704 571.266 521.704L672.347 521.704C682.844 521.704 688.092 521.704 692.002 519.601C694.563 518.223 696.69 516.241 698.168 513.854C700.425 510.211 700.425 505.32 700.425 495.537C700.425 485.755 700.425 480.863 698.168 477.22C696.69 474.833 694.563 472.851 692.002 471.474C688.862 469.784 684.857 469.452 677.963 469.386" stroke="#6C0820" stroke-width="23" stroke-linecap="round"/>
<path d="M633.038 469.37L571.266 469.37C560.769 469.37 555.521 469.37 551.611 471.474C549.051 472.851 546.923 474.833 545.445 477.22C543.188 480.863 543.188 485.755 543.188 495.537C543.188 505.32 543.188 510.211 545.445 513.854C546.923 516.241 549.051 518.223 551.611 519.601C555.521 521.704 560.769 521.704 571.266 521.704L672.347 521.704C682.844 521.704 688.092 521.704 692.002 519.601C694.563 518.223 696.69 516.241 698.168 513.854C700.425 510.211 700.425 505.32 700.425 495.537C700.425 485.755 700.425 480.863 698.168 477.22C696.69 474.833 694.563 472.851 692.002 471.474C688.862 469.784 684.857 469.452 677.963 469.386" stroke="#6C0820" stroke-width="23" stroke-linecap="round"/>
<path d="M449.947 514.544C442.631 519.133 438.973 521.428 434.609 520.524C431.751 519.933 428.724 518.401 425.835 516.084C421.423 512.546 417.613 506.471 409.992 494.322L361.072 416.329C353.451 404.18 349.641 398.105 348.377 392.594C347.548 388.983 347.486 385.592 348.198 382.761C349.284 378.44 352.943 376.145 360.259 371.556C367.575 366.967 371.234 364.672 375.597 365.575C378.455 366.167 381.482 367.699 384.372 370.016C388.783 373.554 392.593 379.628 400.214 391.777L449.134 469.771C456.755 481.92 460.565 487.994 461.83 493.506C462.658 497.116 462.72 500.508 462.008 503.338C460.922 507.66 457.264 509.955 449.947 514.544Z" stroke="#6C0820" stroke-width="23"/>
<path d="M510.744 518.201C501.528 521.49 496.92 523.135 492.562 521.768C489.708 520.873 486.968 519.097 484.621 516.619C481.036 512.837 478.885 506.81 474.583 494.756L446.963 417.372C442.661 405.318 440.509 399.291 440.889 394.094C441.137 390.69 442.133 387.581 443.775 385.081C446.283 381.264 450.891 379.619 460.107 376.33C469.323 373.04 473.932 371.396 478.289 372.762C481.144 373.658 483.883 375.434 486.23 377.911C489.815 381.693 491.966 387.72 496.268 399.774L523.888 477.158C528.19 489.212 530.342 495.239 529.962 500.436C529.714 503.84 528.718 506.949 527.075 509.449C524.568 513.267 519.96 514.911 510.744 518.201Z" stroke="#F4ADBD" stroke-width="23"/>
</svg>
