<svg width="800" height="800" viewBox="0 0 800 800" fill="none" xmlns="http://www.w3.org/2000/svg">
<path d="M775 400C775 576.775 775 665.166 720.081 720.081C665.166 775 576.775 775 400 775C223.223 775 134.835 775 79.9176 720.081C25 665.166 25 576.775 25 400C25 223.223 25 134.835 79.9176 79.9176C134.835 25 223.223 25 400 25C576.775 25 665.166 25 720.081 79.9176C756.599 116.433 768.835 167.746 772.934 250" stroke="#254C69" stroke-width="50" stroke-linecap="round"/>
<path d="M270.085 273V307.017" stroke="#9BBDA2" stroke-width="23" stroke-linecap="round"/>
<path d="M100 443.085H134.017" stroke="#9BBDA2" stroke-width="23" stroke-linecap="round"/>
<path d="M173.873 346.873L168.035 341.035" stroke="#9BBDA2" stroke-width="23" stroke-linecap="round"/>
<path d="M340.61 443.046H183.451" stroke="#477B91" stroke-width="23" stroke-linecap="round"/>
<path d="M262.031 364.466V521.625" stroke="#477B91" stroke-width="23" stroke-linecap="round"/>
<path d="M269.889 443.046C269.889 460.405 283.961 474.478 301.32 474.478" stroke="#91BFD3" stroke-width="23" stroke-linecap="round"/>
<path d="M254.173 443.046C254.173 460.405 240.101 474.478 222.741 474.478" stroke="#91BFD3" stroke-width="23" stroke-linecap="round"/>
<path d="M262.031 427.607C262.031 415.899 269.999 405.694 281.357 402.854C293.958 399.704 305.374 411.119 302.223 423.721C299.383 435.079 289.178 443.047 277.471 443.047H262.031V427.607Z" stroke="#91BFD3" stroke-width="23"/>
<path d="M262.032 427.607C262.032 415.899 254.064 405.694 242.706 402.854C230.104 399.704 218.689 411.119 221.839 423.721C224.679 435.079 234.884 443.047 246.592 443.047H262.032V427.607Z" stroke="#91BFD3" stroke-width="23"/>
<path d="M340.61 443.046C340.61 480.088 340.61 498.61 329.102 510.117C317.595 521.625 299.073 521.625 262.031 521.625C224.988 521.625 206.467 521.625 194.959 510.117C183.451 498.61 183.451 480.088 183.451 443.046C183.451 406.003 183.451 387.482 194.959 375.974C206.467 364.466 224.988 364.466 262.031 364.466C299.073 364.466 317.595 364.466 329.102 375.974C336.754 383.626 339.318 394.378 340.177 411.614" stroke="#254C69" stroke-width="23" stroke-linecap="round"/>
<path d="M633.038 469.37L571.266 469.37C560.769 469.37 555.521 469.37 551.611 471.473C549.051 472.851 546.923 474.833 545.445 477.22C543.188 480.863 543.188 485.754 543.188 495.537C543.188 505.319 543.188 510.21 545.445 513.854C546.923 516.24 549.051 518.222 551.611 519.6C555.521 521.704 560.769 521.704 571.266 521.704L672.347 521.704C682.844 521.704 688.092 521.704 692.002 519.6C694.563 518.222 696.69 516.24 698.168 513.854C700.425 510.21 700.425 505.319 700.425 495.537C700.425 485.754 700.425 480.863 698.168 477.22C696.69 474.833 694.563 472.851 692.002 471.473C688.862 469.784 684.857 469.451 677.963 469.386" stroke="#477B91" stroke-width="23" stroke-linecap="round"/>
<path d="M449.948 514.544C442.632 519.133 438.973 521.428 434.61 520.524C431.752 519.933 428.725 518.401 425.836 516.084C421.424 512.546 417.614 506.471 409.993 494.322L361.073 416.329C353.452 404.18 349.642 398.105 348.378 392.594C347.549 388.983 347.487 385.592 348.199 382.761C349.285 378.44 352.944 376.145 360.26 371.556C367.576 366.967 371.235 364.672 375.598 365.575C378.456 366.167 381.483 367.698 384.373 370.016C388.784 373.554 392.594 379.628 400.215 391.777L449.135 469.771C456.756 481.92 460.566 487.994 461.831 493.506C462.659 497.116 462.721 500.508 462.009 503.338C460.923 507.66 457.265 509.955 449.948 514.544Z" stroke="#9BBDA2" stroke-width="23"/>
<path d="M510.745 518.201C501.529 521.491 496.921 523.135 492.563 521.768C489.708 520.873 486.969 519.097 484.622 516.62C481.037 512.838 478.886 506.811 474.584 494.757L446.964 417.373C442.662 405.318 440.51 399.291 440.89 394.095C441.138 390.691 442.134 387.582 443.776 385.081C446.284 381.264 450.892 379.62 460.108 376.33C469.324 373.041 473.932 371.396 478.29 372.763C481.145 373.658 483.884 375.434 486.231 377.912C489.816 381.693 491.967 387.72 496.269 399.775L523.889 477.159C528.191 489.213 530.343 495.239 529.963 500.436C529.715 503.84 528.719 506.95 527.076 509.449C524.569 513.267 519.961 514.912 510.745 518.201Z" stroke="#254C69" stroke-width="23"/>
</svg>
