<svg width="97" height="95" viewBox="0 0 97 95" fill="none" xmlns="http://www.w3.org/2000/svg">
<path d="M78.0629 69.5938C79.1838 80.8435 79.7433 86.4687 76.3577 88.9687C72.9721 91.4696 67.8831 89.1897 57.7041 84.63L55.0708 83.4501C52.1776 82.1549 50.7314 81.5065 49.1986 81.5065C47.6658 81.5065 46.2196 82.1549 43.3264 83.4501L40.693 84.63C30.5144 89.1897 25.425 91.4696 22.0392 88.9687C18.6535 86.4687 19.2137 80.8435 20.3343 69.5938L20.6241 66.6836C20.9425 63.487 21.1017 61.8882 20.628 60.4064C20.1543 58.9238 19.1012 57.7258 16.9952 55.3299L15.0777 53.1489C7.66625 44.7166 3.96055 40.5009 5.2538 36.4555C6.19063 33.5246 9.30141 32.0884 15.0777 30.6101M36.6161 18.656C42.2143 8.88531 45.0139 4 49.1986 4C53.3833 4 56.1828 8.88531 61.781 18.656L63.2299 21.1838C64.8201 23.9603 65.6157 25.3485 66.8559 26.2645C68.0961 27.1805 69.6413 27.5205 72.7308 28.2005L75.5427 28.8196C86.4146 31.2129 91.8502 32.4092 93.1434 36.4555C94.0769 39.3752 92.4062 42.3826 88.6193 46.9999" stroke="#254C69" stroke-width="7" stroke-linecap="round"/>
<g clip-path="url(#clip0_0_1)">
<mask id="mask0_0_1" style="mask-type:luminance" maskUnits="userSpaceOnUse" x="0" y="0" width="50" height="95">
<path d="M49.2 0H0V95H49.2V0Z" fill="white"/>
</mask>
<g mask="url(#mask0_0_1)">
<path d="M45.5888 17.0848C47.1048 14.3051 51.0962 14.3051 52.6122 17.0848L60.6525 31.8276C61.2275 32.8825 62.2465 33.6229 63.4275 33.844L79.9335 36.935C83.0455 37.5178 84.2795 41.3139 82.1035 43.6147L70.5675 55.8171C69.7415 56.6903 69.3525 57.8882 69.5075 59.0798L71.6685 75.7329C72.0755 78.8728 68.8465 81.2189 65.9865 79.8611L50.8158 72.6599C49.7303 72.1447 48.4707 72.1447 47.3852 72.6599L32.215 79.8611C29.3546 81.2189 26.1255 78.8728 26.5329 75.7329L28.6938 59.0798C28.8484 57.8882 28.4591 56.6903 27.6336 55.8171L16.0971 43.6147C13.9218 41.3139 15.1552 37.5178 18.2674 36.935L34.7731 33.844C35.9542 33.6229 36.9733 32.8825 37.5486 31.8276L45.5888 17.0848Z" fill="#FFE100"/>
</g>
</g>
<defs>
<clipPath id="clip0_0_1">
<rect width="49.2" height="95" fill="white"/>
</clipPath>
</defs>
</svg>
