<svg width="96" height="93" viewBox="0 0 96 93" fill="none" xmlns="http://www.w3.org/2000/svg">
<path d="M76.5656 69.0938C77.6864 80.3435 78.246 85.9687 74.8604 88.4687C71.4748 90.9696 66.3858 88.6897 56.2068 84.13L53.5735 82.9501C50.6802 81.6549 49.2341 81.0065 47.7013 81.0065C46.1685 81.0065 44.7223 81.6549 41.829 82.9501L39.1957 84.13C29.0171 88.6897 23.9277 90.9696 20.5419 88.4687C17.1562 85.9687 17.7164 80.3435 18.8369 69.0938L19.1268 66.1836C19.4452 62.987 19.6044 61.3882 19.1307 59.9064C18.657 58.4238 17.6039 57.2258 15.4978 54.8299L13.5804 52.6489C6.16893 44.2166 2.46323 40.0009 3.75648 35.9555C4.69332 33.0246 7.8041 31.5884 13.5804 30.1101M35.1188 18.156C40.717 8.38531 43.5165 3.5 47.7013 3.5C51.886 3.5 54.6855 8.38531 60.2837 18.156L61.7325 20.6838C63.3228 23.4603 64.1184 24.8485 65.3586 25.7645C66.5988 26.6805 68.144 27.0205 71.2335 27.7005L74.0454 28.3196C84.9173 30.7129 90.3529 31.9092 91.6461 35.9555C92.5796 38.8752 90.9089 41.8826 87.1219 46.4999" stroke="#254C69" stroke-width="7" stroke-linecap="round"/>
<path d="M43.991 15.9391C45.507 13.1594 49.4984 13.1594 51.0144 15.9391L59.0546 30.6819C59.6299 31.7368 60.649 32.4772 61.8301 32.6983L78.3358 35.7893C81.448 36.3721 82.6814 40.1682 80.5061 42.469L68.9695 54.6714C68.144 55.5446 67.7548 56.7425 67.9094 57.9341L70.0703 74.5872C70.4777 77.7271 67.2486 80.0732 64.3882 78.7154L49.218 71.5142C48.1325 70.999 46.8729 70.999 45.7874 71.5142L30.6171 78.7154C27.7568 80.0732 24.5276 77.7271 24.9351 74.5872L27.096 57.9341C27.2506 56.7425 26.8613 55.5446 26.0358 54.6714L14.4992 42.469C12.324 40.1682 13.5574 36.3721 16.6696 35.7893L33.1753 32.6983C34.3564 32.4772 35.3754 31.7368 35.9508 30.6819L43.991 15.9391Z" fill="#FFE100"/>
</svg>
