<svg width="96" height="93" viewBox="0 0 96 93" fill="none" xmlns="http://www.w3.org/2000/svg">
<path d="M76.5656 69.0938C77.6864 80.3435 78.246 85.9687 74.8604 88.4687C71.4748 90.9696 66.3858 88.6897 56.2068 84.13L53.5735 82.9501C50.6802 81.6549 49.2341 81.0065 47.7013 81.0065C46.1685 81.0065 44.7223 81.6549 41.829 82.9501L39.1957 84.13C29.0171 88.6897 23.9277 90.9696 20.5419 88.4687C17.1562 85.9687 17.7164 80.3435 18.8369 69.0938L19.1268 66.1836C19.4452 62.987 19.6044 61.3882 19.1307 59.9064C18.657 58.4238 17.6039 57.2258 15.4978 54.8299L13.5804 52.6489C6.16893 44.2166 2.46323 40.0009 3.75648 35.9555C4.69332 33.0246 7.8041 31.5884 13.5804 30.1101M35.1188 18.156C40.717 8.38531 43.5165 3.5 47.7013 3.5C51.886 3.5 54.6855 8.38531 60.2837 18.156L61.7325 20.6838C63.3228 23.4603 64.1184 24.8485 65.3586 25.7645C66.5988 26.6805 68.144 27.0205 71.2335 27.7005L74.0454 28.3196C84.9173 30.7129 90.3529 31.9092 91.6461 35.9555C92.5796 38.8752 90.9089 41.8826 87.1219 46.4999" stroke="#254C69" stroke-width="7" stroke-linecap="round"/>
</svg>
