<svg width="584" height="584" viewBox="0 0 584 584" fill="none" xmlns="http://www.w3.org/2000/svg">
<path d="M291.667 558.333L291.667 225M291.667 225L191.667 325M291.667 225L391.667 325" stroke="#3E5D93" stroke-width="50" stroke-linecap="round" stroke-linejoin="round"/>
<path d="M291.667 24.9998C438.943 24.9998 558.333 144.39 558.333 291.667M25 291.666C25 207.453 64.0367 132.36 125 83.4865" stroke="#3E5D93" stroke-width="50" stroke-linecap="round"/>
<path d="M291.667 558.667C144.391 558.667 25 439.277 25 292M558.333 292C558.333 376.213 519.297 451.307 458.333 500.18" stroke="#3E5D93" stroke-width="50" stroke-linecap="round"/>
<path d="M291.667 558.333L291.667 391.667" stroke="#5B86CB" stroke-width="50" stroke-linecap="round" stroke-linejoin="round"/>
<path d="M291.667 25.0003C438.943 25.0003 558.333 144.39 558.333 291.667" stroke="#5B86CB" stroke-width="50" stroke-linecap="round"/>
<path d="M291.667 558.667C214.993 558.667 145.876 526.307 97.2305 474.5" stroke="#5B86CB" stroke-width="50" stroke-linecap="round"/>
</svg>
