<svg width="814" height="179" viewBox="0 0 814 179" fill="none" xmlns="http://www.w3.org/2000/svg">
<rect width="814" height="179" fill="#3E5D93"/>
<path d="M462 17L393 126" stroke="#8D223C" stroke-width="15" stroke-linecap="round"/>
<path d="M465 53L396 162" stroke="#F4ADBD" stroke-width="15" stroke-linecap="round"/>
<path d="M206.625 33.4375C205.792 33.6875 204.812 34.1979 203.688 34.9688C202.583 35.7396 201.49 36.4688 200.406 37.1562C199.344 37.8229 198.458 38.1562 197.75 38.1562H176.219L172.781 54.875H197.062C196.458 55.0208 195.771 55.3229 195 55.7812C194.25 56.2396 193.604 56.6458 193.062 57C192.646 57.2708 192.104 57.6042 191.438 58C190.792 58.3958 190.135 58.75 189.469 59.0625C188.802 59.375 188.229 59.5312 187.75 59.5312H171.844L169.625 70.7188C169.479 71.4479 169.24 72.3542 168.906 73.4375C168.573 74.5 168.146 75.5 167.625 76.4375C167.104 77.375 166.49 78.0104 165.781 78.3438H191.469C192.552 78.3438 193.812 78.125 195.25 77.6875C196.708 77.25 197.969 76.8542 199.031 76.5C198.531 76.9167 197.656 77.4792 196.406 78.1875C195.177 78.8958 193.823 79.625 192.344 80.375C190.865 81.1042 189.49 81.7292 188.219 82.25C186.948 82.75 186.021 83 185.438 83H157.375C158.979 81.3125 160.135 79.6562 160.844 78.0312C161.573 76.4062 162.167 74.4688 162.625 72.2188L165.156 59.5312H160.375L165.969 55.7812L169.5 38.1562H163.094C163.406 37.9271 163.948 37.5625 164.719 37.0625C165.51 36.5625 166.365 36.0312 167.281 35.4688C168.198 34.9062 169.031 34.4271 169.781 34.0312C170.552 33.6354 171.083 33.4375 171.375 33.4375H206.625ZM221.228 84.8438C220.915 81.0312 220.498 77.2292 219.978 73.4375C219.457 69.625 218.769 65.8542 217.915 62.125C217.707 61.2708 217.425 60.2396 217.071 59.0312C216.717 57.8229 216.207 56.7604 215.54 55.8438C214.873 54.9062 213.978 54.4375 212.853 54.4375C212.353 54.4375 211.832 54.5417 211.29 54.75C210.748 54.9375 210.269 55.1458 209.853 55.375C210.707 54.5208 211.665 53.6562 212.728 52.7812C213.811 51.9062 214.957 51.1667 216.165 50.5625C217.373 49.9583 218.623 49.6562 219.915 49.6562C220.79 49.6562 221.592 50.25 222.321 51.4375C223.05 52.625 223.696 54.1875 224.259 56.125C224.842 58.0417 225.353 60.1354 225.79 62.4062C226.248 64.6562 226.634 66.875 226.946 69.0625C227.259 71.25 227.509 73.1875 227.696 74.875C227.905 76.5625 228.05 77.7812 228.134 78.5312C228.988 77.6771 230.03 76.5729 231.259 75.2188C232.488 73.8438 233.759 72.3333 235.071 70.6875C236.384 69.0417 237.603 67.3646 238.728 65.6562C239.853 63.9479 240.769 62.3021 241.478 60.7188C242.186 59.1146 242.54 57.6979 242.54 56.4688C242.54 55.8438 242.405 55.3438 242.134 54.9688C241.863 54.5729 241.384 54.375 240.696 54.375C240.009 54.375 239.321 54.5208 238.634 54.8125C239.842 54.3125 240.894 53.6667 241.79 52.875C242.707 52.0625 243.655 51.3333 244.634 50.6875C245.613 50.0417 246.821 49.7188 248.259 49.7188C248.967 49.7188 249.467 49.9167 249.759 50.3125C250.071 50.7083 250.228 51.2292 250.228 51.875C250.228 52.3333 250.175 52.7917 250.071 53.25C249.55 55.6667 248.55 58.1146 247.071 60.5938C245.613 63.0521 243.842 65.4688 241.759 67.8438C239.675 70.1979 237.436 72.4375 235.04 74.5625C232.665 76.6875 230.28 78.625 227.884 80.375C225.509 82.125 223.29 83.6146 221.228 84.8438ZM268.674 70.1562C268.799 72.3229 269.424 74.0417 270.549 75.3125C271.674 76.5625 273.101 77.4688 274.83 78.0312C276.58 78.5729 278.403 78.8438 280.299 78.8438C282.028 78.8438 283.757 78.6458 285.486 78.25C287.236 77.8333 288.913 77.3021 290.518 76.6562C288.997 78.0104 287.226 79.2083 285.205 80.25C283.205 81.2708 281.111 82.0729 278.924 82.6562C276.757 83.2188 274.653 83.5 272.611 83.5C270.528 83.5 268.622 83.0312 266.893 82.0938C265.184 81.1354 263.809 79.8333 262.768 78.1875C261.747 76.5208 261.236 74.625 261.236 72.5C261.236 71.7708 261.309 71.0625 261.455 70.375C261.872 68.3125 262.705 66.3125 263.955 64.375C265.226 62.4375 266.747 60.625 268.518 58.9375C270.288 57.25 272.163 55.7604 274.143 54.4688C276.122 53.1771 278.028 52.1458 279.861 51.375C281.424 50.7083 283.038 50.1875 284.705 49.8125C286.393 49.4167 288.09 49.2188 289.799 49.2188C291.049 49.2188 292.174 49.5833 293.174 50.3125C294.195 51.0208 294.705 52.0521 294.705 53.4062C294.705 54.5938 294.205 55.7812 293.205 56.9688C292.205 58.1354 290.882 59.2708 289.236 60.375C287.59 61.4792 285.788 62.5312 283.83 63.5312C281.872 64.5104 279.913 65.4271 277.955 66.2812C275.997 67.1354 274.195 67.8958 272.549 68.5625C270.924 69.2083 269.632 69.7396 268.674 70.1562ZM281.018 54.0938C278.226 54.0938 275.934 54.7812 274.143 56.1562C272.351 57.5104 271.007 59.2812 270.111 61.4688C269.236 63.6562 268.757 65.9896 268.674 68.4688C269.382 68.3229 270.455 68 271.893 67.5C273.351 66.9792 274.945 66.3438 276.674 65.5938C278.424 64.8229 280.09 64 281.674 63.125C283.257 62.2292 284.559 61.3333 285.58 60.4375C286.622 59.5417 287.143 58.6979 287.143 57.9062C287.143 57.0521 286.778 56.3438 286.049 55.7812C285.32 55.1979 284.465 54.7708 283.486 54.5C282.528 54.2292 281.705 54.0938 281.018 54.0938ZM341.714 78.3438C340.755 79.0729 339.714 79.8438 338.589 80.6562C337.485 81.4479 336.328 82.125 335.12 82.6875C333.912 83.2292 332.672 83.5 331.401 83.5C329.255 83.5 328.182 82.4062 328.182 80.2188C328.182 79.5104 328.245 78.8125 328.37 78.125C328.516 77.4167 328.662 76.7188 328.807 76.0312C329.224 73.8854 329.662 71.75 330.12 69.625C330.578 67.4792 331.016 65.3333 331.432 63.1875C331.516 62.7292 331.578 62.2708 331.62 61.8125C331.682 61.3333 331.714 60.8542 331.714 60.375C331.714 58.3125 331.151 56.8021 330.026 55.8438C328.922 54.8646 327.37 54.375 325.37 54.375C323.953 54.375 322.776 54.7188 321.839 55.4062C320.922 56.0938 320.172 56.9896 319.589 58.0938C319.005 59.1979 318.547 60.3646 318.214 61.5938C317.88 62.8229 317.599 63.9896 317.37 65.0938L315.182 76.0938C315.141 76.3021 315.12 76.5104 315.12 76.7188C315.12 77.3229 315.287 77.8646 315.62 78.3438C315.974 78.8229 316.474 79.0625 317.12 79.0625C317.412 79.0625 317.693 79.0312 317.964 78.9688C318.235 78.8854 318.505 78.7917 318.776 78.6875C318.005 79.2083 317.068 79.8646 315.964 80.6562C314.88 81.4479 313.766 82.1562 312.62 82.7812C311.474 83.4062 310.432 83.7188 309.495 83.7188C308.766 83.7188 308.245 83.5 307.932 83.0625C307.641 82.6458 307.495 82.1042 307.495 81.4375C307.495 81.1042 307.516 80.7708 307.557 80.4375C307.62 80.1042 307.682 79.7812 307.745 79.4688C308.412 75.9688 309.13 72.4792 309.901 69C310.672 65.5208 311.391 62.0312 312.057 58.5312C312.12 58.2604 312.162 57.9896 312.182 57.7188C312.224 57.4479 312.245 57.1771 312.245 56.9062C312.245 55.8438 311.943 55.1042 311.339 54.6875C310.735 54.25 309.932 54.0312 308.932 54.0312C308.412 54.0312 307.891 54.0833 307.37 54.1875C306.849 54.2917 306.349 54.4271 305.87 54.5938C306.974 54.1979 307.901 53.7083 308.651 53.125C309.422 52.5208 310.151 51.9375 310.839 51.375C311.547 50.7917 312.36 50.3021 313.276 49.9062C314.193 49.5104 315.36 49.3125 316.776 49.3125C318.818 49.3125 319.839 50.3125 319.839 52.3125C319.839 52.7917 319.787 53.2812 319.682 53.7812C319.599 54.2604 319.495 54.7396 319.37 55.2188C320.599 54.3229 321.974 53.4479 323.495 52.5938C325.016 51.7188 326.589 51 328.214 50.4375C329.839 49.875 331.432 49.5938 332.995 49.5938C334.682 49.5938 336.193 50.0729 337.526 51.0312C338.88 51.9896 339.557 53.3854 339.557 55.2188C339.557 55.6562 339.516 56.1042 339.432 56.5625L336.026 73.5625C335.964 73.9375 335.901 74.3125 335.839 74.6875C335.797 75.0417 335.776 75.4062 335.776 75.7812C335.776 77.8229 336.839 78.8438 338.964 78.8438C339.422 78.8438 339.88 78.8021 340.339 78.7188C340.797 78.6146 341.255 78.4896 341.714 78.3438ZM383.16 48.4688C382.743 48.5312 382.202 48.8021 381.535 49.2812C380.889 49.7604 380.181 50.3125 379.41 50.9375C378.66 51.5417 377.931 52.0729 377.223 52.5312C376.535 52.9688 375.962 53.1875 375.504 53.1875H371.223L367.535 71.5938C367.431 72.1146 367.337 72.6458 367.254 73.1875C367.191 73.7292 367.16 74.2604 367.16 74.7812C367.16 76.3646 367.566 77.5 368.379 78.1875C369.212 78.8542 370.389 79.1875 371.91 79.1875C372.702 79.1875 373.473 79.0625 374.223 78.8125C374.993 78.5625 375.723 78.2708 376.41 77.9375C375.077 79.6458 373.348 81.0208 371.223 82.0625C369.098 83.1042 366.941 83.625 364.754 83.625C362.962 83.625 361.691 83.0938 360.941 82.0312C360.212 80.9688 359.848 79.6146 359.848 77.9688C359.848 77.4062 359.879 76.8438 359.941 76.2812C360.004 75.7188 360.098 75.1667 360.223 74.625L364.504 53.1875H360.004L365.285 49.6562L366.16 44.7812C367.056 44.1562 367.952 43.5521 368.848 42.9688C369.764 42.3854 370.702 41.8438 371.66 41.3438C372.035 41.1562 372.41 40.9688 372.785 40.7812C373.181 40.5938 373.535 40.3542 373.848 40.0625L372.16 48.4688H383.16Z" fill="#F4DCDC"/>
<path d="M512.625 108.438C511.792 108.688 510.812 109.198 509.688 109.969C508.583 110.74 507.49 111.469 506.406 112.156C505.344 112.823 504.458 113.156 503.75 113.156H482.219L478.781 129.875H503.062C502.458 130.021 501.771 130.323 501 130.781C500.25 131.24 499.604 131.646 499.062 132C498.646 132.271 498.104 132.604 497.438 133C496.792 133.396 496.135 133.75 495.469 134.062C494.802 134.375 494.229 134.531 493.75 134.531H477.844L475.625 145.719C475.479 146.448 475.24 147.354 474.906 148.438C474.573 149.5 474.146 150.5 473.625 151.438C473.104 152.375 472.49 153.01 471.781 153.344H497.469C498.552 153.344 499.812 153.125 501.25 152.688C502.708 152.25 503.969 151.854 505.031 151.5C504.531 151.917 503.656 152.479 502.406 153.188C501.177 153.896 499.823 154.625 498.344 155.375C496.865 156.104 495.49 156.729 494.219 157.25C492.948 157.75 492.021 158 491.438 158H463.375C464.979 156.312 466.135 154.656 466.844 153.031C467.573 151.406 468.167 149.469 468.625 147.219L471.156 134.531H466.375L471.969 130.781L475.5 113.156H469.094C469.406 112.927 469.948 112.562 470.719 112.062C471.51 111.562 472.365 111.031 473.281 110.469C474.198 109.906 475.031 109.427 475.781 109.031C476.552 108.635 477.083 108.438 477.375 108.438H512.625ZM554.384 124.5C553.425 125.708 552.238 126.781 550.821 127.719C549.405 128.635 547.884 129.354 546.259 129.875C544.655 130.396 543.092 130.656 541.571 130.656C540.655 130.656 539.8 130.479 539.009 130.125C538.217 129.75 537.415 129.385 536.603 129.031C535.811 128.656 534.967 128.469 534.071 128.469C533.175 128.469 532.384 128.969 531.696 129.969C531.009 130.969 530.405 132.24 529.884 133.781C529.363 135.323 528.915 136.948 528.54 138.656C528.165 140.344 527.853 141.906 527.603 143.344C527.353 144.781 527.155 145.865 527.009 146.594C526.842 147.406 526.644 148.229 526.415 149.062C526.207 149.875 526.103 150.708 526.103 151.562C526.103 152.229 526.238 152.812 526.509 153.312C526.8 153.812 527.332 154.062 528.103 154.062C528.603 154.062 529.155 153.938 529.759 153.688C528.738 154.417 527.853 155.177 527.103 155.969C526.353 156.74 525.54 157.396 524.665 157.938C523.79 158.458 522.634 158.719 521.196 158.719C520.488 158.719 519.853 158.49 519.29 158.031C518.728 157.594 518.446 157 518.446 156.25C518.446 156.062 518.467 155.875 518.509 155.688C519.217 152.125 519.946 148.562 520.696 145C521.467 141.438 522.196 137.875 522.884 134.312C522.967 133.896 523.04 133.479 523.103 133.062C523.186 132.625 523.228 132.198 523.228 131.781C523.228 130.698 522.925 129.969 522.321 129.594C521.738 129.219 520.946 129.031 519.946 129.031C519.03 129.031 518.082 129.188 517.103 129.5C517.019 129.542 516.946 129.573 516.884 129.594C516.884 129.594 516.957 129.562 517.103 129.5C518.186 129.125 519.082 128.656 519.79 128.094C520.498 127.51 521.186 126.927 521.853 126.344C522.54 125.76 523.332 125.281 524.228 124.906C525.144 124.51 526.332 124.312 527.79 124.312C529.769 124.312 530.759 125.26 530.759 127.156C530.759 127.531 530.738 127.896 530.696 128.25C530.675 128.604 530.634 128.958 530.571 129.312C531.738 128.625 533.071 127.844 534.571 126.969C536.092 126.094 537.634 125.344 539.196 124.719C540.78 124.073 542.248 123.75 543.603 123.75C544.561 123.75 545.436 123.938 546.228 124.312C547.019 124.667 547.759 125.031 548.446 125.406C549.155 125.76 549.842 125.938 550.509 125.938C551.134 125.938 551.8 125.781 552.509 125.469C553.238 125.135 553.863 124.812 554.384 124.5ZM588.08 150.812C588.08 151.917 588.372 152.698 588.955 153.156C589.538 153.615 590.372 153.844 591.455 153.844C592.163 153.844 592.851 153.771 593.518 153.625C592.622 154.312 591.643 155.042 590.58 155.812C589.538 156.583 588.445 157.24 587.299 157.781C586.174 158.302 585.007 158.562 583.799 158.562C582.799 158.562 581.976 158.385 581.33 158.031C580.705 157.677 580.393 156.938 580.393 155.812C580.393 155.417 580.413 155.031 580.455 154.656C580.518 154.26 580.59 153.875 580.674 153.5C579.549 154.229 578.372 155 577.143 155.812C575.913 156.625 574.643 157.312 573.33 157.875C572.018 158.438 570.653 158.719 569.236 158.719C566.09 158.719 563.695 157.854 562.049 156.125C560.424 154.375 559.611 151.948 559.611 148.844C559.611 145.677 560.288 142.615 561.643 139.656C562.997 136.677 564.83 134 567.143 131.625C569.476 129.25 572.111 127.365 575.049 125.969C578.007 124.573 581.07 123.875 584.236 123.875C585.757 123.875 587.226 124.104 588.643 124.562C590.08 125.021 591.518 125.448 592.955 125.844L588.361 148.469C588.278 148.844 588.205 149.229 588.143 149.625C588.101 150.021 588.08 150.417 588.08 150.812ZM584.736 133.469C583.382 130.135 580.913 128.469 577.33 128.469C575.497 128.469 573.924 129.073 572.611 130.281C571.32 131.469 570.257 132.979 569.424 134.812C568.611 136.625 568.007 138.5 567.611 140.438C567.236 142.354 567.049 144.031 567.049 145.469C567.049 148.26 567.726 150.396 569.08 151.875C570.455 153.333 572.559 154.062 575.393 154.062C575.955 154.062 576.674 153.896 577.549 153.562C578.445 153.208 579.268 152.771 580.018 152.25C580.768 151.708 581.205 151.135 581.33 150.531L584.736 133.469Z" fill="#F4DCDC"/>
</svg>
